<?xml version="1.0" encoding="UTF-8"?>
<svg width="953px" height="953px" viewBox="0 0 953 953" version="1.1" xmlns="http://www.w3.org/2000/svg" xmlns:xlink="http://www.w3.org/1999/xlink">
    <title>Group 2</title>
    <g id="Portfolio" stroke="none" stroke-width="1" fill="none" fill-rule="evenodd">
        <g id="Group-2" transform="translate(30, 30)">
            <rect id="Rectangle" stroke="#15DB93" stroke-width="30" x="-15" y="-15" width="923" height="923" rx="8"></rect>
            <path d="M700.200484,227.88826 C705.256087,237.859751 710.542297,264.472817 716.059116,307.727459 L716.059116,471.904269 C716.059116,525.559383 730.307431,544.791434 741.930385,602.05278 C743.053458,607.585684 744.390874,612.706672 745.793964,617.703672 L746.178142,619.063633 C746.563725,620.420952 746.953187,621.770995 747.343513,623.119604 L747.929273,625.142172 L748.514067,627.166968 L748.6997,627.812857 L749.069693,629.107212 C753.005669,642.934998 756.568702,657.509818 756.568702,679.009974 L756.569399,679.806679 C756.569461,679.868375 756.569519,679.931745 756.56957,679.996761 L756.569603,680.854325 C756.564598,686.764965 756.431526,701.582553 754.512785,713.815748 C752.341579,727.658575 747.349377,734.578234 741.930385,746.897383 C736.644362,758.914251 721.786563,772.394473 716.059116,778.624266 C691.946361,804.851917 646.21274,820.421053 578.858253,825.331672 C466.102335,819.392304 367.475543,798.585588 282.977878,762.911526 C198.480213,727.237463 152.484583,690.834947 144.990987,653.703977 C140.648926,620.298927 140.648926,559.699025 144.990987,471.904269 C149.333048,384.109513 156.194172,302.770843 165.574361,227.88826 C177.399158,259.453026 188.43274,282.018246 198.675105,295.583921 C232.199421,339.98577 276.442771,366.318269 301.505456,351.880722 C284.812235,366.967484 268.922751,378.819173 253.840155,387.436131 L253.595889,387.575684 L253.460211,387.822124 C251.485604,391.4087 253.798644,394.116162 259.556314,395.687548 C264.889221,397.143007 273.587896,397.862303 285.692927,397.862303 C307.785607,397.862303 330.836489,392.790192 354.06864,382.960656 C349.370592,391.45398 341.323949,412.628991 390.996293,394.234168 C451.989529,371.646956 476.330937,370.210999 525.184516,394.234168 C556.774254,409.768048 572.508565,405.691973 572.387449,382.005942 C595.917019,393.202197 615.957541,398.862303 632.824125,398.862303 C639.887628,398.862303 644.10112,398.738912 646.734806,398.432154 C649.941203,398.058688 651.456297,397.328128 651.112518,395.595747 C650.900167,394.525659 650.031795,393.674259 647.415931,391.570383 C643.291446,388.253159 642.625088,387.696311 640.717959,385.833861 C640.468868,385.590605 640.224255,385.346568 639.983912,385.101369 C639.925459,385.041736 639.866904,384.981453 639.808245,384.92052 C635.763813,380.719318 631.614699,374.029505 626.105675,363.496629 C626.055073,363.399881 626.004353,363.302815 625.953467,363.205338 C629.238827,364.117883 633.747503,364.482177 638.901748,362.705032 C715.104483,336.430903 692.61708,212.931024 700.200484,227.88826 Z M534.930622,288.051132 L535.601091,288.491119 C535.712548,288.564693 535.823867,288.638376 535.935056,288.712151 L536.600683,289.155765 C537.375568,289.674273 538.144831,290.19556 538.911181,290.713584 L539.721165,291.260274 C542.013714,292.804274 544.288674,294.299776 546.619082,295.583921 C569.167559,308.009001 585.604167,325.099341 600.255641,338.466602 C603.867128,341.761539 604.865927,342.915295 607.374295,345.655833 C608.504006,346.890108 610.899319,349.230271 612.57375,350.525443 C614.553238,352.056576 617.316804,355.658132 618.765065,356.900447 C620.168603,358.1044 621.552478,361.102494 623.211427,362.268881 C623.603984,363.024143 623.971629,363.731793 624.333445,364.42356 C629.929016,375.121908 634.148459,381.925116 638.367404,386.307595 C638.430214,386.37284 638.492955,386.437432 638.555629,386.501372 C638.806289,386.757095 639.061208,387.011416 639.320606,387.264736 C640.452218,388.369838 641.639993,389.429732 642.977225,390.547202 C643.499849,390.983937 644.029848,391.416939 644.6571,391.921875 C644.958048,392.164137 645.969337,392.973523 646.162482,393.128864 L646.386922,393.309994 C648.069709,394.672896 648.884242,395.446489 649.097444,395.846919 L649.10157,395.855541 L649.080679,395.867723 C649.060712,395.878392 649.037922,395.890029 649.012136,395.902462 C648.572354,396.11452 647.743798,396.30111 646.50342,396.445584 C643.971879,396.740445 639.810721,396.862303 632.824125,396.862303 C616.196914,396.862303 596.288421,391.210665 572.819267,379.996888 C572.666753,379.924015 572.504196,379.848471 572.331573,379.770243 L572.330471,379.746528 L571.795035,379.532504 C570.817686,379.108276 569.57996,378.614444 568.078902,378.049335 L568.459765,378.193692 C531.895186,363.466606 508.734053,352.445103 498.976364,345.129184 C475.998483,327.901302 479.76912,306.112871 464.474591,322.548876 C430.573921,358.979653 371.046104,375.887625 358.428409,379.150781 L358.400654,379.068437 C358.069291,379.181383 357.754826,379.291493 357.457185,379.398811 L356.953148,379.524689 C356.351942,379.673515 356.036566,379.746528 356.036566,379.746528 C356.036566,379.746528 355.970093,379.841194 355.851734,380.018045 L355.814983,380.033764 L355.558914,380.143453 C331.794528,390.512616 308.223293,395.862303 285.692927,395.862303 C273.75243,395.862303 265.202224,395.155284 260.082896,393.758115 L259.787787,393.675936 C255.526051,392.464804 254.186353,390.99451 255.077018,389.054225 L255.091533,389.023342 L255.742913,388.649115 C273.624209,378.302641 292.589122,363.495251 312.643151,344.228122 C345.472767,320.118514 364.675212,294.153198 412.888813,284.131195 C432.716779,280.009621 471.646613,295.099479 496.38388,284.131195 C514.016603,276.313003 525.070854,281.62141 534.930622,288.051132 Z M678.129506,72.9053085 C692.521564,75.1679401 711.918951,80.7474988 719.024924,84.8379241 C721.496652,86.6951558 722.732516,93.4241851 722.732516,105.025012 L711.918951,113.576916 C706.164674,157.734269 697.862102,188.357978 687.011236,205.448044 C670.734936,231.083142 604.755111,249.959762 536.84345,211.019739 C511.450813,174.285423 498.539518,143.389804 498.109567,118.332882 C485.625279,111.039419 475.029635,110.337558 466.322634,116.2273 C449.159928,171.143246 432.003112,203.636948 414.852186,213.708406 C389.125797,228.815592 357.218124,235.80377 295.602597,227.543408 C273.135089,224.531346 264.636439,210.78442 258.489179,196.317079 L258.091485,195.372639 C257.696886,194.427382 257.311215,193.479988 256.931247,192.533233 L256.533249,191.537005 C256.467221,191.371047 256.401333,191.205138 256.335569,191.039294 L255.942326,190.045125 L255.521832,188.978682 C255.172156,188.091323 254.823958,187.207633 254.474534,186.329944 C245.885002,164.754581 240.594772,143.865758 243.634466,125.403516 L226.934105,114.168835 L151.071294,165.665787 L135.834533,157.608621 C169.651464,117.51519 199.830497,91.8948156 226.371634,80.7474988 C266.18334,64.0265237 397.58641,61.3319671 456.689963,80.7474988 C467.401457,84.2662274 471.731063,84.7585324 474.907413,84.7774029 L475.206602,84.7778503 C475.305282,84.7775768 475.402966,84.7769078 475.499823,84.7759251 L475.788076,84.7721172 C475.835761,84.7713529 475.88328,84.7705306 475.930655,84.7696604 L476.353701,84.7608139 C476.447097,84.7586836 476.540167,84.7564846 476.633078,84.7542986 L476.911505,84.747861 C477.236171,84.7405864 477.560944,84.734471 477.892996,84.7330169 L478.179562,84.7329937 C478.227676,84.7332073 478.27598,84.7335365 478.324496,84.7339914 L478.618292,84.7383117 C479.16218,84.7492985 479.736694,84.7779727 480.369667,84.8379241 C490.429361,85.7907177 491.854481,86.3499184 497.464641,84.8379241 C498.604243,84.5307898 504.477181,83.5499673 510.694705,82.6257971 L511.629369,82.4876878 C511.785395,82.4647708 511.941498,82.4419121 512.097611,82.419123 L513.033857,82.2833153 L513.876227,82.1626469 C519.33829,81.3850481 524.489102,80.7474988 526.339097,80.7474988 C544.562456,80.7474988 566.919266,55.4215119 678.129506,72.9053085 Z M562.560638,79.3040644 C559.751109,79.7677272 556.728407,80.2565784 552.810448,80.8939237 C551.686635,81.0767374 549.513474,81.6155484 547.328515,82.1662354 L546.673711,82.3314537 C544.06138,82.990999 541.581469,83.6180923 541.026868,83.6180923 C538.370209,83.6180923 531.802392,87.1690099 529.046385,88.1830478 C512.571583,94.2447423 511.345481,112.434244 511.345481,112.434244 L511.34466,112.526327 C511.344594,112.538547 511.344534,112.551971 511.344487,112.566593 L511.344517,112.730343 C511.349696,114.33954 511.505264,122.393295 513.934079,134.079156 C515.82233,143.164182 519.764113,155.522722 523.269917,164.300492 C530.767145,178.408768 536.686128,189.059575 541.026868,196.252912 C543.669262,200.631806 544.887663,201.323843 546.14659,201.92758 L546.331283,202.015719 C546.701926,202.192408 547.082162,202.376569 547.508707,202.658428 C548.083617,203.038325 552.499316,207.126399 554.244848,207.882904 C554.499814,207.993405 555.646212,208.764165 556.818546,209.589194 L557.286811,209.920664 C558.450675,210.749391 559.525076,211.551588 559.644519,211.721265 C559.958839,212.167779 559.774691,212.272023 559.593773,212.285717 L559.540097,212.287361 C559.531334,212.287266 559.522705,212.287007 559.514272,212.286617 L559.46653,212.282943 L559.478886,212.286164 C559.733289,212.346226 560.537952,212.570849 562.560638,213.295077 C563.240311,213.538435 562.997996,213.437404 562.69481,213.275724 L562.61126,213.230338 L562.536902,213.188099 C562.086272,212.925232 561.83535,212.635696 564.744936,213.295077 C575.553323,215.744512 584.514319,219.822108 593.833695,221.202361 C612.683398,223.99411 634.899514,224.672688 653.94981,218.883692 C658.945807,217.365511 664.83404,213.698581 671.614509,207.882904 C691.492731,176.755854 691.492731,157.292998 694.633725,146.489302 C695.795304,142.49396 695.015414,136.966729 696.572696,132.511897 C697.536575,129.754579 697.972624,125.587247 698.07224,122.827658 C698.285261,116.926541 697.026837,112.622993 696.572696,108.26908 C696.15407,104.255663 694.223425,100.693368 690.780758,97.5821951 C685.376172,92.1860818 680.831949,88.5124124 673.212242,86.1413287 C647.445861,78.123403 626.901582,76.8850356 610.315578,76.3865586 C589.616534,75.7644679 574.95729,77.2582176 562.560638,79.3040644 Z M302.560638,76.3040644 C299.751109,76.7677272 296.728407,77.2565784 292.810448,77.8939237 C291.686635,78.0767374 289.513474,78.6155484 287.328515,79.1662354 L286.673711,79.3314537 C284.06138,79.990999 281.581469,80.6180923 281.026868,80.6180923 C256.572662,80.6180923 254.434562,105.366617 254.434562,105.366617 C254.434562,105.366617 252.950347,143.611651 261.514031,165.053254 C265.7036,180.930033 269.968754,192.465091 274.309494,199.658428 C277.85417,205.532554 275.315603,203.591051 277.270602,204.882904 C277.845513,205.262801 278.211816,207.827485 279.957347,208.58399 C280.501274,208.819725 280.772056,209.562661 281.026868,209.924637 C281.161576,210.116001 281.2775,210.313478 281.393338,210.517177 L281.493044,210.693301 L281.595325,210.872487 C282.256785,212.017058 283.230669,213.346732 287.508707,214.878493 C288.219274,215.132913 287.872531,215.158013 287.491109,215.163328 L287.391493,215.164404 L287.30433,215.165282 C286.793037,215.171563 286.544183,215.206751 289.366617,215.846382 C345.866904,228.650679 386.925271,223.748451 412.541719,201.139698 C438.353509,160.721349 438.689225,142.745859 446.063181,125.600823 C450.979151,114.170798 447.890964,103.152565 436.798618,92.5461228 C431.394031,87.1500096 423.69549,82.9891761 416.075782,80.6180923 C392.979305,73.4309814 371.52546,72.2658393 355.400469,71.8180797 C331.086488,71.1429278 315.986581,74.0883514 302.560638,76.3040644 Z" id="Combined-Shape" fill="#15DB93"></path>
        </g>
    </g>
</svg>