<?xml version="1.0" encoding="UTF-8"?>
<svg width="620.735069px" height="758.58033px" viewBox="0 0 620.735069 758.58033" version="1.1" xmlns="http://www.w3.org/2000/svg" xmlns:xlink="http://www.w3.org/1999/xlink">
    <title>Combined Shape</title>
    <g id="Portfolio" stroke="none" stroke-width="1" fill="none" fill-rule="evenodd">
        <path d="M564.365951,161.136918 C569.421554,171.108409 574.707764,197.721475 580.224583,240.976116 L580.224583,405.152926 C580.224583,458.808041 594.472898,478.040092 606.095852,535.301438 C607.218925,540.834341 608.556341,545.95533 609.959431,550.95233 L610.343609,552.31229 C610.729191,553.669609 611.118654,555.019653 611.50898,556.368262 L612.09474,558.390829 L612.679534,560.415625 L612.865167,561.061515 L613.23516,562.35587 C617.171136,576.183655 620.734169,590.758476 620.734169,612.258632 L620.734866,613.055336 C620.734928,613.117033 620.734986,613.180402 620.735037,613.245418 L620.735069,614.102983 C620.730065,620.013623 620.596993,634.831211 618.678252,647.064406 C616.507046,660.907232 611.514844,667.826892 606.095852,680.146041 C600.809828,692.162908 585.95203,705.64313 580.224583,711.872924 C556.111828,738.100575 510.378207,753.66971 443.02372,758.58033 C330.267802,752.640961 231.64101,731.834246 147.143345,696.160183 C62.6456798,660.48612 16.6500494,624.083604 9.15645371,586.952634 C4.81439275,553.547585 4.81439275,492.947682 9.15645371,405.152926 C13.4985147,317.35817 20.3596392,236.019501 29.7398274,161.136918 C41.5646249,192.701683 52.5982066,215.266904 62.8405723,228.832579 C96.3648878,273.234427 140.608238,299.566926 165.670923,285.12938 C148.977702,300.216142 133.088217,312.06783 118.005622,320.684789 L117.761356,320.824342 L117.625678,321.070781 C115.651071,324.657357 117.964111,327.364819 123.721781,328.936205 C129.054688,330.391665 137.753363,331.11096 149.858394,331.11096 C171.951074,331.11096 195.001956,326.038849 218.234107,316.209313 C213.536059,324.702637 205.489416,345.877649 255.16176,327.482826 C316.154996,304.895613 340.496404,303.459656 389.349983,327.482826 C420.939721,343.016705 436.674032,338.94063 436.552916,315.2546 C460.082486,326.450854 480.123008,332.11096 496.989592,332.11096 C504.053095,332.11096 508.266587,331.98757 510.900273,331.680811 C514.10667,331.307346 515.621764,330.576786 515.277985,328.844405 C515.065634,327.774317 514.197262,326.922917 511.581398,324.81904 C507.456913,321.501817 506.790555,320.944968 504.883426,319.082519 C504.634334,318.839263 504.389722,318.595225 504.149379,318.350027 C504.090926,318.290394 504.032371,318.23011 503.973712,318.169177 C499.92928,313.967976 495.780166,307.278163 490.271142,296.745286 C490.22054,296.648539 490.16982,296.551473 490.118934,296.453996 C493.404294,297.36654 497.912969,297.730835 503.067215,295.953689 C579.26995,269.679561 556.782546,146.179681 564.365951,161.136918 Z M399.096088,221.29979 L399.766558,221.739776 C399.878015,221.81335 399.989334,221.887034 400.100522,221.960809 L400.76615,222.404423 C401.541035,222.922931 402.310298,223.444218 403.076648,223.962241 L403.886632,224.508931 C406.179181,226.052931 408.454141,227.548434 410.784549,228.832579 C433.333026,241.257659 449.769633,258.347998 464.421108,271.715259 C468.032595,275.010197 469.031394,276.163952 471.539762,278.90449 C472.669473,280.138765 475.064786,282.478929 476.739217,283.774101 C478.718705,285.305233 481.482271,288.90679 482.930532,290.149105 C484.33407,291.353058 485.717944,294.351151 487.376894,295.517539 C487.769451,296.272801 488.137096,296.980451 488.498912,297.672218 C494.094483,308.370566 498.313926,315.173773 502.532871,319.556253 C502.595681,319.621497 502.658422,319.68609 502.721096,319.750029 C502.971756,320.005753 503.226675,320.260074 503.486073,320.513394 C504.617685,321.618496 505.80546,322.67839 507.142692,323.795859 C507.665315,324.232594 508.195315,324.665597 508.822567,325.170533 C509.123515,325.412795 510.134804,326.22218 510.327949,326.377522 L510.552389,326.558651 C512.235176,327.921553 513.049709,328.695147 513.262911,329.095576 L513.267036,329.104199 L513.246145,329.11638 C513.226179,329.12705 513.203389,329.138686 513.177603,329.15112 C512.737821,329.363178 511.909265,329.549768 510.668887,329.694241 C508.137346,329.989102 503.976188,330.11096 496.989592,330.11096 C480.362381,330.11096 460.453888,324.459322 436.984734,313.245545 C436.83222,313.172672 436.669662,313.097128 436.49704,313.0189 L436.495938,312.995186 L435.960502,312.781162 C434.983153,312.356934 433.745427,311.863101 432.244369,311.297992 L432.625232,311.44235 C396.060653,296.715263 372.899519,285.693761 363.141831,278.377842 C340.16395,261.14996 343.934587,239.361528 328.640058,255.797533 C294.739388,292.228311 235.211571,309.136282 222.593876,312.399439 L222.566121,312.317094 C222.234758,312.430041 221.920293,312.54015 221.622652,312.647469 L221.118615,312.773347 C220.517409,312.922173 220.202033,312.995186 220.202033,312.995186 C220.202033,312.995186 220.13556,313.089852 220.017201,313.266703 L219.98045,313.282422 L219.724381,313.39211 C195.959995,323.761274 172.38876,329.11096 149.858394,329.11096 C137.917897,329.11096 129.367691,328.403942 124.248363,327.006772 L123.953254,326.924594 C119.691518,325.713461 118.35182,324.243167 119.242485,322.302882 L119.257,322.272 L119.90838,321.897773 C137.789676,311.551298 156.754589,296.743909 176.808618,277.476779 C209.638234,253.367171 228.840679,227.401855 277.05428,217.379853 C296.882246,213.258279 335.81208,228.348137 360.549347,217.379853 C378.18207,209.56166 389.23632,214.870068 399.096088,221.29979 Z M542.294973,6.15396599 C556.687031,8.41659765 576.084418,13.9961563 583.190391,18.0865816 C585.662119,19.9438133 586.897983,26.6728426 586.897983,38.2736694 L576.084418,46.8255736 C570.330141,90.9829264 562.027569,121.606636 551.176703,138.696701 C534.900403,164.3318 468.920577,183.20842 401.008917,144.268396 C375.61628,107.534081 362.704985,76.6384617 362.275034,51.5815396 C349.790746,44.2880768 339.195102,43.586216 330.488101,49.4759571 C313.325395,104.391904 296.168579,136.885606 279.017653,146.957063 C253.291264,162.064249 221.383591,169.052427 159.768064,160.792065 C137.300556,157.780004 128.801906,144.033078 122.654646,129.565737 L122.256952,128.621296 C121.862353,127.67604 121.476682,126.728645 121.096714,125.78189 L120.698716,124.785663 C120.632688,124.619704 120.5668,124.453795 120.501036,124.287951 L120.107793,123.293782 L119.687299,122.227339 C119.337622,121.33998 118.989425,120.45629 118.640001,119.578601 C110.050469,98.0032389 104.760239,77.1144151 107.799933,58.6521739 L91.0995715,47.4174926 L15.2367604,98.9144445 L0,90.8572785 C33.8169305,50.7638472 63.9959642,25.1434731 90.5371012,13.9961563 C130.348807,-2.72481882 261.751877,-5.4193754 320.855429,13.9961563 C331.566924,17.5148849 335.89653,18.0071899 339.072879,18.0260604 L339.372069,18.0265078 C339.470749,18.0262343 339.568433,18.0255653 339.665289,18.0245826 L339.953543,18.0207747 C340.001228,18.0200104 340.048747,18.0191881 340.096122,18.0183179 L340.519167,18.0094714 C340.612563,18.0073411 340.705634,18.0051421 340.798545,18.0029561 L341.076971,17.9965185 C341.401638,17.9892439 341.726411,17.9831285 342.058463,17.9816744 L342.345029,17.9816512 C342.393143,17.9818648 342.441447,17.982194 342.489963,17.9826489 L342.783759,17.9869692 C343.327647,17.997956 343.902161,18.0266302 344.535134,18.0865816 C354.594827,19.0393752 356.019948,19.5985759 361.630107,18.0865816 C362.76971,17.7794473 368.642648,16.7986248 374.860172,15.8744546 L375.794836,15.7363453 C375.950862,15.7134283 376.106965,15.6905696 376.263078,15.6677805 L377.199324,15.5319728 L378.041694,15.4113044 C383.503757,14.6337056 388.654569,13.9961563 390.504564,13.9961563 C408.727923,13.9961563 431.084733,-11.3298306 542.294973,6.15396599 Z M426.726105,12.5527219 C423.916576,13.0163847 420.893874,13.5052359 416.975915,14.1425812 C415.852102,14.3253949 413.67894,14.8642059 411.493982,15.4148929 L410.839178,15.5801112 C408.226847,16.2396565 405.746936,16.8667499 405.192334,16.8667499 C402.535676,16.8667499 395.967859,20.4176674 393.211852,21.4317053 C376.737049,27.4933998 375.510948,45.6829014 375.510948,45.6829014 L375.510126,45.7749841 C375.510061,45.787204 375.510001,45.8006285 375.509954,45.8152507 L375.509983,45.9790008 C375.515163,47.5881973 375.670731,55.641952 378.099546,67.3278136 C379.987797,76.41284 383.92958,88.7713792 387.435384,97.5491498 C394.932612,111.657426 400.851595,122.308233 405.192334,129.50157 C407.834729,133.880464 409.05313,134.5725 410.312057,135.176237 L410.49675,135.264377 C410.867393,135.441065 411.247629,135.625227 411.674174,135.907086 C412.249084,136.286983 416.664783,140.375057 418.410315,141.131561 C418.665281,141.242062 419.811678,142.012823 420.984013,142.837852 L421.452278,143.169321 C422.616142,143.998048 423.690543,144.800246 423.809986,144.969922 C424.124306,145.416437 423.940158,145.52068 423.75924,145.534375 L423.705564,145.536018 C423.696801,145.535923 423.688172,145.535665 423.679739,145.535275 L423.631997,145.531601 L423.644353,145.534821 C423.898756,145.594883 424.703419,145.819507 426.726105,146.543734 C427.405778,146.787093 427.163463,146.686062 426.860277,146.524381 L426.776727,146.478996 L426.702369,146.436757 C426.251739,146.17389 426.000817,145.884353 428.910403,146.543734 C439.71879,148.993169 448.679786,153.070766 457.999162,154.451019 C476.848865,157.242768 499.064981,157.921345 518.115277,152.13235 C523.111274,150.614168 528.999507,146.947239 535.779976,141.131561 C555.658198,110.004511 555.658198,90.5416552 558.799192,79.7379592 C559.960771,75.7426177 559.180881,70.2153867 560.738163,65.7605548 C561.702042,63.003237 562.13809,58.8359046 562.237707,56.0763154 C562.450728,50.1751983 561.192304,45.8716501 560.738163,41.5177374 C560.319537,37.5043209 558.388892,33.942026 554.946225,30.8308526 C549.541639,25.4347393 544.997416,21.7610699 537.377708,19.3899862 C511.611328,11.3720605 491.067049,10.1336931 474.481045,9.63521608 C453.782001,9.01312545 439.122757,10.5068751 426.726105,12.5527219 Z M166.726105,9.55272187 C163.916576,10.0163847 160.893874,10.5052359 156.975915,11.1425812 C155.852102,11.3253949 153.67894,11.8642059 151.493982,12.4148929 L150.839178,12.5801112 C148.226847,13.2396565 145.746936,13.8667499 145.192334,13.8667499 C120.738129,13.8667499 118.600029,38.6152744 118.600029,38.6152744 C118.600029,38.6152744 117.115814,76.8603087 125.679498,98.3019114 C129.869067,114.17869 134.134221,125.713748 138.474961,132.907086 C142.019636,138.781212 139.48107,136.839709 141.436069,138.131561 C142.010979,138.511459 142.377282,141.076143 144.122814,141.832647 C144.666741,142.068383 144.937523,142.811318 145.192334,143.173295 C145.327043,143.364658 145.442966,143.562136 145.558805,143.765834 L145.65851,143.941958 L145.760791,144.121144 C146.422252,145.265715 147.396136,146.595389 151.674174,148.12715 C152.384741,148.381571 152.037998,148.40667 151.656576,148.411986 L151.55696,148.413062 L151.469796,148.413939 C150.958504,148.42022 150.709649,148.455409 153.532084,149.095039 C210.032371,161.899336 251.090738,156.997109 276.707186,134.388355 C302.518976,93.9700067 302.854692,75.9945167 310.228647,58.8494802 C315.144618,47.4194558 312.05643,36.4012225 300.964085,25.7947803 C295.559498,20.3986671 287.860956,16.2378336 280.241249,13.8667499 C257.144772,6.67963893 235.690927,5.51449681 219.565936,5.06673722 C195.251954,4.39158531 180.152048,7.33700894 166.726105,9.55272187 Z" id="Combined-Shape" fill="#15DB93"></path>
    </g>
</svg>