<?xml version="1.0" encoding="UTF-8"?>
<svg width="1201.73771px" height="1120.71406px" viewBox="0 0 1201.73771 1120.71406" version="1.1" xmlns="http://www.w3.org/2000/svg" xmlns:xlink="http://www.w3.org/1999/xlink">
    <title>Group 2</title>
    <g id="Portfolio" stroke="none" stroke-width="1" fill="none" fill-rule="evenodd">
        <g id="Group-2" transform="translate(-7.1311, 22.0625)">
            <path d="M608,-9.56247427 C613.166799,-9.56247427 618.333598,-7.99579641 622.751657,-4.86244069 L1185.6177,394.330847 C1190.19463,397.576878 1193.44149,402.128251 1195.1011,407.199107 C1196.7607,412.269963 1196.83303,417.860302 1195.06091,423.184268 L980.194209,1068.70504 C978.460349,1073.91405 975.156629,1078.27569 970.913874,1081.33507 C966.67112,1084.39445 961.489332,1086.15159 955.999336,1086.15159 L260.000664,1086.15159 C254.510668,1086.15159 249.32888,1084.39445 245.086126,1081.33507 C240.843371,1078.27569 237.539651,1073.91405 235.805791,1068.70504 L20.9390894,423.184268 C19.1669652,417.860302 19.2393025,412.269963 20.8989042,407.199107 C22.5585058,402.128251 25.8053717,397.576878 30.3823047,394.330847 L593.248343,-4.86244069 C597.666402,-7.99579641 602.833201,-9.56247427 608,-9.56247427 Z" id="Polygon" stroke="#15DB93" stroke-width="25"></path>
            <path d="M862.200484,400.88826 C867.256087,410.859751 872.542297,437.472817 878.059116,480.727459 L878.059116,644.904269 C878.059116,698.559383 892.307431,717.791434 903.930385,775.05278 C905.053458,780.585684 906.390874,785.706672 907.793964,790.703672 L908.178142,792.063633 C908.563725,793.420952 908.953187,794.770995 909.343513,796.119604 L909.929273,798.142172 L910.514067,800.166968 L910.6997,800.812857 L911.069693,802.107212 C915.005669,815.934998 918.568702,830.509818 918.568702,852.009974 L918.569399,852.806679 C918.569461,852.868375 918.569519,852.931745 918.56957,852.996761 L918.569603,853.854325 C918.564598,859.764965 918.431526,874.582553 916.512785,886.815748 C914.341579,900.658575 909.349377,907.578234 903.930385,919.897383 C898.644362,931.914251 883.786563,945.394473 878.059116,951.624266 C853.946361,977.851917 808.21274,993.421053 740.858253,998.331672 C628.102335,992.392304 529.475543,971.585588 444.977878,935.911526 C360.480213,900.237463 314.484583,863.834947 306.990987,826.703977 C302.648926,793.298927 302.648926,732.699025 306.990987,644.904269 C311.333048,557.109513 318.194172,475.770843 327.574361,400.88826 C339.399158,432.453026 350.43274,455.018246 360.675105,468.583921 C394.199421,512.98577 438.442771,539.318269 463.505456,524.880722 C446.812235,539.967484 430.922751,551.819173 415.840155,560.436131 L415.595889,560.575684 L415.460211,560.822124 C413.485604,564.4087 415.798644,567.116162 421.556314,568.687548 C426.889221,570.143007 435.587896,570.862303 447.692927,570.862303 C469.785607,570.862303 492.836489,565.790192 516.06864,555.960656 C511.370592,564.45398 503.323949,585.628991 552.996293,567.234168 C613.989529,544.646956 638.330937,543.210999 687.184516,567.234168 C718.774254,582.768048 734.508565,578.691973 734.387449,555.005942 C757.917019,566.202197 777.957541,571.862303 794.824125,571.862303 C801.887628,571.862303 806.10112,571.738912 808.734806,571.432154 C811.941203,571.058688 813.456297,570.328128 813.112518,568.595747 C812.900167,567.525659 812.031795,566.674259 809.415931,564.570383 C805.291446,561.253159 804.625088,560.696311 802.717959,558.833861 C802.468868,558.590605 802.224255,558.346568 801.983912,558.101369 C801.925459,558.041736 801.866904,557.981453 801.808245,557.92052 C797.763813,553.719318 793.614699,547.029505 788.105675,536.496629 C788.055073,536.399881 788.004353,536.302815 787.953467,536.205338 C791.238827,537.117883 795.747503,537.482177 800.901748,535.705032 C877.104483,509.430903 854.61708,385.931024 862.200484,400.88826 Z M696.930622,461.051132 L697.601091,461.491119 C697.712548,461.564693 697.823867,461.638376 697.935056,461.712151 L698.600683,462.155765 C699.375568,462.674273 700.144831,463.19556 700.911181,463.713584 L701.721165,464.260274 C704.013714,465.804274 706.288674,467.299776 708.619082,468.583921 C731.167559,481.009001 747.604167,498.099341 762.255641,511.466602 C765.867128,514.761539 766.865927,515.915295 769.374295,518.655833 C770.504006,519.890108 772.899319,522.230271 774.57375,523.525443 C776.553238,525.056576 779.316804,528.658132 780.765065,529.900447 C782.168603,531.1044 783.552478,534.102494 785.211427,535.268881 C785.603984,536.024143 785.971629,536.731793 786.333445,537.42356 C791.929016,548.121908 796.148459,554.925116 800.367404,559.307595 C800.430214,559.37284 800.492955,559.437432 800.555629,559.501372 C800.806289,559.757095 801.061208,560.011416 801.320606,560.264736 C802.452218,561.369838 803.639993,562.429732 804.977225,563.547202 C805.499849,563.983937 806.029848,564.416939 806.6571,564.921875 C806.958048,565.164137 807.969337,565.973523 808.162482,566.128864 L808.386922,566.309994 C810.069709,567.672896 810.884242,568.446489 811.097444,568.846919 L811.10157,568.855541 L811.080679,568.867723 C811.060712,568.878392 811.037922,568.890029 811.012136,568.902462 C810.572354,569.11452 809.743798,569.30111 808.50342,569.445584 C805.971879,569.740445 801.810721,569.862303 794.824125,569.862303 C778.196914,569.862303 758.288421,564.210665 734.819267,552.996888 C734.666753,552.924015 734.504196,552.848471 734.331573,552.770243 L734.330471,552.746528 L733.795035,552.532504 C732.817686,552.108276 731.57996,551.614444 730.078902,551.049335 L730.459765,551.193692 C693.895186,536.466606 670.734053,525.445103 660.976364,518.129184 C637.998483,500.901302 641.76912,479.112871 626.474591,495.548876 C592.573921,531.979653 533.046104,548.887625 520.428409,552.150781 L520.400654,552.068437 C520.069291,552.181383 519.754826,552.291493 519.457185,552.398811 L518.953148,552.524689 C518.351942,552.673515 518.036566,552.746528 518.036566,552.746528 C518.036566,552.746528 517.970093,552.841194 517.851734,553.018045 L517.814983,553.033764 L517.558914,553.143453 C493.794528,563.512616 470.223293,568.862303 447.692927,568.862303 C435.75243,568.862303 427.202224,568.155284 422.082896,566.758115 L421.787787,566.675936 C417.526051,565.464804 416.186353,563.99451 417.077018,562.054225 L417.091533,562.023342 L417.742913,561.649115 C435.624209,551.302641 454.589122,536.495251 474.643151,517.228122 C507.472767,493.118514 526.675212,467.153198 574.888813,457.131195 C594.716779,453.009621 633.646613,468.099479 658.38388,457.131195 C676.016603,449.313003 687.070854,454.62141 696.930622,461.051132 Z M840.129506,245.905308 C854.521564,248.16794 873.918951,253.747499 881.024924,257.837924 C883.496652,259.695156 884.732516,266.424185 884.732516,278.025012 L873.918951,286.576916 C868.164674,330.734269 859.862102,361.357978 849.011236,378.448044 C832.734936,404.083142 766.755111,422.959762 698.84345,384.019739 C673.450813,347.285423 660.539518,316.389804 660.109567,291.332882 C647.625279,284.039419 637.029635,283.337558 628.322634,289.2273 C611.159928,344.143246 594.003112,376.636948 576.852186,386.708406 C551.125797,401.815592 519.218124,408.80377 457.602597,400.543408 C435.135089,397.531346 426.636439,383.78442 420.489179,369.317079 L420.091485,368.372639 C419.696886,367.427382 419.311215,366.479988 418.931247,365.533233 L418.533249,364.537005 C418.467221,364.371047 418.401333,364.205138 418.335569,364.039294 L417.942326,363.045125 L417.521832,361.978682 C417.172156,361.091323 416.823958,360.207633 416.474534,359.329944 C407.885002,337.754581 402.594772,316.865758 405.634466,298.403516 L388.934105,287.168835 L313.071294,338.665787 L297.834533,330.608621 C331.651464,290.51519 361.830497,264.894816 388.371634,253.747499 C428.18334,237.026524 559.58641,234.331967 618.689963,253.747499 C629.401457,257.266227 633.731063,257.758532 636.907413,257.777403 L637.206602,257.77785 C637.305282,257.777577 637.402966,257.776908 637.499823,257.775925 L637.788076,257.772117 C637.835761,257.771353 637.88328,257.770531 637.930655,257.76966 L638.353701,257.760814 C638.447097,257.758684 638.540167,257.756485 638.633078,257.754299 L638.911505,257.747861 C639.236171,257.740586 639.560944,257.734471 639.892996,257.733017 L640.179562,257.732994 C640.227676,257.733207 640.27598,257.733536 640.324496,257.733991 L640.618292,257.738312 C641.16218,257.749298 641.736694,257.777973 642.369667,257.837924 C652.429361,258.790718 653.854481,259.349918 659.464641,257.837924 C660.604243,257.53079 666.477181,256.549967 672.694705,255.625797 L673.629369,255.487688 C673.785395,255.464771 673.941498,255.441912 674.097611,255.419123 L675.033857,255.283315 L675.876227,255.162647 C681.33829,254.385048 686.489102,253.747499 688.339097,253.747499 C706.562456,253.747499 728.919266,228.421512 840.129506,245.905308 Z M724.560638,252.304064 C721.751109,252.767727 718.728407,253.256578 714.810448,253.893924 C713.686635,254.076737 711.513474,254.615548 709.328515,255.166235 L708.673711,255.331454 C706.06138,255.990999 703.581469,256.618092 703.026868,256.618092 C700.370209,256.618092 693.802392,260.16901 691.046385,261.183048 C674.571583,267.244742 673.345481,285.434244 673.345481,285.434244 L673.34466,285.526327 C673.344594,285.538547 673.344534,285.551971 673.344487,285.566593 L673.344517,285.730343 C673.349696,287.33954 673.505264,295.393295 675.934079,307.079156 C677.82233,316.164182 681.764113,328.522722 685.269917,337.300492 C692.767145,351.408768 698.686128,362.059575 703.026868,369.252912 C705.669262,373.631806 706.887663,374.323843 708.14659,374.92758 L708.331283,375.015719 C708.701926,375.192408 709.082162,375.376569 709.508707,375.658428 C710.083617,376.038325 714.499316,380.126399 716.244848,380.882904 C716.499814,380.993405 717.646212,381.764165 718.818546,382.589194 L719.286811,382.920664 C720.450675,383.749391 721.525076,384.551588 721.644519,384.721265 C721.958839,385.167779 721.774691,385.272023 721.593773,385.285717 L721.540097,385.287361 C721.531334,385.287266 721.522705,385.287007 721.514272,385.286617 L721.46653,385.282943 L721.478886,385.286164 C721.733289,385.346226 722.537952,385.570849 724.560638,386.295077 C725.240311,386.538435 724.997996,386.437404 724.69481,386.275724 L724.61126,386.230338 L724.536902,386.188099 C724.086272,385.925232 723.83535,385.635696 726.744936,386.295077 C737.553323,388.744512 746.514319,392.822108 755.833695,394.202361 C774.683398,396.99411 796.899514,397.672688 815.94981,391.883692 C820.945807,390.365511 826.83404,386.698581 833.614509,380.882904 C853.492731,349.755854 853.492731,330.292998 856.633725,319.489302 C857.795304,315.49396 857.015414,309.966729 858.572696,305.511897 C859.536575,302.754579 859.972624,298.587247 860.07224,295.827658 C860.285261,289.926541 859.026837,285.622993 858.572696,281.26908 C858.15407,277.255663 856.223425,273.693368 852.780758,270.582195 C847.376172,265.186082 842.831949,261.512412 835.212242,259.141329 C809.445861,251.123403 788.901582,249.885036 772.315578,249.386559 C751.616534,248.764468 736.95729,250.258218 724.560638,252.304064 Z M464.560638,249.304064 C461.751109,249.767727 458.728407,250.256578 454.810448,250.893924 C453.686635,251.076737 451.513474,251.615548 449.328515,252.166235 L448.673711,252.331454 C446.06138,252.990999 443.581469,253.618092 443.026868,253.618092 C418.572662,253.618092 416.434562,278.366617 416.434562,278.366617 C416.434562,278.366617 414.950347,316.611651 423.514031,338.053254 C427.7036,353.930033 431.968754,365.465091 436.309494,372.658428 C439.85417,378.532554 437.315603,376.591051 439.270602,377.882904 C439.845513,378.262801 440.211816,380.827485 441.957347,381.58399 C442.501274,381.819725 442.772056,382.562661 443.026868,382.924637 C443.161576,383.116001 443.2775,383.313478 443.393338,383.517177 L443.493044,383.693301 L443.595325,383.872487 C444.256785,385.017058 445.230669,386.346732 449.508707,387.878493 C450.219274,388.132913 449.872531,388.158013 449.491109,388.163328 L449.391493,388.164404 L449.30433,388.165282 C448.793037,388.171563 448.544183,388.206751 451.366617,388.846382 C507.866904,401.650679 548.925271,396.748451 574.541719,374.139698 C600.353509,333.721349 600.689225,315.745859 608.063181,298.600823 C612.979151,287.170798 609.890964,276.152565 598.798618,265.546123 C593.394031,260.15001 585.69549,255.989176 578.075782,253.618092 C554.979305,246.430981 533.52546,245.265839 517.400469,244.81808 C493.086488,244.142928 477.986581,247.088351 464.560638,249.304064 Z" id="Combined-Shape" fill="#15DB93"></path>
        </g>
    </g>
</svg>