<svg xmlns="http://www.w3.org/2000/svg" width="23" height="26" fill="none" xmlns:v="https://vecta.io/nano"><g fill="#ffc610"><path d="M11 26V0H0l1.913 22.431L11 26z"/><path d="M11 26V0h12l-2.087 22.431L11 26z"/></g><path d="M21 2H11v22l8-3.043L21 2z" fill="#ffd242"/><g fill="#fff"><path fill-rule="evenodd" d="M11.567 4.037c-.025.031-.032 1.407-.026 5.209l.008 5.167.15-.004a4.53 4.53 0 0 0 .511-.072l.601-.111.391-.071.361-.065.421-.08.496-.092.796-.142.671-.127c.088-.018.167-.027.175-.018s-.001.32-.02.694l-.05 1.098c-.008.231-.028.435-.043.455s-.065.042-.109.051a3.68 3.68 0 0 0-.262.069l-.346.095-.27.071-.466.129-.796.221-.616.171-.321.093c-.077.024-.161.044-.187.044s-.104.019-.175.042l-.324.095-.361.101c-.091.026-.182.062-.203.079-.029.024-.038.347-.038 1.424l.057 1.424c.04.022.096.019.188-.011l.326-.096.346-.094.345-.092.341-.096c.08-.024.173-.044.205-.044s.085-.014.116-.032.115-.045.186-.06l.368-.096.345-.093.451-.119.631-.171.706-.192.586-.159.346-.089.345-.094.3-.088c.088-.025.147-.064.17-.111.019-.04.044-.234.054-.433l.063-.826.074-.916.058-.76.014-.332c-.007-.012.001-.118.018-.234a11.1 11.1 0 0 0 .06-.662l.061-.854.078-1.009.091-1.141.024-.571c-.015-.025-.105-.03-.295-.017l-.484.053-.826.112-.886.106-.466.059-.631.08-.703.095c-.147.025-.276.035-.285.021s-.011-.947-.003-2.074l.015-2.049h2.399l2.44-.058c.023-.032.049-.13.058-.217l.046-.563.081-.994.053-.823L19 4.01l-3.7-.008c-3.089-.007-3.705-.001-3.733.034zm-4.076.028c-.008.022-.018 2.82-.022 6.219l-.007 6.18-.075-.003a21.14 21.14 0 0 1-1.112-.305l-1.367-.396-.421-.119-.749-.215-.699-.175c-.032.013-.04.282-.04 1.395l.038 1.41c.021.017.071.038.113.047s.488.136.992.281l2.118.61 1.863.534 1.078.311c.229.067.446.117.481.112l.064-.009v-7.95-7.95l-1.12-.008c-.88-.006-1.123 0-1.134.031z"/><path d="M6 6.402v-.87H4.513V4H3.487v1.532H2v.87h1.487V8h1.027V6.402H6z"/></g></svg>