<svg xmlns="http://www.w3.org/2000/svg" width="23" height="26" fill="none" xmlns:v="https://vecta.io/nano"><g fill="#4548b8"><path d="M11 26V0H0L1.9 22.4L11 26Z"/><path d="M11 26V0H23L20.9 22.4L11 26Z"/></g><path d="M21 2H11v22l8-3 2-19z" fill="#696ce9"/><g fill="#fff"><path fill-rule="evenodd" d="M9.583 4.336l-.185.34c-.01 0-.066-.015-.124-.034-.334-.104-.73-.113-1.055-.025-.716.195-1.239.737-1.412 1.462-.025.105-.029.16-.029.408 0 .266.003.297.036.429a1.99 1.99 0 0 0 .534.954c.099.099.287.253.295.241a21.44 21.44 0 0 0 .074-.151c.116-.238.267-.486.412-.675l.058-.076-.091-.09c-.1-.1-.163-.198-.215-.334a.6.6 0 0 1-.035-.27c-.001-.2.011-.252.097-.42a.94.94 0 0 1 .372-.363.83.83 0 0 1 .443-.093.93.93 0 0 1 .151.016c.02.008 0 .055-.144.341l-.162.332c.003 0 .094-.031.204-.068l.486-.165 1.051-.358c.002-.002-.013-.047-.032-.102l-.521-1.531L9.755 4c-.002-.002-.08.149-.172.336zm1.747 1.588a3.88 3.88 0 0 0-3.675 3.374c-.029.221-.032.69-.007.892.039.312.112.625.205.883.015.042.026.079.023.081s-.508.219-.666.285l-.046.019.38.151 1.336.515a4.17 4.17 0 0 0 .098-.24l.412-1.049.142-.402-.343.149-.33.137c-.021-.021-.098-.305-.135-.496-.033-.173-.04-.6-.012-.795a2.7 2.7 0 0 1 .277-.895c.267-.532.715-.972 1.267-1.245a2.8 2.8 0 0 1 2.499.014 2.82 2.82 0 0 1 1.473 1.896c.089.39.077.936-.027 1.308a3.05 3.05 0 0 1-.372.82c-.443.658-1.076 1.071-1.882 1.225l-.15.029-3.399.004L5 12.588l.252.252.252.252-.248.264-.248.264 3.321.004 3.909-.07a3.7 3.7 0 0 0 .962-.326c.837-.408 1.494-1.101 1.864-1.965.41-.96.399-2.094-.031-3.052-.096-.215-.18-.365-.318-.57-.162-.241-.269-.371-.479-.581-.572-.573-1.294-.947-2.091-1.082-.271-.046-.585-.067-.815-.053zm4.495 6.274v.389h-.542-.542l-.183.17c-.405.376-.704.595-1.09.798l-.134.07h1.245 1.245l.004.387.004.387.287-.317.355-.39.526-.586a99.24 99.24 0 0 0-1.15-1.272c-.025-.026-.026-.021-.026.363z"/><path d="M8.377 16.5h-.33l.502-1.454h.396l.501 1.454h-.33l-.364-1.122h-.011L8.377 16.5zm-.021-.572h.778v.24h-.778v-.24zm2.162-.413c-.01-.034-.024-.065-.042-.092a.26.26 0 0 0-.066-.068c-.026-.019-.055-.033-.088-.043s-.069-.015-.109-.015a.35.35 0 0 0-.196.055.37.37 0 0 0-.131.161.63.63 0 0 0-.047.257.65.65 0 0 0 .046.259.36.36 0 0 0 .131.163c.056.037.123.055.2.055.07 0 .129-.012.178-.037s.088-.06.114-.106a.32.32 0 0 0 .04-.161l.063.009h-.375v-.231h.609v.183a.64.64 0 0 1-.081.33.55.55 0 0 1-.223.212c-.095.049-.203.074-.325.074a.7.7 0 0 1-.359-.09c-.103-.061-.184-.147-.241-.258s-.086-.244-.086-.398c0-.118.017-.223.051-.315a.68.68 0 0 1 .145-.236.62.62 0 0 1 .217-.147.7.7 0 0 1 .268-.05.71.71 0 0 1 .23.036c.071.024.134.057.189.101a.55.55 0 0 1 .136.156.53.53 0 0 1 .067.197h-.312zm.865-.47V16.5h-.308v-1.454h.308zm.253 1.454v-1.454h.307v1.201h.624v.254h-.931zm1.135 0v-1.454h.98v.253h-.673v.347h.622v.254h-.622v.347h.675v.254h-.983zM8.91 19.555h-.311a.3.3 0 0 0-.035-.107c-.018-.031-.04-.059-.067-.081a.3.3 0 0 0-.095-.051.36.36 0 0 0-.116-.018.35.35 0 0 0-.197.056.36.36 0 0 0-.13.162.64.64 0 0 0-.046.257c0 .101.015.191.046.261s.075.124.131.16a.35.35 0 0 0 .194.054c.041 0 .079-.006.114-.016a.3.3 0 0 0 .094-.048.28.28 0 0 0 .068-.077.3.3 0 0 0 .038-.104l.311.002c-.008.067-.028.131-.06.193a.58.58 0 0 1-.129.166.59.59 0 0 1-.192.115c-.075.028-.157.042-.251.042a.68.68 0 0 1-.348-.088c-.102-.059-.182-.144-.241-.255s-.088-.246-.088-.404.03-.294.089-.405a.62.62 0 0 1 .243-.254.68.68 0 0 1 .345-.088c.084 0 .162.012.234.035s.137.058.192.104a.55.55 0 0 1 .136.166.63.63 0 0 1 .068.224zm.135-.509h.344l.332.626h.014l.332-.626h.345l-.531.94v.514h-.305v-.514l-.531-.94zm2.73.509h-.311a.3.3 0 0 0-.035-.107c-.018-.031-.04-.059-.067-.081a.3.3 0 0 0-.095-.051.36.36 0 0 0-.116-.018.35.35 0 0 0-.197.056.36.36 0 0 0-.13.162.64.64 0 0 0-.046.257c0 .101.015.191.046.261s.075.124.131.16a.35.35 0 0 0 .194.054c.041 0 .079-.006.114-.016a.28.28 0 0 0 .162-.125.3.3 0 0 0 .038-.104l.311.002a.56.56 0 0 1-.06.193.58.58 0 0 1-.129.166.59.59 0 0 1-.192.115c-.075.028-.157.042-.251.042a.68.68 0 0 1-.348-.088c-.102-.059-.182-.144-.241-.255s-.088-.246-.088-.404.03-.294.089-.405a.62.62 0 0 1 .243-.254.68.68 0 0 1 .345-.088c.084 0 .162.012.234.035s.137.058.192.104a.55.55 0 0 1 .136.166.63.63 0 0 1 .068.224zm.221.945v-1.454h.308v1.201h.624v.254h-.931zm1.135 0v-1.454h.98v.253h-.672v.347h.622v.253h-.622v.347h.675v.254h-.983zm-8.989-2h-.516v-1.454h.52a.77.77 0 0 1 .378.087.59.59 0 0 1 .244.249c.057.108.086.238.086.389a.83.83 0 0 1-.086.391.59.59 0 0 1-.245.251.78.78 0 0 1-.381.087zm-.208-.264h.195c.091 0 .167-.016.229-.048a.31.31 0 0 0 .141-.151c.032-.069.048-.157.048-.266s-.016-.195-.048-.264-.078-.118-.14-.151-.138-.048-.229-.048h-.196v.928zm1.148.264v-1.454h.98v.253h-.673v.347h.622v.253h-.622v.347h.675v.254h-.983zm1.487-1.454l.352 1.105h.014l.352-1.105h.341L7.126 18.5H6.73l-.502-1.454h.342zM7.802 18.5v-1.454h.98v.253H8.11v.347h.622v.253H8.11v.347h.675v.254h-.983zm1.225 0v-1.454h.308v1.201h.624v.254h-.931zm2.415-.727c0 .159-.03.294-.09.405a.63.63 0 0 1-.244.255.69.69 0 0 1-.347.087.69.69 0 0 1-.348-.088.63.63 0 0 1-.244-.255.84.84 0 0 1-.09-.404c0-.158.03-.294.09-.405a.62.62 0 0 1 .244-.254.69.69 0 0 1 .348-.088c.128 0 .244.029.347.088a.62.62 0 0 1 .244.254c.06.111.09.246.09.405zm-.312 0a.65.65 0 0 0-.046-.26.35.35 0 0 0-.129-.16.34.34 0 0 0-.195-.055c-.075 0-.139.018-.195.055s-.098.09-.129.16a.66.66 0 0 0-.045.26.66.66 0 0 0 .045.26c.031.071.074.124.129.161a.34.34 0 0 0 .195.055c.075 0 .139-.018.195-.055s.098-.09.129-.161a.65.65 0 0 0 .046-.26zm.54.727v-1.454h.574c.11 0 .204.021.282.063s.137.1.178.174a.52.52 0 0 1 .062.256.51.51 0 0 1-.062.256.43.43 0 0 1-.181.173.61.61 0 0 1-.286.062h-.366v-.246h.316a.31.31 0 0 0 .146-.031c.039-.021.068-.05.087-.086a.27.27 0 0 0 .029-.127c0-.048-.01-.09-.029-.127s-.048-.065-.087-.084-.088-.03-.148-.03h-.207V18.5h-.308zm1.295-1.454h.379l.4.977h.017l.401-.977h.379V18.5h-.298v-.947h-.012l-.376.94h-.203l-.376-.943h-.012v.95h-.298v-1.454zm1.83 1.454v-1.454h.98v.253h-.673v.347h.622v.253h-.622v.347h.675v.254h-.983zm2.441-1.454V18.5h-.266l-.633-.916h-.011v.916h-.308v-1.454h.27l.628.915h.013v-.915h.306zm.199.253v-.253h1.195v.253h-.445V18.5h-.304v-1.201h-.445z"/></g></svg>