<svg xmlns="http://www.w3.org/2000/svg" width="23" height="26" fill="none" xmlns:v="https://vecta.io/nano"><g fill="#4cc490"><path d="M11 26V0H0l1.913 22.431L11 26z"/><path d="M11 26V0h12l-2.087 22.431L11 26z"/></g><path d="M21 2H11v22l8-3.043L21 2z" fill="#67cea0"/><path fill-rule="evenodd" d="M9.188 4.032c-.042.017-.107.031-.145.032s-.075.012-.083.024-.036.022-.065.022-.079.014-.113.031l-.224.115a3.13 3.13 0 0 0-.34.214c-.097.072-.243.203-.323.292a3.62 3.62 0 0 0-.238.295 2.33 2.33 0 0 0-.152.256l-.089.186c-.017.035-.03.08-.03.101s-.008.048-.019.059-.031.066-.045.121l-.045.201-.041.245c-.016.098-.023 1.196-.024 3.371v3.226h-.071c-.039 0-.086-.013-.106-.028a6.26 6.26 0 0 1-.187-.167l-.214-.188-.25-.217-.3-.268c-.062-.055-.137-.11-.166-.122-.045-.018-.062-.011-.111.045l-.433.47-.375.423c0 .011.681.719 1.514 1.574l1.55 1.567c.024.008.076-.028.153-.106l.941-.954 1.426-1.446.6-.646c-.001-.02-.095-.121-.21-.225l-.363-.334-.282-.256a.85.85 0 0 0-.159-.119c-.018-.004-.235.202-.512.486l-.519.516c-.021.012-.065.019-.098.015l-.059-.007-.007-3.076.018-3.272c.014-.108.041-.245.062-.303s.074-.173.12-.254.143-.208.216-.282l.176-.165c.024-.017.097-.061.163-.097a1.94 1.94 0 0 1 .239-.109c.109-.039.189-.042.966-.042h.846l.163.065a1.86 1.86 0 0 1 .271.136c.06.039.159.118.222.176s.157.173.212.257a.97.97 0 0 1 .098.175c0 .013.014.051.03.086s.042.098.056.141.03.264.036.523c.007.309.018.45.036.462s.47.015 1.013.012l.987-.005-.001-.602-.037-.735-.057-.22a.33.33 0 0 0-.045-.11.09.09 0 0 1-.023-.054.86.86 0 0 0-.063-.168 2.4 2.4 0 0 0-.171-.294c-.059-.086-.174-.229-.255-.319a2.71 2.71 0 0 0-.337-.303 2.9 2.9 0 0 0-.339-.214l-.206-.104a.29.29 0 0 0-.113-.03c-.03 0-.061-.01-.068-.022s-.043-.022-.078-.022-.1-.015-.143-.033c-.067-.029-.326-.033-1.893-.032l-1.891.032zm3.981 4.767l-1.561 1.583-.825.839.1.095.496.462.429.387c.025.015.153-.104.546-.507.4-.411.525-.526.568-.526.03 0 .064.01.076.021s.016 1.227.009 3.26l-.057 3.361a2.24 2.24 0 0 1-.105.234c-.033.061-.085.146-.116.189s-.104.123-.163.178l-.174.152c-.037.028-.112.072-.165.096l-.135.065c-.021.012-.07.022-.11.022s-.084.013-.099.028c-.02.021-.202.03-.716.035-.458.005-.729-.001-.807-.018l-.211-.043a1.25 1.25 0 0 1-.256-.103c-.095-.05-.227-.146-.314-.229s-.188-.208-.24-.298a2.34 2.34 0 0 1-.144-.304c-.05-.137-.055-.188-.065-.595-.007-.297-.018-.451-.035-.462s-.471-.017-1.017-.017h-.992l-.014.057c-.008.032-.009.305-.002.607.011.532.014.557.078.777a3.9 3.9 0 0 0 .152.417 2.95 2.95 0 0 0 .201.361 3.06 3.06 0 0 0 .282.343c.092.095.248.228.348.296l.314.192c.073.038.21.095.304.126a2.84 2.84 0 0 0 .366.088c.156.025.519.032 1.801.032l1.801-.032.282-.056.152-.049a3.99 3.99 0 0 0 .223-.099 2.88 2.88 0 0 0 .315-.181c.086-.058.224-.171.307-.251a3.52 3.52 0 0 0 .278-.309 2.56 2.56 0 0 0 .244-.412l.153-.371.061-.189c.018-.049.028-.99.036-3.466l.029-3.427c.01-.015.034-.028.054-.028s.087.043.149.095l.369.32.489.429.251.203a1.08 1.08 0 0 0 .169-.162l.438-.469.288-.326c0-.01-.687-.726-1.526-1.592l-1.547-1.574c-.012 0-.353.335-.758.744z" fill="#fff"/></svg>