<svg xmlns="http://www.w3.org/2000/svg" width="23" height="26" fill="none" xmlns:v="https://vecta.io/nano"><g fill="#5349e5"><path d="M11 26V0H0l1.913 22.431L11 26z"/><path d="M11 26V0h12l-2.087 22.431L11 26z"/></g><path d="M21 2H11v22l8-3.043L21 2z" fill="#776ef5"/><circle cx="11" cy="12" r="7" fill="#4841a0"/><path d="M10.551 14l-1.69-5H7.69L6 14h1.059l.276-.847h1.881l.276.847h1.059zm-1.592-1.784H7.591l.684-2.151.684 2.151zM11.89 14v-1.784h1.118c.947 0 1.473-.735 1.473-1.604 0-.877-.52-1.612-1.473-1.612h-2.052v5h.934zm.986-2.721h-.986V9.937h.986c.368 0 .651.255.651.675 0 .412-.283.667-.651.667zM16 14V9h-.934v5H16z" fill="#fff"/></svg>