<svg xmlns="http://www.w3.org/2000/svg" width="23" height="26" fill="none" xmlns:v="https://vecta.io/nano"><g fill="#43517b"><path d="M11 26V0H0l1.913 22.431L11 26z"/><path d="M11 26V0h12l-2.087 22.431L11 26z"/></g><path d="M21 2H11v22l8-3.043L21 2z" fill="#456788"/><g fill="#fff"><path d="M18.019 11.067c-1.342 3.333-2.503 4.455-2.916 4.6C16.622 15.507 19.001 10.489 20 8h-.853l-1.128 3.067zm-4.676-.4c-.33-2.053-1.366-2.433-1.843-2.367 1.254.773 1.751 3.322 1.843 4.5.022.693.211 1.311.303 1.533l.275-.233-.578-3.433z"/><path d="M15.626 12.233c-1.298 2.133-2.705 3.2-3.246 3.467h2.118c1.695-.107 3.659-5.156 4.429-7.667h-1.458c-.132 1.147-1.284 3.278-1.843 4.2zm-4.098-3.766c-.462-.32-1.366.422-1.761.833.264.4.532 2.233.633 3.1.308 1.707.935 2.622 1.21 2.867.66.533 1.577-.356 1.953-.867-.22-.267-.348-1.111-.385-1.5-.198-2.8-1.183-4.122-1.651-4.433z"/><path d="M9.657 9.433l-.358.333c.264.533.458 2.022.523 2.7.33 3.067 1.733 3.367 2.393 3.133-1.452.16-2.036-2.711-2.146-4.167a8.34 8.34 0 0 0-.413-2z"/><path d="M7.236 11.3c1.386-2.347 2.888-3.089 3.466-3.167H9.189c-1.849 0-3.154 2.111-3.576 3.167l-1.898 4.567h1.403c.286-1.253 1.531-3.567 2.118-4.567z"/><path d="M4.761 12.967l-1.21 2.9H3l1.953-4.433c1.254-2.827 2.925-3.378 3.604-3.3-1.364.027-2.622 2.078-3.081 3.1l-.715 1.733zm6.326-4.8c-2.443.187-4.887 5.211-5.804 7.7.814.187 1.825-2.211 2.228-3.433.968-2.613 2.787-3.933 3.576-4.267zM15.379 9.8c.418-1.36 1.476-1.744 1.953-1.767-.132 1.413-2.109 4.522-3.081 5.9L15.379 9.8z"/></g></svg>