<svg xmlns="http://www.w3.org/2000/svg" width="23" height="26" fill="none" xmlns:v="https://vecta.io/nano"><g fill="#e58e02"><path d="M11 26V0H0l1.913 22.431L11 26z"/><path d="M11 26V0h12l-2.087 22.431L11 26z"/></g><path d="M21 2H11v22l8-3.043L21 2z" fill="#e89e25"/><g fill-rule="evenodd" fill="#fff"><path d="M12.353 4.062l-.142.125c-.029.027-.071.063-.094.079s-.07.057-.107.092l-.164.145-.107.093c-.005.005-.053.047-.107.092l-.12.105c-.012.012-.06.054-.107.092l-.093.08c-.005.005-.053.047-.106.092l-.12.105c-.012.012-.06.054-.107.092l-.093.08a3.75 3.75 0 0 1-.106.092l-.137.123a1.31 1.31 0 0 1-.106.092 1.33 1.33 0 0 0-.107.092 1.33 1.33 0 0 1-.106.092l-.105.089-.11.098-.125.111-.217.188-.215.192c-.027.029-.05.065-.05.078s-.008.025-.018.025-.018.008-.018.018-.025.062-.056.115l-.109.199-.064.111a.93.93 0 0 0-.062.111l-.072.129c-.011.015-.032.053-.046.083a.98.98 0 0 1-.055.102l-.066.113-.06.111c-.013.024-.028.048-.033.053a.79.79 0 0 0-.047.083l-.077.148-.052.092a1.96 1.96 0 0 0-.066.12l-.093.175-.054.092a1.01 1.01 0 0 0-.05.085l-.06.111c-.013.024-.028.048-.033.053s-.026.042-.047.083l-.073.138-.091.162c-.031.054-.056.106-.056.115s-.007.018-.016.018-.02.015-.026.032-.032.07-.058.115l-.081.143-.072.129-.091.171-.074.129a1.26 1.26 0 0 0-.073.129.52.52 0 0 1-.065.108c-.007.003-.013.014-.013.023s-.041.089-.091.178l-.12.208c-.016.025-.052.092-.08.148l-.082.148c-.017.025-.048.081-.069.125L7 11.095l.333.003 1.114.005.803-.005c.012-.004.045-.058.074-.12l.092-.206.099-.221a.87.87 0 0 0 .06-.152c0-.013.008-.023.018-.023s.018-.017.018-.037.008-.037.018-.037.018-.013.018-.029a.56.56 0 0 1 .053-.134l.105-.225.105-.24.126-.275a1.11 1.11 0 0 0 .073-.18c0-.014.008-.025.018-.025s.018-.01.018-.023.027-.081.061-.152l.117-.259.119-.268.114-.249c.028-.061.051-.121.051-.134s.008-.023.018-.023.018-.009.018-.02.033-.092.073-.18l.105-.234.107-.24.126-.277a.69.69 0 0 0 .051-.134c0-.013.008-.023.018-.023s.018-.011.018-.024.044-.117.098-.231l.098-.214c0-.004.044-.106.098-.226l.133-.29a.35.35 0 0 0 .035-.097c0-.014.008-.026.018-.026s.018-.011.018-.025a.8.8 0 0 1 .061-.152l.131-.284.11-.249.1-.222c.033-.071.06-.14.06-.152s.008-.023.018-.023.018-.017.018-.037.008-.037.018-.037.018-.012.018-.026.032-.093.071-.174l.071-.158c0-.005.032-.078.071-.161s.069-.159.066-.167-.045.019-.094.061zm.463.575l-.055.152c-.013.03-.041.109-.062.175l-.09.258c-.028.076-.051.153-.051.171s-.006.033-.013.033-.024.035-.036.078l-.059.18-.052.138c-.008.02-.027.074-.042.12l-.064.185-.071.203-.071.203-.064.185c-.014.046-.034.098-.043.115s-.017.045-.017.06-.007.043-.016.06l-.034.078-.039.111-.035.102-.036.102-.035.102-.05.138-.093.268-.065.213c-.006.036.012.073.077.157l.095.119c.006.005.046.055.089.111l.107.129c.015.015.05.059.077.097a1.36 1.36 0 0 0 .089.111c.021.023.068.079.103.124l.104.129.086.11.094.12.175.213.174.213.109.138.113.138c.028.03.083.099.122.152a.48.48 0 0 0 .083.097c.006 0 .025.023.041.051a.86.86 0 0 0 .088.116l.139.166.098.121a3.3 3.3 0 0 1 .08.1l.08.1c.01.011.056.069.102.128a.71.71 0 0 1 .084.123c0 .008-.018.021-.04.028s-.084.021-.138.03l-.186.027a.57.57 0 0 0-.124.027c-.02.009-.072.02-.115.025s-.172.026-.284.048l-.293.058-.151.027-.151.026-.257.046-.25.048-.195.037-.22.038-.213.035-.186.035-.186.038-.186.029c-.044.006-.096.018-.115.027a.53.53 0 0 1-.124.025c-.049.005-.173.026-.275.046l-.293.059-.204.035-.222.037-.132.03c-.004.004 1.687.007 3.758.007L17 11.968c-.006-.018-.017-.037-.023-.042s-.025-.038-.041-.074l-.079-.157-.101-.185-.062-.101a.37.37 0 0 1-.036-.065c-.014-.03-.039-.076-.056-.101l-.067-.115-.075-.138-.051-.088a1.96 1.96 0 0 1-.067-.12l-.09-.168-.06-.111c-.013-.024-.028-.048-.033-.053s-.017-.026-.028-.046l-.062-.12-.053-.092a1.35 1.35 0 0 1-.074-.129l-.127-.237c-.035-.064-.064-.125-.064-.134s-.006-.017-.014-.017-.034-.041-.058-.092-.049-.092-.057-.092-.013-.008-.013-.018a1.26 1.26 0 0 0-.089-.175l-.178-.314-.089-.164c0-.004-.032-.062-.071-.129s-.071-.13-.071-.14-.006-.019-.013-.019-.033-.042-.057-.092-.05-.092-.058-.092-.014-.008-.014-.018-.04-.09-.089-.178l-.089-.166a3.17 3.17 0 0 0-.089-.156l-.089-.156c0-.003-.032-.061-.071-.128s-.071-.13-.071-.14-.008-.019-.018-.019-.018-.007-.018-.015a.68.68 0 0 0-.054-.115l-.071-.128-.083-.148-.098-.175a.61.61 0 0 1-.042-.088c-.006-.018-.018-.032-.026-.032s-.016-.008-.016-.017a2.59 2.59 0 0 0-.127-.245l-.18-.329-.064-.111a.57.57 0 0 1-.047-.083l-.062-.12a.44.44 0 0 0-.034-.055c-.005-.005-.02-.029-.033-.053l-.055-.102-.087-.155-.056-.104c0-.004-.032-.061-.071-.128s-.071-.13-.071-.14-.007-.019-.016-.019-.02-.015-.026-.032-.031-.07-.057-.115l-.081-.132c-.018-.027-.033-.054-.033-.06s-.018-.04-.04-.075-.044-.064-.05-.064-.024.043-.042.097z"/><path d="M9.42 14.027l-.181.031c-.019.003-.038.01-.041.015s-.016.009-.028.009a.88.88 0 0 0-.127.033l-.154.053-.184.084-.139.072c-.019.009-.057.029-.097.053l-.078.05c-.003.003-.022.018-.043.031a.56.56 0 0 0-.053.039.35.35 0 0 1-.043.032c-.015.01-.05.036-.077.059l-.146.136-.146.152-.055.063a.48.48 0 0 0-.032.042l-.032.042c-.003.003-.022.027-.041.054s-.035.054-.035.06c-.017.011-.022.016-.022.022a.4.4 0 0 1-.041.076l-.064.112-.057.118a.52.52 0 0 0-.033.081c0 .006-.004.019-.01.029l-.021.044-.019.047-.024.078-.032.12-.027.115-.022.12a2.75 2.75 0 0 0-.016.246l-.005.178-.029.012-.072.026c-.024.008-.092.037-.151.066l-.119.061a1.83 1.83 0 0 1-.077.053l-.124.091-.118.105-.115.12-.081.099-.043.054c-.009.01-.041.057-.07.105l-.111.198-.057.123c0 .006-.004.019-.01.029s-.014.03-.02.044-.021.059-.033.099l-.029.105-.022.13c-.008.054-.015.169-.015.256s.007.198.015.247l.028.136.018.071c.003.013.01.026.015.029s.01.013.01.021.01.038.023.065l.035.076a1.86 1.86 0 0 0 .069.117l.108.157a2.08 2.08 0 0 0 .16.171l.157.141.054.042a1.38 1.38 0 0 0 .088.06l.124.077.145.073c.057.027.11.05.12.05s.021.005.027.01a1.1 1.1 0 0 0 .14.051l.189.053.13.022.168.022c.064.007 1.161.011 3.17.011l3.17-.011.174-.022.168-.032.125-.032.054-.019.124-.047.168-.073.13-.069.07-.041c.003-.004.022-.018.043-.032l.049-.033.093-.07a2.07 2.07 0 0 0 .336-.341l.09-.13.066-.12c.02-.04.051-.116.069-.167s.037-.125.043-.162l.023-.143a1.3 1.3 0 0 0 .011-.157 1.43 1.43 0 0 0-.012-.165l-.028-.171a1.61 1.61 0 0 0-.043-.167l-.036-.101c-.005-.012-.039-.08-.077-.152a2.37 2.37 0 0 0-.134-.225l-.078-.106c-.006-.006-.028-.032-.049-.056a2.92 2.92 0 0 0-.14-.145l-.152-.137-.054-.043a2.23 2.23 0 0 0-.121-.081l-.126-.075c-.016-.014-.05-.033-.09-.051a.5.5 0 0 0-.084-.033c-.012-.016-.019-.021-.028-.021s-.037-.009-.062-.019-.08-.029-.122-.041l-.13-.032-.114-.022-.092-.014c-.032-.003-.032-.003-.04-.081a1.32 1.32 0 0 0-.02-.131l-.021-.089c-.005-.02-.02-.062-.032-.094s-.046-.101-.073-.154-.054-.097-.059-.097c-.01-.021-.018-.037-.029-.048s-.036-.041-.057-.067-.056-.065-.079-.086-.064-.057-.092-.078l-.072-.058c-.012-.01-.027-.018-.035-.018a.5.5 0 0 0-.087-.052l-.079-.042c-.003-.003-.03-.014-.059-.025l-.124-.04c-.039-.011-.112-.027-.162-.035s-.143-.015-.206-.015a1.38 1.38 0 0 0-.195.014l-.132.026c-.028.006-.072.019-.097.028l-.073.028-.065.029-.076.04-.063.034c-.022.011-.028.01-.046-.013-.011-.014-.021-.031-.021-.038s-.01-.029-.022-.05l-.043-.074-.044-.074a2.52 2.52 0 0 0-.078-.118l-.062-.085c-.003-.003-.019-.022-.035-.042l-.054-.065-.085-.094c-.033-.036-.093-.094-.133-.129l-.098-.084c-.013-.011-.045-.037-.072-.057s-.05-.04-.052-.044-.011-.008-.019-.008c-.015-.016-.023-.021-.032-.021-.016-.012-.041-.03-.071-.047l-.068-.042c-.007-.006-.023-.016-.034-.022l-.129-.064-.157-.074c-.027-.012-.107-.041-.179-.064l-.154-.042c-.013 0-.027-.005-.03-.011s-.021-.01-.038-.01-.034-.004-.037-.009-.029-.012-.057-.015l-.154-.022c-.075-.012-.176-.016-.368-.015-.232.001-.284.004-.411.027zm3.654 2.623l.134.027a.95.95 0 0 1 .097.038c.034.015.088.054.125.09a.53.53 0 0 1 .088.11l.035.078c.006.017.017.062.023.099s.011.1.011.139v.071h-.195-.195v-.059a.38.38 0 0 0-.012-.097c-.007-.021-.023-.058-.035-.084s-.041-.059-.07-.078-.065-.036-.087-.04l-.092-.014a.29.29 0 0 0-.097.006c-.025.007-.066.023-.092.035s-.059.037-.074.056-.036.059-.048.089c-.014.038-.021.082-.021.141 0 .047.005.089.011.092s.011.018.011.032.005.026.011.026c.011.021.027.044.046.064s.058.052.086.07.053.033.057.033.029.01.058.022l.078.033.049.019.059.021.059.021.06.021.059.021.083.036c.034.015.091.048.126.073s.078.064.095.086l.038.045a.27.27 0 0 1 .028.047.58.58 0 0 1 .033.084l.024.085a.72.72 0 0 1 .012.14.75.75 0 0 1-.01.135l-.023.095a.72.72 0 0 1-.047.125.51.51 0 0 1-.104.137.54.54 0 0 1-.106.084c-.019.008-.035.018-.035.023s-.009.008-.019.008-.024.004-.03.009-.035.017-.064.025-.098.024-.151.034a.93.93 0 0 1-.233.012c-.082-.003-.165-.014-.211-.026a1.04 1.04 0 0 1-.126-.042.67.67 0 0 1-.103-.061l-.064-.05a1.02 1.02 0 0 1-.043-.053.78.78 0 0 1-.056-.084.76.76 0 0 1-.041-.094 1.08 1.08 0 0 1-.033-.146 1.23 1.23 0 0 1-.015-.143c0-.038.005-.052.021-.06s.092-.011.182-.011c.112 0 .166.004.178.013s.018.039.022.112c.003.055.011.113.019.131l.028.064c.008.018.028.047.044.063s.049.04.073.052.061.027.082.033.078.012.127.012.091-.005.095-.011.016-.01.028-.01.032-.006.045-.013l.038-.023c.008-.006.026-.021.041-.034s.04-.046.056-.073c.029-.047.03-.056.03-.175 0-.111-.003-.131-.026-.172-.014-.026-.045-.066-.07-.089a.44.44 0 0 0-.099-.067l-.073-.034c-.01-.005-.028-.009-.039-.009s-.023-.003-.027-.007a.37.37 0 0 0-.064-.027l-.138-.046c-.045-.014-.113-.041-.152-.059l-.076-.04c-.003-.004-.022-.015-.042-.025a.58.58 0 0 1-.103-.083.48.48 0 0 1-.101-.138.79.79 0 0 1-.048-.135.9.9 0 0 1-.014-.157.92.92 0 0 1 .015-.162.84.84 0 0 1 .057-.154.48.48 0 0 1 .108-.149c.036-.035.07-.063.075-.063s.015-.006.023-.013.036-.023.063-.036.073-.03.103-.039a1.52 1.52 0 0 1 .141-.031c.048-.008.116-.015.153-.016a1.14 1.14 0 0 1 .162.015zm-4.062.115l.063.23.054.199.02.078.026.094.04.141.039.141.026.099.033.12.066.241.063.235.044.157.044.162.031.118.023.078.018.069c.004.019.001.033-.009.039a1.13 1.13 0 0 1-.189.009c-.123 0-.179-.004-.191-.013s-.02-.025-.023-.039l-.023-.094-.039-.152-.034-.125-.021-.066c-.005-.013-.01-.035-.01-.05v-.026h-.331l-.346.015c-.009.008-.015.029-.015.046s-.004.034-.01.037-.012.021-.015.04-.025.105-.048.191l-.051.178c-.004.012-.012.028-.016.037s-.042.016-.196.018c-.11.002-.192-.001-.198-.007s-.004-.038.009-.087l.027-.097a1.07 1.07 0 0 0 .022-.068l.038-.125.047-.149c.012-.039.022-.078.022-.086s.004-.024.01-.034a.4.4 0 0 0 .022-.06l.051-.172.044-.157c.003-.014.009-.036.014-.047s.015-.042.022-.068l.022-.078.044-.152.044-.138a.11.11 0 0 0 .01-.044c0-.014.004-.028.01-.031s.012-.021.015-.04.018-.076.034-.128l.041-.136.02-.068.022-.073.027-.089.021-.078c.004-.02.012-.045.018-.055.009-.017.03-.018.255-.016l.245.003.02.073zm.933-.065a1.62 1.62 0 0 1 .023.107l.027.152.02.115.018.099.045.256.047.267.021.12.021.131.037.22.034.192c.003.019.009.032.013.028a1.07 1.07 0 0 0 .032-.15l.035-.2.02-.12.021-.126.039-.225.034-.188.016-.084.021-.12.021-.126.033-.193.029-.149c.005-.017.025-.018.204-.018.127 0 .201.004.206.011a1.57 1.57 0 0 1 .034.16l.037.211.021.125.02.12.043.235.043.235.023.131.022.131.02.11.023.131c.007.043.016.085.021.094.017-.009.034-.11.053-.225l.044-.261.022-.131.017-.099.027-.141.043-.256.033-.199.02-.115.021-.125.021-.105.009-.031.193-.003.193-.003-.008.045-.017.092-.02.094-.034.157-.034.159-.02.105-.022.112-.021.105-.021.099-.023.105-.021.099-.021.107-.022.115-.022.107-.022.105-.017.097c-.004.025-.011.047-.016.05s-.009.023-.009.044-.005.052-.01.07-.023.098-.039.178l-.035.183c-.003.02-.013.042-.023.049s-.077.013-.219.013c-.149 0-.204-.003-.213-.013s-.018-.053-.028-.102l-.023-.125-.017-.094-.02-.12-.044-.246-.044-.246-.016-.11c-.003-.026-.01-.056-.015-.068a.33.33 0 0 1-.014-.073c-.003-.029-.02-.135-.038-.235l-.042-.214c-.008-.027-.011-.018-.023.063l-.024.146-.02.11-.02.115-.021.136-.017.094c-.003.009-.019.091-.034.183l-.038.225-.02.115-.021.12-.032.187c-.012.068-.028.131-.035.139s-.055.015-.214.014l-.214-.008c-.007-.004-.018-.029-.025-.055a1.14 1.14 0 0 1-.022-.105l-.022-.12-.021-.11-.026-.125-.038-.183-.033-.172-.022-.11-.015-.073-.018-.084-.022-.105-.022-.104-.022-.11-.022-.12-.021-.11-.021-.099-.022-.105-.021-.105-.022-.11-.02-.112c-.005-.03-.007-.057-.004-.06s.09-.005.194-.005c.141 0 .189.003.193.013zm-1.22.359c-.003.005-.016.05-.028.098l-.041.157-.023.107c-.003.022-.01.042-.015.045s-.01.019-.01.036-.004.041-.01.054a1.43 1.43 0 0 0-.033.123l-.04.162-.026.099-.02.084-.014.063c-.003.013.035.016.25.018l.262-.005c.004-.004.003-.029-.002-.055l-.021-.089-.021-.084-.021-.089-.027-.115-.033-.141-.028-.115-.016-.073c-.003-.017-.01-.041-.015-.052s-.017-.061-.028-.11l-.026-.109z"/></g></svg>