<svg xmlns="http://www.w3.org/2000/svg" width="23" height="26" fill="none" xmlns:v="https://vecta.io/nano"><g fill="#7431f9"><path d="M11 26V0H0L1.9 22.4L11 26Z"/><path d="M11 26V0H23L20.9 22.4L11 26Z"/></g><path d="M21 2H11v22l8-3 2-19z" fill="#9864ff"/><path d="M7.011 18V6.364h4.659c.856 0 1.57.127 2.142.381s1.002.606 1.29 1.057.432.962.432 1.545c0 .455-.091.854-.273 1.199s-.432.621-.75.841-.674.369-1.08.46v.114c.443.019.858.144 1.244.375s.707.555.949.972.364.905.364 1.477c0 .617-.153 1.169-.46 1.653s-.752.862-1.347 1.142-1.328.421-2.199.421H7.011zm2.46-2.011h2.006c.686 0 1.186-.131 1.5-.392s.472-.617.472-1.057c0-.322-.078-.606-.233-.852s-.377-.439-.665-.579-.623-.21-1.017-.21H9.472v3.091zm0-4.756h1.824a2.17 2.17 0 0 0 .898-.176c.265-.121.474-.292.625-.511s.233-.483.233-.79c0-.42-.15-.759-.449-1.017s-.716-.386-1.261-.386H9.472v2.881z" fill="#fff"/></svg>