<svg xmlns="http://www.w3.org/2000/svg" width="23" height="26" fill="none" xmlns:v="https://vecta.io/nano"><g fill="#672078"><path d="M11 26V0H0l1.913 22.431L11 26z"/><path d="M11 26V0h12l-2.087 22.431L11 26z"/></g><path d="M21 2H11v22l8-3.043L21 2z" fill="#833198"/><path fill-rule="evenodd" d="M10.474 17.99l-.357-.039-.254-.042-.195-.037-.222-.05-.357-.103-.298-.099-.152-.06-.358-.159-.303-.147a7.63 7.63 0 0 0-.265-.162l-.249-.155a.69.69 0 0 0-.087-.061l-.1-.069-.092-.075a.35.35 0 0 0-.081-.055c-.007 0-.151-.128-.32-.284l-.367-.353-.114-.129-.139-.169-.108-.133c-.012-.013-.022-.032-.022-.042s-.014-.029-.03-.042-.083-.105-.146-.206l-.142-.223c-.014-.022-.07-.123-.125-.224l-.098-.194a.69.69 0 0 0-.041-.095l-.067-.154-.06-.139a1 1 0 0 1-.052-.134l-.04-.135-.045-.144-.044-.154-.043-.199-.043-.249-.044-.358c-.014-.134-.019-.381-.012-.597l.033-.478.046-.279a3.1 3.1 0 0 1 .068-.318l.071-.249.064-.199.054-.139.065-.159c.026-.066.111-.24.189-.388l.155-.279a.48.48 0 0 0 .052-.07.57.57 0 0 0 .051-.095c.007-.019.021-.035.031-.035s.019-.01.019-.021a.45.45 0 0 1 .069-.114.54.54 0 0 1 .087-.1c.01-.004.018-.018.018-.031s.017-.042.038-.063a1.3 1.3 0 0 0 .091-.108l.064-.08c.007-.005.055-.059.109-.119l.195-.207.186-.179.278-.241.216-.167c.014-.004.04-.023.058-.041s.096-.072.173-.12l.168-.112c.015-.014.047-.03.07-.037s.043-.021.043-.031.01-.019.023-.019a.45.45 0 0 0 .115-.058 4.42 4.42 0 0 1 .35-.178l.402-.179a6.98 6.98 0 0 1 .466-.158l.506-.139.303-.061.269-.044c.098-.016.383-.023.823-.022l.749.023c.042.011.104.021.139.021s.093.008.13.018a4.23 4.23 0 0 0 .24.051l.26.05a6.01 6.01 0 0 1 .346.097l.39.132.444.195.321.158c.004.009.017.016.029.016s.126.065.253.144l.443.299a6.5 6.5 0 0 1 .455.379l.406.404.222.248c.033.037.059.079.06.093s-.031.042-.07.063-.082.048-.097.059-.032.021-.038.021-.078.037-.158.082l-.211.117-.152.081-.097.057a.41.41 0 0 1-.063.038l-.13.067-.136.078c-.032.021-.068.037-.081.037s-.024.008-.024.018-.017.023-.038.029-.082.035-.135.064l-.152.088a1.92 1.92 0 0 1-.132.075l-.13.067c-.028.015-.056.032-.062.038s-.069.041-.14.076l-.184.098-.098.056c-.038.02-.062.006-.195-.11l-.249-.212c-.053-.044-.131-.102-.173-.128l-.087-.059a.95.95 0 0 0-.08-.055c-.038-.024-.106-.063-.15-.086l-.18-.088-.196-.085c-.054-.022-.174-.063-.268-.091s-.189-.052-.211-.052-.058-.008-.079-.018-.159-.028-.308-.04l-.407-.022c-.075 0-.231.01-.347.022s-.227.03-.248.04-.056.018-.078.018-.132.027-.244.061-.306.107-.431.164l-.256.128c-.016.014-.037.025-.047.025s-.031.011-.047.026-.063.047-.104.074l-.14.099-.157.127a3.21 3.21 0 0 0-.241.239l-.233.281-.117.179a.46.46 0 0 1-.043.07c-.006.005-.022.032-.035.06l-.07.136c-.026.048-.046.104-.046.124s-.008.038-.017.038-.03.043-.045.095l-.046.144c-.01.027-.028.095-.04.149a3.21 3.21 0 0 0-.033.378 5.47 5.47 0 0 0 .009.537l.041.348.041.162a.81.81 0 0 0 .056.137c.019.036.035.072.035.081a1.9 1.9 0 0 0 .097.201l.135.245c.021.033.044.064.051.07s.047.058.09.116a2.78 2.78 0 0 0 .204.237l.19.183.131.111c.038.033.083.069.102.08l.194.122a3.54 3.54 0 0 0 .355.191c.107.049.248.105.314.125l.162.052a2.32 2.32 0 0 0 .189.048c.08.018.231.041.336.053s.319.015.482.008l.422-.033.195-.039.206-.061.281-.101.227-.1a3.32 3.32 0 0 0 .238-.139l.217-.141c.036-.025.187-.158.336-.295s.31-.303.357-.368l.113-.143c.014-.014.043-.052.064-.085s.056-.059.086-.059.054.009.062.02.032.02.055.02.042.007.042.015.022.024.049.036l.146.07.108.059c.006.005.04.023.076.04a7.1 7.1 0 0 1 .277.144l.233.115c.012 0 .021.007.021.015s.022.024.049.036l.146.07a.87.87 0 0 1 .128.075.3.3 0 0 0 .081.044c.028.01.172.085.321.168l.29.15c.011 0 .023.007.027.016a.64.64 0 0 0 .137.08l.17.092c.039.027.038.031-.011.114-.028.047-.058.089-.067.092s-.016.015-.016.026-.051.088-.112.173l-.141.18c-.016.014-.028.033-.028.04s-.022.036-.049.063a2.09 2.09 0 0 0-.113.129c-.035.044-.213.218-.396.388l-.423.372-.135.1a3.58 3.58 0 0 1-.195.14l-.178.124c-.014.011-.034.02-.045.02s-.037.016-.061.035-.1.067-.172.107l-.249.129a.61.61 0 0 0-.126.073c-.004.008-.017.015-.029.015s-.101.035-.198.077l-.278.119c-.056.023-.222.078-.368.123l-.397.111-.206.047-.192.038-.336.052c-.121.017-.419.034-.664.038s-.537 0-.65-.009zm4.953-4.471c-.008-.008-.015-.101-.015-.208s-.006-.208-.013-.226c-.011-.026-.055-.032-.26-.032h-.247v-.279-.279h.249c.24 0 .249-.002.261-.045.007-.025.009-.197.006-.383l-.006-.338-.249-.01-.249-.01v-.279-.279l.237-.006c.157-.004.243-.014.254-.03s.017-.109.017-.213a.8.8 0 0 1 .019-.216c.015-.022.075-.025.293-.017l.285.02c.006.005.014.076.019.156l.01.222.001.075h.411.412v-.214c0-.118.008-.226.018-.239.013-.019.088-.024.297-.02l.28.006.013.229.016.233c.002.002.117.007.257.01l.255.006v.279.279l-.247.014c-.163.009-.253.023-.265.04s-.018.169-.018.344a1.76 1.76 0 0 0 .02.348c.015.023.08.032.265.04l.244.01v.269.269l-.26.01-.26.01-.006.234-.006.234-.297-.006-.297-.005-.011-.229-.011-.229h-.401-.401l-.011.229-.011.229-.293.005c-.162.003-.3-.001-.309-.008zm1.41-1.046c.018-.017.026-.129.026-.375v-.351l-.146-.013c-.08-.007-.265-.013-.411-.013h-.265v.388.388h.386c.271 0 .393-.007.411-.024z" fill="#fff"/></svg>