<svg xmlns="http://www.w3.org/2000/svg" width="23" height="26" fill="none" xmlns:v="https://vecta.io/nano"><g fill="#38c3dc"><path d="M11 26V0H0l1.913 22.431L11 26z"/><path d="M11 26V0h12l-2.087 22.431L11 26z"/></g><path d="M21 2H11v22l8-3.043L21 2z" fill="#6adcf1"/><path fill-rule="evenodd" d="M7.874 4.019L4 4.027v.076c0 .042.046.448.102.904l.168 1.369.066.566c0 .014 1.609.025 3.575.025l3.732.022.157.022-.168.096c-.092.053-.286.143-.43.2l-.447.185-1.092.457-1.294.539-1.496.625-1.647.685-.579.259c-.031.028-.033.131-.008.442l.1 1.25.087 1.017.02.172 5.113.023 5.141.051c.016.016.012.301-.007.633l-.068 1.162-.071 1.25-.076.732c-.021.022-.144.07-.274.108l-.42.119-.47.132-.975.276-.964.276-.275.082-1.606-.408-1.623-.425c-.009-.009-.043-.34-.075-.734l-.094-1.15-.055-.465c-.011-.018-.642-.031-1.494-.031l-1.489.025a8.79 8.79 0 0 0 .046.735l.115 1.335.102 1.2.082.923.051.376c.009.015.051.035.093.044a63.22 63.22 0 0 1 1.101.323l2 .598 1.546.461.983.29.412.12.546-.159 1.05-.306 1.21-.356.924-.27.504-.146.571-.17.693-.204.496-.154c.049-.018.088-.053.089-.077a37.98 37.98 0 0 1 .052-.651l.099-1.166.116-1.335.137-1.571.099-1.149.065-.76.069-.794.072-.828.042-.642.004-.203-3.39-.017-3.39-.017 1.642-.706 2.499-1.077 1.277-.549.824-.353.555-.241.202-.095c.028-.015.061-.095.074-.177s.047-.399.076-.706l.102-1.081.079-.76c.02-.166.018-.244-.008-.262-.021-.014-1.656-.022-3.634-.017l-7.47.017z" fill="#fff"/></svg>