<svg xmlns="http://www.w3.org/2000/svg" width="23" height="26" fill="none" xmlns:v="https://vecta.io/nano"><g fill="#672078"><path d="M11 26V0H0l1.913 22.431L11 26z"/><path d="M11 26V0h12l-2.087 22.431L11 26z"/></g><path d="M21 2H11v22l8-3.043L21 2z" fill="#833198"/><path fill-rule="evenodd" d="M8.428 7.01l-.321.038-.22.038-.165.035-.128.031a.64.64 0 0 0-.092.027c-.02.008-.074.025-.119.037a3.65 3.65 0 0 0-.275.098l-.339.148a1.03 1.03 0 0 1-.17.072c-.013 0-.023.007-.023.016s-.023.026-.05.039a2.56 2.56 0 0 0-.179.101.85.85 0 0 0-.134.092c-.003.008-.016.014-.028.014s-.045.021-.075.047-.06.047-.067.047-.025.01-.038.023-.074.061-.134.107l-.164.13-.146.131-.204.205-.175.196-.081.095a2.92 2.92 0 0 0-.101.137l-.124.166c-.023.027-.041.056-.041.065a.42.42 0 0 1-.053.093l-.094.152-.151.298-.126.266-.033.084-.053.126c-.02.046-.047.122-.059.168l-.073.242-.064.233-.03.158-.035.196-.04.28c-.012.092-.022.352-.022.578l.023.568.039.27.034.196.037.18a3.32 3.32 0 0 0 .068.252l.077.239.055.149.046.112.033.084c.008.021.057.125.11.233l.11.214a1.11 1.11 0 0 1 .051.086l.062.111c.014.024.039.06.057.081s.032.048.032.062.006.024.014.024.034.034.059.075.051.075.058.075.017.015.023.033.029.054.052.079l.108.13a5.35 5.35 0 0 0 .248.27l.282.27.11.094a4.29 4.29 0 0 0 .174.131l.171.134c.003.008.014.014.024.014a.4.4 0 0 1 .099.056 2.88 2.88 0 0 0 .196.121l.289.151.22.105.087.035.092.037.087.035c.02.008.074.024.119.037l.128.038.174.052c.071.02.232.054.358.076l.385.058c.086.011.3.02.477.02l.468-.02.385-.058.367-.075.16-.054c.018-.009.046-.017.064-.017a.43.43 0 0 0 .101-.024.35.35 0 0 0 .081-.037c.007-.007.026-.013.043-.013a.37.37 0 0 0 .106-.037c.042-.021.085-.037.095-.037s.034-.008.051-.017l.215-.109.285-.147c.056-.031.191-.117.3-.191s.203-.152.208-.172.014-.029.022-.017.024.009.048-.012.065-.055.101-.082.126-.109.2-.181l.134-.132-.09-.097-.145-.16c-.03-.035-.07-.071-.088-.081-.025-.014-.041-.01-.064.016-.017.019-.089.085-.159.147l-.211.177-.107.088c-.013.013-.031.024-.04.024s-.028.013-.043.028-.093.069-.172.118l-.263.152-.164.085-.115.053-.131.058a3.91 3.91 0 0 1-.234.086l-.236.074-.238.054-.367.067a4.2 4.2 0 0 1-.554.028l-.495-.02-.289-.048-.293-.064-.229-.066-.124-.047c-.018-.009-.044-.016-.06-.016s-.042-.007-.06-.016l-.078-.036c-.025-.011-.141-.066-.257-.123l-.303-.16-.119-.068c-.015-.007-.032-.017-.037-.023s-.05-.039-.101-.074l-.193-.14-.128-.104c-.015-.015-.073-.067-.128-.114s-.155-.143-.22-.212l-.174-.184c-.03-.032-.077-.087-.103-.123l-.087-.11a.18.18 0 0 1-.039-.059c0-.008-.011-.025-.024-.039a1.23 1.23 0 0 1-.083-.112.6.6 0 0 1-.059-.099.89.89 0 0 0-.073-.121c-.04-.06-.073-.119-.073-.131a.2.2 0 0 0-.033-.071.78.78 0 0 1-.053-.096l-.048-.112-.075-.173c-.026-.059-.048-.117-.048-.128s-.021-.08-.048-.153a3.34 3.34 0 0 1-.084-.282l-.052-.252-.044-.287c-.02-.129-.028-.32-.028-.638l.02-.589.036-.229.047-.252c.017-.087.063-.259.103-.382l.098-.284.052-.121.064-.144a2.33 2.33 0 0 1 .094-.177l.086-.154c.017-.033.037-.061.045-.061s.015-.009.015-.02.026-.059.059-.107l.083-.112c.013-.014.024-.03.024-.037s.019-.034.041-.059.07-.084.105-.13a4.24 4.24 0 0 1 .267-.289l.268-.262c.035-.031.092-.077.127-.102l.072-.055c.005-.006.043-.038.085-.071s.083-.06.092-.061.044-.026.079-.056.071-.055.079-.055a.4.4 0 0 0 .092-.053c.042-.029.165-.096.273-.15l.321-.149.207-.076a.86.86 0 0 0 .114-.041c.018-.009.048-.017.068-.017s.04-.007.046-.017.037-.021.07-.027l.151-.03.211-.038.422-.049a2.52 2.52 0 0 1 .596-.008l.367.039.211.037c.076.012.152.029.169.039s.047.017.064.017.078.017.133.037.113.037.128.037.11.034.211.075l.358.161.312.17.22.141.107.081c.013.013.03.024.037.024s.033.019.058.042a1.27 1.27 0 0 0 .103.083c.031.022.063.035.07.027.004.017.055.077.12.141s.126.116.135.116.085-.072.17-.161.154-.175.154-.193-.039-.069-.087-.114l-.186-.166-.137-.111c-.021-.015-.057-.046-.079-.068s-.057-.046-.078-.053-.037-.02-.037-.029-.01-.018-.023-.018-.043-.017-.069-.037a2.52 2.52 0 0 0-.161-.112c-.063-.041-.123-.074-.133-.074s-.018-.008-.018-.019-.017-.019-.037-.019-.037-.007-.037-.015-.056-.042-.125-.075a.85.85 0 0 0-.147-.06c-.012 0-.021-.008-.021-.019s-.012-.019-.027-.019-.062-.016-.105-.035l-.179-.077-.138-.057a1.21 1.21 0 0 0-.119-.037l-.119-.037a.64.64 0 0 0-.092-.027l-.128-.031-.165-.034-.275-.046c-.109-.018-.335-.033-.559-.038-.207-.004-.463 0-.569.008zm8.509 2.686l-.202.034-.138.031c-.03.007-.133.05-.229.095l-.248.133-.082.06c-.005.005-.042.034-.082.065s-.121.104-.179.165-.101.118-.094.129c-.019 0-.037.011-.048.031a.31.31 0 0 1-.043.061 1.41 1.41 0 0 0-.1.155l-.095.153c-.01.012-.019.031-.019.042s-.007.034-.016.052a1.13 1.13 0 0 0-.034.079l-.041.096c-.013.027-.018.058-.012.068s0 .023-.013.028-.035.059-.048.119l-.049.221a3.41 3.41 0 0 0-.045.349 3.01 3.01 0 0 0 0 .506l.057.461.068.295c.017.056.036.107.042.112s.023.047.037.093a.97.97 0 0 0 .061.149l.091.168.066.112c.006.005.04.047.075.093s.097.117.137.158a1.73 1.73 0 0 0 .147.131l.133.097a1.65 1.65 0 0 0 .183.1l.161.073c.02.008.07.023.11.034l.147.037a3.13 3.13 0 0 0 .275.041c.134.015.263.018.385.008.13-.011.167-.019.128-.027l-.055-.012.052-.015c.036-.01.057-.007.066.008s.045.02.113.013l.2-.028.147-.031.082-.027.11-.037c.04-.013.151-.061.246-.107.131-.063.166-.088.147-.102s-.014-.015.017-.006.045.004.053-.028.015-.033.024-.018.024.013.053-.015c.037-.035.04-.058.043-.292.003-.227 0-.254-.027-.254-.017 0-.042.011-.055.024s-.074.058-.134.099-.18.109-.266.151l-.229.1-.11.037c-.02.008-.07.023-.11.033a2.94 2.94 0 0 1-.211.042c-.076.012-.216.023-.312.023a2.02 2.02 0 0 1-.303-.023.93.93 0 0 1-.16-.041c-.018-.009-.048-.017-.068-.017s-.041-.008-.047-.019-.027-.019-.045-.019-.07-.019-.114-.042a.6.6 0 0 1-.089-.053c-.005-.006-.028-.021-.052-.034s-.065-.041-.092-.063-.089-.082-.139-.134-.119-.137-.154-.191-.072-.092-.083-.086c-.001-.018-.011-.059-.03-.099s-.059-.152-.091-.249l-.077-.28c-.011-.056-.022-.195-.024-.308l-.003-.205 1.65-.005L19 12.191l-.004-.377-.024-.48-.038-.177-.056-.205c-.021-.072-.061-.181-.09-.243l-.053-.127a.47.47 0 0 0-.055-.095.39.39 0 0 1-.055-.101c0-.011-.006-.02-.014-.02s-.028-.023-.045-.051-.06-.083-.096-.122-.075-.065-.087-.058c-.004-.015-.005-.031-.012-.041a.42.42 0 0 0-.072-.061c-.033-.023-.068-.037-.078-.031-.003-.028-.046-.061-.124-.101l-.133-.075c-.005-.006-.039-.021-.075-.034s-.083-.023-.104-.023-.043-.007-.049-.017-.041-.021-.079-.026l-.206-.029c-.076-.011-.195-.018-.266-.017a2.65 2.65 0 0 0-.248.017zm-2.907.017a.69.69 0 0 1-.124.016c-.038.001-.069.011-.069.021s-.02.019-.044.019a.36.36 0 0 0-.124.042c-.044.023-.09.052-.103.064s-.037.027-.055.033-.091.071-.162.146-.156.174-.188.222-.058.096-.058.107-.008.02-.018.02-.018.012-.018.027a.27.27 0 0 1-.034.088c-.018.034-.044.095-.057.136a.44.44 0 0 1-.042.098c-.01.013-.025.018-.034.013s-.016-.215-.016-.466l-.018-.456c-.01 0-.018-.009-.018-.02s.008-.015.018-.008.018.002.018-.009-.084-.019-.266-.015l-.266.005v2.311 2.311l.261.005c.177.003.252-.001.234-.014-.024-.016-.023-.018.004-.019s.032-.092.04-1.291l.029-1.43.024-.196c.002-.031.01-.06.016-.065s.03-.076.052-.158.085-.241.139-.354a1.79 1.79 0 0 1 .146-.261l.098-.112c.027-.031.075-.077.104-.103s.084-.065.121-.086a1.27 1.27 0 0 1 .175-.079.79.79 0 0 1 .302-.039c.106 0 .221.009.256.02l.099.036.069.026c.018.006.032.002.032-.008s.012-.018.028-.018c.023 0 .028-.04.028-.247v-.247l-.056-.025c-.036-.016-.084-.021-.133-.014s-.067.005-.052-.004-.004-.02-.062-.028c-.047-.007-.116-.011-.153-.01s-.091.009-.121.016zm3.635.049c-.006.006-.022.007-.035.001.03-.012.041-.008.035-.001zm-.243.417l.128.029c.03.006.121.045.202.085s.176.101.211.134a1.84 1.84 0 0 1 .14.153c.042.051.109.159.149.239.051.1.076.135.082.112s.008-.001.009.04.01.112.022.158l.047.214c.014.072.026.183.026.247l.001.117h-1.366-1.366v-.051c0-.028.011-.106.026-.172l.056-.214.05-.14.036-.079c.009-.018.016-.045.016-.061s.009-.028.021-.028.016-.016.011-.037-.001-.035.012-.033.02-.011.019-.028.005-.028.014-.022.022-.005.028-.024.046-.076.087-.127a2.36 2.36 0 0 1 .166-.182c.05-.049.098-.088.107-.088-.002-.029.005-.032.022-.026s.029.004.029-.005.039-.036.087-.06l.133-.063.083-.034c.02-.008.061-.02.092-.027l.119-.027a1.62 1.62 0 0 1 .248-.017 1.56 1.56 0 0 1 .257.016zm-8.822.166c-.01.009-.053.022-.095.028l-.155.023c-.043.007-.15.05-.238.096s-.193.112-.233.147-.081.063-.093.063-.026.015-.032.033-.041.062-.078.098-.093.108-.126.16-.059.109-.059.126-.006.031-.014.031-.024.023-.037.05-.023.069-.023.093-.007.043-.016.043-.022.023-.028.051l-.037.172c-.014.067-.03.222-.037.345s-.004.299.006.391.031.227.047.298a1.33 1.33 0 0 0 .068.214l.055.116c.009.018.016.041.016.052s.008.03.018.042l.073.09c.031.037.056.076.056.086s.02.032.044.048.05.047.056.067.024.038.038.038.06.034.102.075.085.075.096.075.041.017.067.037.058.037.072.037.06.016.101.036a1.59 1.59 0 0 0 .234.075c.108.027.22.039.348.039.104 0 .247-.013.318-.029l.188-.04c.033-.006.064-.018.07-.027s.026-.016.046-.016.071-.018.114-.04.081-.045.086-.052a.64.64 0 0 1 .092-.061c.046-.027.135-.101.197-.164s.114-.123.114-.133.015-.034.034-.054.043-.058.055-.083l.043-.098a.42.42 0 0 1 .045-.079.48.48 0 0 0 .049-.112c.015-.046.037-.13.049-.186l.039-.145c.009-.024.016-.21.016-.414l-.018-.382c-.01-.006-.018-.035-.018-.063a.69.69 0 0 0-.037-.16.7.7 0 0 1-.037-.152c0-.024-.017-.054-.037-.067s-.037-.037-.037-.053-.034-.083-.075-.148a1.14 1.14 0 0 0-.128-.169c-.029-.028-.053-.058-.053-.067s-.023-.03-.05-.047a.72.72 0 0 1-.1-.079c-.027-.026-.057-.048-.065-.048s-.052-.023-.097-.051a.85.85 0 0 0-.146-.073 1.75 1.75 0 0 0-.174-.043l-.187-.039c-.042-.009-.166-.017-.276-.017s-.207.008-.217.017zm10.292.789c-.005.013-.009.002-.009-.023s.004-.036.009-.023.005.034 0 .047zm.037.185c-.012-.031-.008-.042-.001-.036s.007.022.001.036zm-1.696.42h-.257c-.068-.004-.007-.007.134-.006s.197.003.123.006zm.798 0a.79.79 0 0 1-.137 0c-.038-.004-.007-.007.069-.007s.107.003.069.007zM4.094 12.81c-.012-.031-.008-.042-.001-.036s.007.022.001.036zm14.603.779c0 .01-.008.019-.018.019s-.018-.008-.018-.019.008-.019.018-.019.018.008.018.019zm-6.277.813c-.006.006-.022.007-.035.002.03-.012.041-.008.035-.002zm4.503.094c-.013.005-.033.005-.046 0s-.002-.009.023-.009.036.004.023.009z" fill="#fff"/></svg>