<svg xmlns="http://www.w3.org/2000/svg" width="23" height="26" fill="none" xmlns:v="https://vecta.io/nano"><g fill="#63bd33"><path d="M11 26V0H0l1.913 22.431L11 26z"/><path d="M11 26V0h12l-2.087 22.431L11 26z"/></g><path d="M21 2H11v22l8-3.043L21 2z" fill="#77cb49"/><path fill-rule="evenodd" d="M5.065 5.034c-.06.038-.073 1.475-.06 6.993l.015 6.945 5.963.014 5.963.014.034-.124c.018-.068.026-.633.016-1.255l-.017-1.13-4.094-.028-4.152-.11c-.033-.047-.058-.756-.058-1.641-.001-1.489.004-1.563.121-1.669s.191-.111 3.549-.108l3.427.003.016-1.298.016-1.298h-3.47c-3.074 0-3.481-.01-3.565-.087s-.095-.275-.095-1.344c0-.985.018-1.271.081-1.319.057-.043 1.181-.066 3.82-.076l3.739-.014.016-1.209-.04-1.241c-.031-.017-2.552-.039-5.603-.048s-5.581.005-5.623.031z" fill="#fff"/></svg>