<svg xmlns="http://www.w3.org/2000/svg" width="23" height="26" fill="none" xmlns:v="https://vecta.io/nano"><g fill="#353535"><path d="M11 26V0H0l1.913 22.431L11 26z"/><path d="M11 26V0h12l-2.087 22.431L11 26z"/></g><path d="M21 2H11v22l8-3.043L21 2z" fill="#636363"/><path fill-rule="evenodd" d="M11.195 5.002l-.397.034-.526.072-.444.081-.234.055-.269.082-.386.128-.292.108c-.064.023-.209.088-.322.143l-.215.1c-.006 0-.113.059-.239.131l-.451.273-.503.353a7.71 7.71 0 0 0-.691.621l-.55.585-.259.339-.247.362-.231.386-.224.444-.201.456a8.08 8.08 0 0 0-.188.549l-.153.573-.071.362-.064.468c-.025.207-.039.499-.038.795l.039.807.065.479.09.421.159.585.14.398a2.13 2.13 0 0 1 .081.2c.02.059.087.211.15.339l.192.373.182.312.213.324.143.202c.019.028.113.15.21.273s.322.37.503.552l.529.495.304.238.302.209.432.275.444.241.479.212.526.194.549.154.608.117.573.071a7.31 7.31 0 0 0 .583.025l.585-.026.574-.071.608-.117.549-.155.514-.188.526-.238.456-.247.356-.224.234-.159.264-.207.28-.228.277-.258.398-.421.295-.35.159-.21.213-.316.243-.386a7.95 7.95 0 0 0 .24-.468l.201-.456.112-.304.126-.397.097-.362.081-.433.085-.573a7.9 7.9 0 0 0 .03-.713l-.029-.69-.096-.632c-.037-.219-.111-.545-.163-.725l-.168-.525-.215-.514-.297-.585-.284-.468-.337-.468a9.29 9.29 0 0 0-.617-.679 7.96 7.96 0 0 0-.702-.633l-.468-.336-.368-.227-.421-.227-.31-.149-.292-.119-.397-.14-.339-.104-.327-.083-.456-.083-.526-.07-.549-.033-.444-.002zm1.391.974l.526.11.386.112.374.13.386.164.421.211.439.267.386.269.415.347.4.388.265.301c.067.077.204.256.303.398l.299.456.241.444.227.514.136.363a4.79 4.79 0 0 1 .082.292l.095.392c.025.106.066.375.092.596s.047.554.047.745-.021.53-.046.76l-.091.617-.096.386-.094.316-.101.281-.141.344-.189.387-.187.334-.182.287-.305.409c-.113.144-.302.36-.421.48l-.417.397-.292.25-.277.201-.374.242-.456.247-.538.245c-.223.092-.295.111-.422.112s-.168-.009-.228-.052c-.041-.029-.088-.076-.104-.104-.022-.038-.032-.346-.042-1.208l-.067-1.344c-.03-.103-.078-.24-.106-.304a1.38 1.38 0 0 0-.152-.242c-.077-.097-.092-.13-.068-.145a.61.61 0 0 1 .161-.034l.257-.037.362-.082.374-.107.269-.108c.071-.033.218-.112.327-.176a2.1 2.1 0 0 0 .433-.352 2.41 2.41 0 0 0 .332-.4c.054-.091.125-.227.16-.304a3.5 3.5 0 0 0 .108-.28l.082-.292.069-.372a5.21 5.21 0 0 0 .033-.608c0-.245-.013-.454-.034-.568-.019-.099-.057-.246-.084-.327a3.86 3.86 0 0 0-.127-.314c-.042-.092-.127-.239-.188-.327l-.169-.223c-.043-.046-.055-.077-.043-.117l.061-.229c.033-.126.046-.254.046-.453a1.88 1.88 0 0 0-.06-.526l-.087-.331c-.015-.045-.036-.095-.048-.111s-.061-.029-.111-.029a1.56 1.56 0 0 0-.248.034c-.088.019-.228.057-.311.084s-.231.086-.327.131-.286.145-.421.224l-.286.178c-.036.031-.062.03-.222-.007l-.275-.061c-.051-.011-.286-.047-.521-.079-.267-.037-.534-.059-.713-.059-.157 0-.449.021-.648.047l-.491.071-.328.074-.2.05-.24-.147a6.26 6.26 0 0 0-.478-.26l-.39-.163c-.084-.027-.226-.065-.316-.084a1.62 1.62 0 0 0-.252-.034c-.082 0-.092.007-.131.1-.024.055-.067.195-.097.31-.046.179-.054.267-.054.595 0 .334.007.409.053.556l.053.171-.091.11-.163.217a2.66 2.66 0 0 0-.142.245c-.038.076-.103.238-.145.359-.053.156-.084.31-.107.526-.025.235-.027.379-.009.621l.048.479a3.35 3.35 0 0 0 .083.362l.092.299a2.22 2.22 0 0 0 .104.24l.155.274c.047.074.186.235.309.358a2.13 2.13 0 0 0 .423.34l.331.178a3.49 3.49 0 0 0 .304.119l.37.105.327.071.257.037c.071.008.144.023.162.035.027.017.021.036-.035.107l-.117.16c-.027.04-.082.159-.122.264a1.95 1.95 0 0 0-.089.287c-.012.075-.031.105-.082.131-.037.019-.164.061-.283.093a1.54 1.54 0 0 1-.44.058c-.17 0-.262-.013-.388-.054-.091-.03-.212-.082-.27-.115a1.72 1.72 0 0 1-.226-.17c-.067-.06-.185-.205-.263-.323s-.191-.265-.251-.328-.154-.145-.209-.183-.147-.089-.203-.114-.159-.056-.227-.069-.174-.018-.234-.01-.128.028-.151.045c-.035.025-.037.04-.015.089.015.032.098.11.184.172a3.75 3.75 0 0 1 .271.217 2.15 2.15 0 0 1 .228.258c.063.085.148.228.189.318l.145.315a1.52 1.52 0 0 0 .188.288 1.71 1.71 0 0 0 .26.236 1.77 1.77 0 0 0 .27.153c.07.029.175.068.234.085s.212.041.34.053a2.7 2.7 0 0 0 .467 0l.299-.043c.036-.012.08-.016.099-.008s.041.051.05.097.006.335-.005.642l-.021.558-.098.092c-.069.064-.122.093-.175.096a1.72 1.72 0 0 1-.164-.002c-.048-.003-.227-.061-.397-.13l-.569-.256a7.46 7.46 0 0 1-.577-.34l-.442-.306-.378-.323a6.99 6.99 0 0 1-.483-.483l-.321-.375-.233-.327-.238-.369-.222-.409-.231-.52-.187-.55-.107-.386-.059-.304-.065-.398a6.67 6.67 0 0 1-.031-.795l.031-.783.067-.409.09-.421.116-.407.144-.409.249-.54c.092-.186.264-.483.382-.659l.349-.491c.074-.094.299-.335.499-.535l.528-.493.33-.247.374-.245.465-.258.503-.229.374-.14.386-.113.456-.105.374-.059.234-.035c.032-.005.358-.007.725-.003.585.006.708.014 1.005.065z" fill="#fff"/></svg>