<svg xmlns="http://www.w3.org/2000/svg" width="23" height="26" fill="none" xmlns:v="https://vecta.io/nano"><g fill="#f97c1e"><path d="M11 26V0H0l1.913 22.431L11 26z"/><path d="M11 26V0h12l-2.087 22.431L11 26z"/></g><path d="M21 2H11v22l8-3.043L21 2z" fill="#f29338"/><path fill-rule="evenodd" d="M4.015 4.128l.04.422.074.806.073.745.049.574.049.635.048.513.049.501.049.525.049.586.049.599.036.403.036.391.049.501.061.709.066.739.03.287h5.19 5.19l-.013.238-.051.69-.087.99-.099 1.063-.065.727c-.008.111-.027.21-.042.221a.6.6 0 0 1-.112.048l-.399.116-.414.109c-.056.012-.282.072-.503.134l-.853.235-.763.208-.312.086-.224-.063-.309-.085-.28-.074-.353-.098-.256-.071-.305-.077-.256-.073a.94.94 0 0 0-.11-.035l-.353-.089-.578-.158-.296-.084c-.006 0-.018-.019-.027-.043s-.028-.169-.041-.324l-.045-.501-.071-.782-.065-.654-.015-.092H6.428 4.953l.014.116.028.299.037.452.06.709.061.648.072.782.074.916.053.545c.019.139.04.209.066.223.021.011.126.043.234.07l.329.087.219.064.305.086.409.11.292.083.207.061.195.052.311.088.292.084.353.094.475.134.536.152.451.123.292.081.366.101.256.072.256.073.256.065c.041.007.174-.014.305-.048l.524-.145.804-.225.719-.201.28-.079.36-.096.39-.109.298-.086.268-.074.536-.149.792-.223.524-.146.276-.072c.045-.011.088-.028.098-.037s.023-.106.032-.216l.054-.652.101-1.149.099-1.087.059-.672.072-.843.075-.843.049-.525.047-.513.074-.867.072-.831.052-.525.032-.391.002-.098h-5.452c-2.998 0-5.461-.009-5.472-.02s-.027-.11-.036-.22l-.042-.469-.063-.77-.061-.721-.051-.489a2.7 2.7 0 0 1-.019-.354l.009-.086 5.734-.006 5.734-.006.013-.055c.007-.03.023-.209.036-.397l.06-.745.063-.672.049-.501.037-.409L19 4h-7.5H4l.015.128z" fill="#fff"/></svg>