<svg xmlns="http://www.w3.org/2000/svg" width="23" height="26" fill="none" xmlns:v="https://vecta.io/nano"><g fill="#a58bd5"><path d="M11 26V0H0l1.913 22.431L11 26z"/><path d="M11 26V0h12l-2.087 22.431L11 26z"/></g><path d="M21 2H11v22l8-3.043L21 2z" fill="#b49bd7"/><path fill-rule="evenodd" d="M14.586 6.04c-.155.018-.471.077-.7.13a4.9 4.9 0 0 0-.706.223c-.159.07-.443.223-.631.341s-.498.366-.688.551a5.36 5.36 0 0 0-.571.667c-.124.182-.302.478-.394.658s-.223.47-.29.645l-.176.475c-.03.086-.099.341-.155.567l-.154.645c-.034.152-.052.515-.051 1.037l.002.802.146.418a3.24 3.24 0 0 0 .335.696 2.7 2.7 0 0 0 .409.462 3.44 3.44 0 0 0 .449.311c.126.07.365.169.532.22l.545.147c.192.042.829.053 3.08.053l2.885-.078c.026-.043.077-.193.113-.332l.178-.645a3.35 3.35 0 0 0 .116-.528l.004-.137-.444-.011c-.344-.008-.454-.024-.491-.071-.03-.038-.035-.099-.014-.165a17.34 17.34 0 0 1 .235-.613l.343-.919.263-.821.19-.742c.051-.249.063-.457.049-.841-.013-.338-.047-.609-.101-.803-.045-.161-.138-.41-.206-.552s-.203-.363-.3-.491-.302-.343-.456-.478a3.47 3.47 0 0 0-.567-.395 4.53 4.53 0 0 0-.524-.228c-.13-.043-.345-.098-.478-.121l-.532-.082A4.93 4.93 0 0 0 15.204 6l-.618.039zm1.095 1.85a1.9 1.9 0 0 1 .403.143c.086.047.226.149.311.227s.189.205.231.283.104.219.137.313.072.302.085.463a2.52 2.52 0 0 1-.018.528l-.079.411a31 31 0 0 1-.308 1.095l-.304 1.036-.121.43c-.048.172-.117.345-.153.383-.061.066-.155.07-1.339.059l-1.273-.012-.228-.109c-.126-.06-.296-.181-.378-.269a1.69 1.69 0 0 1-.244-.361c-.052-.11-.117-.354-.145-.542-.041-.274-.04-.421 0-.743l.133-.769a7.39 7.39 0 0 1 .216-.743c.074-.206.204-.497.289-.645a3.46 3.46 0 0 1 .425-.552c.19-.197.357-.326.556-.427a2.65 2.65 0 0 1 .536-.198c.138-.029.424-.054.635-.055s.495.023.63.054zm-7.903.069c-.036.027-.096.173-.132.323l-.103.43-.099.423c-.034.147-.061.309-.061.362v.095h.964c.824 0 .971-.009 1.016-.061.029-.034.096-.258.149-.499l.138-.614a2.16 2.16 0 0 0 .048-.332l.007-.156-.93-.01c-.703-.008-.946.002-.996.039zm-.2 2.217c-.192.013-.361.033-.374.046s-.06.18-.105.372l-.12.524-.164.704-.157.684-.182.821-.262 1.193-.197.756c-.046.125-.131.307-.189.402s-.161.236-.23.312-.175.163-.237.194c-.075.037-.241.057-.488.057-.206 0-.399.015-.429.034s-.107.251-.172.518l-.156.622-.086.326c-.041.158-.04.195.008.224.031.019.456.035.945.035l1.159-.056a2.63 2.63 0 0 0 .424-.123 2.45 2.45 0 0 0 .347-.208 2.2 2.2 0 0 0 .37-.364 3.74 3.74 0 0 0 .325-.528l.182-.382c.018-.043.06-.166.094-.274l.145-.508.187-.782.135-.606.156-.704.209-.939.12-.547.102-.45.098-.43.098-.442c.036-.157.065-.326.065-.376 0-.085-.018-.091-.393-.115l-.636-.019-.592.029z" fill="#fff"/></svg>