<svg xmlns="http://www.w3.org/2000/svg" width="23" height="26" fill="none" xmlns:v="https://vecta.io/nano"><g fill="#1285d0"><path d="M11 26V0H0l1.913 22.431L11 26z"/><path d="M11 26V0h12l-2.087 22.431L11 26z"/></g><path d="M21 2H11v22l8-3.043L21 2z" fill="#30a3f1"/><path fill-rule="evenodd" d="M10.403 8.027c-.098.013-.273.049-.39.08s-.334.112-.482.179-.3.147-.337.178l-.067.056.006 1.436.048 1.482c.037.04.13.046.752.046l.827.025c.064.013.162.053.218.087a.78.78 0 0 1 .175.16c.07.092.075.123.084.578l.01.481.162.065a1.1 1.1 0 0 1 .289.183c.07.065.157.176.193.246a.92.92 0 0 1 .081.307.62.62 0 0 1-.052.338c-.036.087-.127.219-.202.294-.083.083-.198.161-.298.2-.123.049-.218.064-.392.064s-.27-.016-.39-.064c-.09-.036-.219-.12-.295-.193s-.163-.197-.204-.295a.63.63 0 0 1-.055-.35c.01-.125.041-.236.096-.337a.93.93 0 0 1 .195-.241c.062-.049.186-.119.275-.156l.163-.067v-.373c0-.228-.014-.397-.035-.434s-.05-.07-.069-.081-.369-.021-.779-.021l-.859-.043c-.063-.024-.147-.07-.187-.104a.65.65 0 0 1-.13-.172c-.053-.103-.057-.209-.057-1.527l-.001-1.416-.088-.017c-.048-.01-.197-.005-.33.01a2.67 2.67 0 0 0-.411.081l-.315.111c-.08.032-.227.107-.325.167a3.79 3.79 0 0 0-.355.254 3.02 3.02 0 0 0-.312.304c-.075.088-.193.255-.263.371s-.143.264-.164.327c-.036.112-.049.121-.404.282l-.513.258c-.08.051-.235.168-.344.259a3.37 3.37 0 0 0-.34.337c-.078.093-.202.282-.275.419a2.96 2.96 0 0 0-.184.415c-.03.098-.057.319-.065.54-.012.316-.004.412.051.623.037.142.131.37.217.531s.224.358.323.463a2.68 2.68 0 0 0 .346.303 2.79 2.79 0 0 0 .36.205 3.38 3.38 0 0 0 .399.144c.118.033.333.067.478.076.152.009.352.002.473-.017.116-.018.29-.058.387-.088l.177-.055.187.136a3.26 3.26 0 0 0 .47.264c.156.07.328.136.383.146l.1.018v-1.176l-.056-1.221c-.046-.038-.126-.046-.444-.046h-.388l-.062.127c-.034.07-.103.173-.153.23a.93.93 0 0 1-.242.177c-.083.041-.226.084-.317.096a1.47 1.47 0 0 1-.329-.001c-.09-.012-.217-.047-.282-.077s-.169-.101-.232-.158-.149-.173-.192-.256c-.062-.12-.079-.194-.077-.35a.62.62 0 0 1 .085-.352c.047-.087.149-.207.236-.277s.218-.143.311-.171c.087-.026.229-.047.316-.047s.229.021.316.047a1.04 1.04 0 0 1 .314.174c.086.07.183.174.216.232a.47.47 0 0 1 .06.148c0 .036.06.043.391.043l.508.025a.85.85 0 0 1 .223.089c.059.036.14.126.183.202l.076.137v1.24 1.24h.188c.104 0 .273-.014.376-.031l.188-.031.2.113c.11.062.292.144.405.182s.348.096.522.128c.229.042.427.058.716.058a4.67 4.67 0 0 0 .632-.042 4.98 4.98 0 0 0 .476-.114 2.61 2.61 0 0 0 .437-.182c.106-.06.212-.109.234-.109s.09.019.151.042.124.041.142.041.032-.839.032-2.624l-.037-2.657c-.026-.023-.185-.033-.521-.033h-.484l-.066.139c-.041.086-.129.19-.231.274a1.01 1.01 0 0 1-.321.182c-.108.032-.224.043-.376.036s-.264-.031-.364-.076c-.079-.036-.192-.111-.251-.165a1.11 1.11 0 0 1-.172-.214.95.95 0 0 1-.09-.256.96.96 0 0 1-.001-.277.89.89 0 0 1 .085-.242c.034-.059.114-.156.179-.215s.186-.136.271-.171.219-.071.298-.082a1.05 1.05 0 0 1 .307.015c.089.019.219.063.289.099s.165.106.212.156a1.24 1.24 0 0 1 .159.236l.074.145h.505c.386 0 .532.01.619.043.063.024.146.07.186.104a.71.71 0 0 1 .123.144c.045.073.053.252.066 1.522l.015 1.439.856.007c.765.007.863.002.913-.039.036-.029.057-.084.057-.148 0-.095-.009-.104-.118-.134-.065-.018-.183-.083-.261-.146a1.17 1.17 0 0 1-.216-.228c-.04-.063-.089-.183-.108-.267-.024-.105-.025-.197-.004-.297.017-.08.058-.194.093-.255s.113-.156.175-.212.189-.133.284-.173c.133-.055.22-.071.386-.071s.254.016.386.071c.094.039.224.119.288.176s.152.175.195.26c.061.12.079.198.079.348 0 .137-.019.232-.065.323-.035.071-.122.185-.191.253a1.15 1.15 0 0 1-.294.196c-.164.07-.168.074-.168.19 0 .065-.026.168-.058.229s-.096.144-.145.185-.14.094-.202.118c-.094.036-.269.043-1.006.043h-.892l.008 1.059.008 1.059.184-.008a3.33 3.33 0 0 0 .445-.066c.143-.031.349-.093.456-.136a3.3 3.3 0 0 0 .384-.194c.104-.063.279-.194.389-.291l.201-.177.244.057c.16.037.34.057.521.056.152 0 .359-.019.46-.043s.3-.095.442-.158c.183-.083.329-.178.506-.329s.298-.287.411-.458c.089-.135.196-.345.237-.467s.09-.315.11-.429.027-.3.016-.421-.055-.323-.098-.457a2.31 2.31 0 0 0-.221-.465c-.08-.124-.252-.323-.389-.453a3.85 3.85 0 0 0-.437-.355 4.94 4.94 0 0 0-.396-.225c-.201-.099-.207-.106-.273-.282-.037-.099-.105-.248-.152-.332s-.134-.221-.192-.304-.183-.237-.276-.34a3.15 3.15 0 0 0-.403-.358c-.136-.099-.362-.225-.541-.301a2.21 2.21 0 0 0-.596-.175c-.159-.024-.358-.044-.442-.044-.122 0-.184-.019-.309-.093-.086-.051-.256-.138-.378-.194a5.07 5.07 0 0 0-.46-.176c-.223-.071-.271-.076-.73-.074-.473.001-.502.005-.777.091l-.285.09-.19-.068a2.48 2.48 0 0 0-.411-.098c-.121-.017-.273-.029-.338-.027a3.63 3.63 0 0 0-.295.027zm.894 1.659c-.062.029-.141.087-.176.127s-.078.12-.095.177a.48.48 0 0 0-.011.197.61.61 0 0 0 .075.178c.031.046.112.112.18.147s.177.064.242.065a.87.87 0 0 0 .192-.019c.04-.011.117-.05.171-.086s.12-.12.149-.189c.037-.086.046-.16.032-.244-.012-.075-.057-.16-.117-.226-.053-.058-.142-.123-.197-.144s-.153-.038-.217-.037a.65.65 0 0 0-.228.055zm4.531 1.919a.6.6 0 0 0-.174.124c-.044.047-.097.131-.117.187s-.029.145-.019.198.053.146.095.204.116.123.162.144a.93.93 0 0 0 .189.056.68.68 0 0 0 .228-.012.61.61 0 0 0 .223-.119.54.54 0 0 0 .134-.207c.019-.065.026-.158.014-.206a.75.75 0 0 0-.063-.162c-.023-.041-.092-.109-.152-.15a.48.48 0 0 0-.269-.085c-.092-.005-.198.007-.253.029zm-9.483.806c-.068.022-.16.078-.206.123s-.098.134-.116.195a.51.51 0 0 0-.013.209c.011.053.05.137.087.186a.66.66 0 0 0 .188.153c.095.05.157.062.281.054a.49.49 0 0 0 .272-.088c.062-.043.141-.134.174-.202.045-.091.056-.154.041-.238-.011-.063-.054-.16-.095-.217a.53.53 0 0 0-.164-.144c-.049-.023-.142-.048-.207-.056a.63.63 0 0 0-.241.026zm4.406.851c-.059.036-.139.109-.179.162-.061.081-.071.123-.061.263.008.118.032.194.082.257a.61.61 0 0 0 .19.144c.066.03.173.055.238.055a.72.72 0 0 0 .255-.064.53.53 0 0 0 .206-.173c.056-.087.068-.14.059-.268-.007-.104-.032-.185-.072-.234-.034-.041-.098-.099-.144-.13-.056-.038-.145-.059-.274-.066-.162-.009-.208-.001-.298.055z" fill="#fff"/></svg>