<svg xmlns="http://www.w3.org/2000/svg" width="23" height="26" fill="none" xmlns:v="https://vecta.io/nano"><g fill="#e58e02"><path d="M11 26V0H0l1.913 22.431L11 26z"/><path d="M11 26V0h12l-2.087 22.431L11 26z"/></g><path d="M21 2H11v22l8-3.043L21 2z" fill="#e89e25"/><path fill-rule="evenodd" d="M9.538 7.052a1.01 1.01 0 0 0-.398.185.93.93 0 0 0-.211.222 3.29 3.29 0 0 1-.138.248l-.15.264-.229.406-.281.467-.169.284-.2.362-.232.385c-.054.08-.117.145-.141.145s-.112-.119-.197-.264l-.217-.385-.102-.183a18.06 18.06 0 0 1-.257-.446l-.393-.71-.221-.406-.127-.212a1.06 1.06 0 0 0-.241-.243c-.152-.108-.179-.113-.644-.113-.377 0-.529.017-.682.076s-.209.107-.253.212S4 7.79 4 8.999l.064 1.543c.035.013.204.024.374.024a2.39 2.39 0 0 0 .401-.025l.091-.025V9.063l.036-1.476c.02-.012.09.064.156.17l.479.816.481.834.274.477a3.29 3.29 0 0 0 .31.446c.125.143.2.189.366.228.115.027.294.048.398.048a1.86 1.86 0 0 0 .393-.055c.112-.03.25-.098.307-.152a2.09 2.09 0 0 0 .256-.361l.296-.527.258-.433c.064-.093.116-.18.116-.192s.064-.122.142-.244.142-.235.142-.251.042-.085.094-.154.156-.24.232-.379.161-.254.189-.254.052.032.053.071L9.905 9.1l.044 1.41c.034.041.147.057.403.057.196 0 .385-.011.42-.025.057-.022.064-.196.063-1.552l-.05-1.625a.61.61 0 0 0-.153-.174c-.06-.045-.253-.101-.465-.136L9.784 7l-.246.052zm6.001 1.127c-.033.04-.048.343-.051.987-.003.686-.017.939-.053.962-.027.017-.541.032-1.141.032-.822 0-1.146-.014-1.31-.058-.12-.032-.238-.078-.263-.103s-.049-.357-.057-.936l-.012-.892-.433.012-.433.011-.011.883c-.01.769-.002.896.057.986.037.057.141.141.231.187a4.35 4.35 0 0 0 .388.167c.204.076.348.085 1.62.107l1.395.023.012.193c.011.163-.003.207-.092.289a.57.57 0 0 1-.23.122c-.069.014-.84.025-1.713.025l-1.634.056c-.025.031-.041.127-.034.213l.012.157 1.698.011 2.001-.054a2.74 2.74 0 0 0 .475-.147 1.13 1.13 0 0 0 .313-.247l.142-.166v-1.39l-.042-1.416c-.023-.014-.21-.036-.415-.048-.292-.018-.383-.01-.421.035zM4.91 12.07c-.089.019-.227.059-.308.088s-.212.098-.292.154-.17.155-.198.222-.051.281-.051.481v.359l.174.155a1.43 1.43 0 0 0 .425.242c.219.077.383.093 1.282.122l1.187.074a.69.69 0 0 1 .253.131c.083.078.097.13.097.346 0 .14-.02.299-.045.354s-.119.131-.212.171c-.148.064-.335.074-1.623.085l-1.507.032c-.029.011-.051.089-.051.182 0 .139.015.167.098.188.054.014.805.018 1.668.009l1.833-.108.36-.14a1.16 1.16 0 0 0 .233-.184c.134-.135.136-.139.136-.515 0-.209-.021-.426-.047-.484a.52.52 0 0 0-.176-.184c-.071-.044-.209-.11-.307-.146a3.59 3.59 0 0 0-.501-.121c-.201-.034-.642-.056-1.164-.056-.632-.001-.875-.015-.978-.058-.075-.032-.159-.098-.186-.149s-.046-.217-.043-.37.028-.314.055-.358a.34.34 0 0 1 .11-.109c.034-.017.78-.04 1.659-.052l1.598-.021.012-.193.012-.193-1.671.004-1.832.039zm5.096.017l-.364.1a1.59 1.59 0 0 0-.27.149.64.64 0 0 0-.212.262c-.052.13-.063.334-.062 1.082l.037 1.105a.52.52 0 0 0 .202.331c.099.088.277.187.438.242.257.088.336.094 1.498.102l1.226.008.283.196.392.264c.084.053.212.069.57.071.457.003.461.002.389-.077a3.31 3.31 0 0 0-.39-.293l-.317-.234c0-.011.014-.039.03-.061s.102-.077.19-.122a.7.7 0 0 0 .243-.223c.078-.133.083-.207.083-1.237 0-.988-.007-1.107-.074-1.217-.041-.067-.141-.169-.223-.227a.96.96 0 0 0-.25-.13l-.364-.086c-.207-.048-.535-.061-1.537-.059l-1.517.056zm4.74-.035c-.015.016-.028.648-.028 1.405v1.377l.121.153c.067.084.203.192.303.239s.226.086.281.086.109.016.121.036.14.048.284.064.895.028 1.669.028l1.46-.003c.037-.002.049-.055.04-.176l-.012-.172-1.497-.022-1.645-.091c-.082-.038-.164-.091-.182-.12s-.042-.672-.053-1.431l-.02-1.379-.407-.011c-.223-.006-.419.001-.435.017zm-2.026.426a.76.76 0 0 1 .301.165l.119.119v.952c0 .756-.012.976-.059 1.067-.033.063-.089.126-.125.14a.44.44 0 0 1-.133.025c-.037 0-.22-.105-.407-.233l-.339-.233-.439-.007c-.241-.004-.448.008-.459.026s.11.122.269.23.297.219.306.245-.044.06-.132.076c-.082.015-.369.019-.64.008-.416-.017-.515-.034-.644-.111-.084-.05-.173-.129-.197-.174-.029-.054-.042-.419-.038-1.059.006-.854.015-.986.075-1.052a.67.67 0 0 1 .15-.12 1.03 1.03 0 0 1 .203-.073c.067-.016.546-.031 1.064-.034l1.125.042z" fill="#fff"/></svg>