<svg xmlns="http://www.w3.org/2000/svg" width="23" height="26" fill="none" xmlns:v="https://vecta.io/nano"><g fill="#90c542"><path d="M11 26V0H0l1.913 22.431L11 26z"/><path d="M11 26V0h12l-2.087 22.431L11 26z"/></g><path d="M21 2H11v22l8-3.043L21 2z" fill="#9fcf63"/><path fill-rule="evenodd" d="M10.825 5.018c0 .01-.044.023-.097.029a.63.63 0 0 0-.168.044c-.039.018-.126.066-.194.106l-.367.22-.329.198-.662.396-.843.507-1.498.898-1.371.877a.95.95 0 0 0-.201.281.94.94 0 0 0-.082.329c-.01.105-.016 1.56-.013 3.271l.006 3.083.049.127c.027.07.085.18.129.245a1.09 1.09 0 0 0 .165.19c.047.039.175.126.286.192l.21.121a.57.57 0 0 1 .085.049l.188.113.234.138.275.164a4.57 4.57 0 0 0 .326.172l.214.101a2.24 2.24 0 0 0 .163.059l.219.065c.053.013.218.024.367.024a2.38 2.38 0 0 0 .402-.029 2.44 2.44 0 0 0 .234-.065 1.52 1.52 0 0 0 .214-.102c.062-.036.173-.129.247-.207a1.24 1.24 0 0 0 .205-.285l.085-.197.042-.158a3.38 3.38 0 0 0 .051-.39c.017-.206.022-1.087.017-3.191l-.006-2.906-.048-.04c-.043-.036-.084-.04-.409-.04-.351 0-.362.001-.405.049l-.044.049v3.019 3.02l-.059.135c-.033.075-.1.177-.15.229a.63.63 0 0 1-.211.141c-.066.026-.166.052-.222.057a.77.77 0 0 1-.261-.035 1.72 1.72 0 0 1-.255-.093l-.167-.092-.224-.133-.591-.352-.473-.308c-.033-.043-.035-.237-.035-3.082l.025-3.07c.014-.018.088-.073.164-.121l.147-.088c.004 0 .09-.052.191-.116l.193-.116a2.16 2.16 0 0 0 .169-.098l.476-.287.387-.231.479-.286.52-.307.163-.099c.028-.02.152-.096.275-.168l.315-.185.194-.116.174-.105.595-.355.593-.348c.069-.034.073-.033.18.028l.191.111.479.285.469.28.397.237.387.232.387.232.54.322.764.457.642.384.195.117.199.119.193.11a.61.61 0 0 1 .132.097c.034.04.036.217.035 3.082l-.025 3.073c-.014.018-.065.059-.114.091l-.183.112-.312.187-.285.174-.222.13-.352.213-.208.123a2.17 2.17 0 0 0-.167.098l-.22.134-.306.183-.754.454-.581.349-.397.238-.387.232-.309.187c-.144.087-.271.151-.304.151s-.142-.054-.261-.129l-.662-.411-.499-.282c-.023 0-.07.019-.104.043s-.134.079-.224.124a4.42 4.42 0 0 1-.352.151c-.143.053-.189.079-.189.108s.052.073.141.133l.152.095a1.79 1.79 0 0 1 .17.103l.668.416.55.336c.022.012.064.039.093.058a1 1 0 0 0 .171.078c.095.034.171.042.376.042.169 0 .291-.011.357-.032.055-.017.202-.092.326-.166l.297-.176.754-.452 1.498-.901.907-.544.723-.432.703-.433c.039-.03.11-.097.158-.149s.113-.152.146-.223.066-.173.074-.228.023-.1.032-.1.018-1.33.018-3.142l-.019-3.142c-.011 0-.025-.045-.033-.1a.85.85 0 0 0-.064-.206c-.028-.058-.079-.144-.113-.19a1.11 1.11 0 0 0-.151-.158c-.049-.04-.251-.172-.45-.292l-.447-.269-.316-.19-.318-.191-.316-.189-.341-.203-.414-.25-.309-.186a9.08 9.08 0 0 1-.316-.19l-.317-.19c-.005 0-.079-.044-.167-.098l-.474-.287-.377-.226-.265-.159-.321-.184a.73.73 0 0 0-.209-.073c-.051-.006-.097-.019-.103-.029S11.076 5 10.987 5s-.162.008-.162.018zm1.09 4.232l-.234.031c-.084.013-.217.04-.295.061l-.26.081c-.065.024-.194.086-.287.139s-.234.158-.314.234a1.63 1.63 0 0 0-.224.27c-.044.072-.098.183-.122.247a2.13 2.13 0 0 0-.066.221 2.19 2.19 0 0 0-.022.354c.001.137.011.294.024.348s.041.151.064.215.081.174.129.244.136.167.195.214.168.12.241.161a2.36 2.36 0 0 0 .32.139l.296.088.2.042.224.04.408.053.438.053.295.04.245.041c.062.012.176.04.255.064l.214.07c.039.015.1.043.135.063s.093.061.128.091a.48.48 0 0 1 .097.122c.024.047.033.12.032.254-.001.161-.009.204-.057.301-.03.062-.097.151-.147.197s-.139.107-.196.136a1.61 1.61 0 0 1-.267.093l-.311.064c-.082.012-.315.023-.52.023l-.586-.029-.306-.054-.153-.047c-.034-.012-.11-.046-.171-.074a.92.92 0 0 1-.226-.172c-.094-.098-.129-.154-.182-.297-.036-.097-.071-.224-.078-.281a.37.37 0 0 0-.048-.15c-.034-.044-.05-.046-.413-.046-.342 0-.381.004-.42.04s-.043.064-.043.169a2.22 2.22 0 0 0 .029.298c.016.093.044.217.063.274a2.02 2.02 0 0 0 .085.21c.028.058.076.143.107.19s.1.13.153.185a2.19 2.19 0 0 0 .226.195 2.01 2.01 0 0 0 .277.165l.21.093c.034.013.125.041.204.064l.255.063.296.05c.113.017.384.027.703.027l.672-.027.265-.049c.062-.012.209-.054.327-.093a2.63 2.63 0 0 0 .361-.151 2.79 2.79 0 0 0 .272-.175c.069-.052.175-.155.234-.229a1.91 1.91 0 0 0 .178-.274 1.59 1.59 0 0 0 .094-.224c.013-.046.037-.16.053-.253a2.09 2.09 0 0 0 .03-.295 2.17 2.17 0 0 0-.029-.295 1.92 1.92 0 0 0-.068-.274c-.021-.058-.063-.145-.093-.194s-.1-.134-.157-.19-.159-.137-.228-.181-.195-.107-.28-.141a3.61 3.61 0 0 0-.358-.114l-.316-.075-.285-.053-.346-.055-.326-.045-.296-.043-.397-.073-.377-.095c-.067-.024-.155-.061-.196-.082s-.098-.068-.127-.104-.059-.089-.066-.118-.009-.127-.004-.217c.007-.13.021-.185.065-.263a.67.67 0 0 1 .151-.17c.053-.04.137-.087.187-.106l.132-.052a1.43 1.43 0 0 1 .173-.046c.089-.019.288-.028.611-.028.375.001.51.008.622.036l.218.055c.041.011.134.054.207.096a1.04 1.04 0 0 1 .221.178c.049.056.114.155.145.22s.056.132.056.15.009.038.02.045.02.037.02.065.013.079.03.112.045.066.063.073.19.013.383.013l.372-.016c.012-.008.033-.036.046-.061s.019-.097.012-.179c-.006-.073-.026-.195-.043-.271a2.63 2.63 0 0 0-.073-.253c-.023-.064-.065-.159-.092-.211a2.21 2.21 0 0 0-.118-.192c-.037-.053-.107-.134-.155-.18s-.145-.124-.216-.174a1.8 1.8 0 0 0-.234-.138l-.228-.091c-.067-.024-.187-.058-.265-.076l-.265-.056c-.067-.012-.342-.026-.611-.03s-.526-.004-.571.001z" fill="#fff"/></svg>