<svg xmlns="http://www.w3.org/2000/svg" width="23" height="26" fill="none" xmlns:v="https://vecta.io/nano"><g fill="#cc3837"><path d="M11 26V0H0l1.913 22.431L11 26z"/><path d="M11 26V0h12l-2.087 22.431L11 26z"/></g><path d="M21 2H11v22l8-3.043L21 2z" fill="#e26968"/><path fill-rule="evenodd" d="M3 11v2l.993-.006.993-.006.006-1.506.006-1.506h.499.499l.006 1.506.006 1.506h.487.487l.006-1.994L6.994 9H4.997 3v2zm5.004.494v2.494l.993.006.993.006v-.5-.5h.999.999v-2-2H9.996 8.004v2.494zM13.009 11v2l.993-.006.993-.006.006-1.506.006-1.506.493.006.493.006.012 1.5.012 1.5h.487.487l.012-1.5.012-1.5.493-.006.493-.006.006 1.506.006 1.506.493.006.493.007v-2-2h-2.995-2.996v2zm-2.003-.006L11.012 12h-.511-.511v-.996l.016-1.012c.009-.009.236-.013.505-.01l.489.006.006 1.006z" fill="#fff"/></svg>