<svg xmlns="http://www.w3.org/2000/svg" width="23" height="26" fill="none" xmlns:v="https://vecta.io/nano"><g fill="#83b4e2"><path d="M11 26V0H0l1.913 22.431L11 26z"/><path d="M11 26V0h12l-2.087 22.431L11 26z"/></g><path d="M21 2H11v22l8-3.043L21 2z" fill="#9ecaeb"/><g fill-rule="evenodd"><path d="M14.694 8.967l-.021 1.077-.044.225-.045.187-.066.187c-.024.063-.068.161-.098.219l-.085.156a.48.48 0 0 1-.041.062 1.98 1.98 0 0 0-.071.09c-.033.044-.091.111-.13.149a1.65 1.65 0 0 1-.15.128l-.091.073c-.006.008-.097.058-.203.111a2.2 2.2 0 0 1-.346.139 3.75 3.75 0 0 1-.374.071c-.177.024-.605.03-2.194.031l-2.12.029-.283.064c-.075.02-.217.074-.315.12l-.273.147a2.11 2.11 0 0 0-.243.21c-.082.081-.177.19-.211.241s-.093.156-.129.233-.067.157-.067.178-.008.048-.018.059a.76.76 0 0 0-.047.176c-.024.127-.029.521-.029 2.113l.029 2.04a3.15 3.15 0 0 0 .112.255c.046.095.091.172.101.172s.023.016.03.036a.55.55 0 0 0 .091.121c.043.046.133.128.199.182a3.13 3.13 0 0 0 .236.171c.064.04.193.11.289.154a3.73 3.73 0 0 0 .372.144l.294.088.168.043.199.039.283.042.378.047c.136.016.481.026.903.025l.882-.026.378-.046.294-.043.189-.039.262-.064.21-.059c.011-.008.059-.026.105-.042l.178-.069.147-.065a2.36 2.36 0 0 0 .157-.085l.116-.074c.006-.007.044-.035.084-.063a1.48 1.48 0 0 0 .159-.135c.047-.047.125-.142.173-.213s.088-.141.088-.156.008-.037.018-.048.028-.058.042-.105c.017-.06.025-.371.025-1.025v-.94h-1.803c-1.625 0-1.804-.003-1.816-.033-.007-.018-.013-.125-.013-.238s.006-.22.013-.238c.012-.031.249-.033 2.735-.032l2.826-.022a3.1 3.1 0 0 0 .23-.067 2.4 2.4 0 0 0 .252-.105c.069-.034.195-.108.278-.164a2.26 2.26 0 0 0 .287-.239c.074-.075.183-.205.241-.289s.106-.162.106-.173.008-.024.017-.028.056-.087.103-.184a3.74 3.74 0 0 0 .149-.364l.106-.364.07-.291c.021-.087.027-.383.027-1.239l-.028-1.27-.078-.354-.091-.333-.108-.291-.123-.271c-.031-.057-.063-.107-.072-.111s-.016-.016-.016-.027-.03-.064-.067-.117l-.1-.138a4.27 4.27 0 0 0-.156-.171 2.01 2.01 0 0 0-.273-.232 2.55 2.55 0 0 0-.289-.168c-.077-.036-.15-.065-.163-.065s-.04-.008-.06-.018a.86.86 0 0 0-.136-.042c-.064-.015-.364-.023-.824-.023h-.724v.967zm-1.875 7.634l.129.054c.038.017.108.069.154.116a.81.81 0 0 1 .121.159c.021.041.049.123.063.183.02.085.02.134.001.219a1.07 1.07 0 0 1-.068.197c-.024.048-.084.126-.134.172a.79.79 0 0 1-.188.126c-.069.03-.144.041-.263.041a.55.55 0 0 1-.263-.045c-.053-.025-.137-.083-.186-.13s-.106-.117-.126-.157-.048-.126-.062-.192c-.018-.089-.019-.148-.002-.23.013-.061.039-.143.059-.183a.68.68 0 0 1 .083-.126.79.79 0 0 1 .117-.102.98.98 0 0 1 .168-.087.74.74 0 0 1 .218-.039.6.6 0 0 1 .178.023z" fill="#fbbc09"/><path d="M10.034 4.003c-.017.005-.196.019-.397.031l-.522.042-.282.042-.219.041-.177.039-.157.042-.125.036a.34.34 0 0 0-.073.029.74.74 0 0 1-.115.043 2.49 2.49 0 0 0-.261.11l-.177.096a.24.24 0 0 1-.063.043c-.029.015-.089.056-.135.092a2.05 2.05 0 0 0-.146.127 1.9 1.9 0 0 0-.132.149c-.037.048-.093.141-.124.208a1.21 1.21 0 0 0-.078.246c-.014.078-.02.456-.016 1.014l.006.889h1.805 1.805v.247c0 .212-.005.249-.035.261-.019.007-1.219.012-2.667.011s-2.674.004-2.726.011l-.188.034-.136.038-.167.065c-.069.026-.179.079-.244.117l-.146.095a1.75 1.75 0 0 1-.107.085 1.64 1.64 0 0 0-.147.126 2.61 2.61 0 0 0-.15.169l-.109.13c-.014.015-.026.036-.026.045s-.013.031-.029.047-.072.113-.123.215l-.126.259c-.017.04-.059.157-.093.26l-.084.281-.043.198-.043.239-.043.297c-.012.089-.021.459-.021.822l.022.836.044.322.042.25.063.281.07.26.093.25.1.239c.019.04.08.148.136.239l.116.177a1 1 0 0 1 .076.093c.034.046.105.124.156.174s.16.137.24.194a1.94 1.94 0 0 0 .24.146l.23.096c.135.053.137.053.922.061l.786.008.01-1.057.042-1.182.052-.198.056-.177a2.43 2.43 0 0 1 .105-.239 2.31 2.31 0 0 1 .168-.27c.055-.074.133-.167.174-.205a2.78 2.78 0 0 1 .198-.162 1.96 1.96 0 0 1 .276-.164c.084-.04.208-.087.274-.106l.266-.062c.12-.024.505-.029 2.125-.029l2.129-.021.265-.045c.063-.013.183-.046.267-.073s.219-.083.301-.124a1.16 1.16 0 0 0 .178-.104c.016-.016.039-.029.05-.029s.105-.082.207-.182.191-.198.198-.218.026-.051.045-.069.068-.114.11-.213.087-.232.1-.295l.045-.225c.015-.073.022-.742.022-1.985l-.021-1.943-.045-.147a1.65 1.65 0 0 0-.067-.172c-.024-.051-.051-.097-.06-.101s-.017-.018-.017-.031-.026-.057-.057-.097-.118-.134-.193-.209-.202-.179-.283-.231a3.65 3.65 0 0 0-.294-.17c-.081-.041-.203-.094-.271-.118l-.206-.071-.167-.049-.167-.044-.146-.035-.177-.033-.282-.041-.438-.041-.658-.029-.417-.001zM8.549 5.148c.05.017.12.047.156.065a.71.71 0 0 1 .144.116.83.83 0 0 1 .126.179c.037.077.046.133.046.273 0 .147-.009.194-.051.277-.028.055-.085.135-.127.177s-.122.101-.177.129c-.086.044-.129.052-.29.051s-.205-.009-.283-.05a.86.86 0 0 1-.178-.134.89.89 0 0 1-.135-.186.48.48 0 0 1-.049-.27c.001-.138.011-.19.054-.274a.8.8 0 0 1 .146-.19.76.76 0 0 1 .164-.116l.134-.052a.58.58 0 0 1 .146-.024.6.6 0 0 1 .175.03z" fill="#447cab"/></g></svg>