<svg xmlns="http://www.w3.org/2000/svg" width="23" height="26" fill="none" xmlns:v="https://vecta.io/nano"><g fill="#26a9ad"><path d="M11 26V0H0l1.913 22.431L11 26z"/><path d="M11 26V0h12l-2.087 22.431L11 26z"/></g><path d="M21 2H11v22l8-3.043L21 2z" fill="#44b5b8"/><path fill-rule="evenodd" d="M13.832 5.042c-.125.026-.331.083-.458.126s-.358.143-.515.221l-.502.279-.485.333-.348.261-.293.249-.229.19c-.009.003-.099-.067-.202-.156l-.344-.289-.376-.284-.444-.297c-.124-.077-.356-.204-.515-.282l-.467-.204a4.8 4.8 0 0 0-.386-.111c-.131-.031-.292-.053-.436-.059-.16-.007-.275-.001-.386.02a2.04 2.04 0 0 0-.27.071c-.061.023-.167.076-.235.119s-.167.124-.222.179-.135.152-.178.215-.108.177-.144.255-.093.226-.127.329-.075.269-.091.368a7.14 7.14 0 0 0-.053.504 4.65 4.65 0 0 0 0 .71l.055.629.099.571.068.353c0 .014-.133.069-.322.132l-.579.21-.597.272-.594.335a5.97 5.97 0 0 0-.449.326c-.107.088-.253.227-.325.308s-.165.2-.207.265a2.27 2.27 0 0 0-.136.239c-.032.067-.076.191-.098.276S3 11.921 3 12c0 .09.018.209.049.322.027.099.079.239.117.311a2.2 2.2 0 0 0 .162.258c.052.069.149.182.215.251a4.29 4.29 0 0 0 .295.268 5.52 5.52 0 0 0 .386.283 6.82 6.82 0 0 0 .505.291l.618.288.657.246.348.123c.008.007-.02.188-.064.401l-.113.679a7.28 7.28 0 0 0-.035.827l.034.763c.019.125.066.329.104.452s.1.291.138.372a1.91 1.91 0 0 0 .156.268 2.34 2.34 0 0 0 .178.212 1.44 1.44 0 0 0 .212.17c.066.042.17.095.231.117s.172.053.247.069a1.98 1.98 0 0 0 .325.028c.112 0 .27-.016.39-.04a4.87 4.87 0 0 0 .449-.12 4.69 4.69 0 0 0 .551-.233c.167-.084.42-.227.562-.318l.419-.285.32-.246.317-.264.203-.174.044-.037.164.145.332.281.337.26.436.296a7.36 7.36 0 0 0 .582.329c.189.094.418.19.574.24a4.43 4.43 0 0 0 .448.118c.103.019.277.034.386.034s.262-.014.346-.032.22-.066.307-.107.196-.105.242-.143a2.25 2.25 0 0 0 .193-.193 1.74 1.74 0 0 0 .197-.289c.048-.091.114-.243.148-.337s.079-.256.1-.36a5.16 5.16 0 0 0 .062-.419c.015-.144.02-.403.014-.691l-.045-.752-.11-.652-.062-.371a5.68 5.68 0 0 1 .35-.124l.634-.238.581-.27.455-.254.32-.218c.082-.06.228-.183.325-.274s.229-.23.293-.309a2.15 2.15 0 0 0 .213-.34 2.08 2.08 0 0 0 .128-.325 1.5 1.5 0 0 0 .031-.294 1.09 1.09 0 0 0-.05-.335 2.08 2.08 0 0 0-.117-.299 2.12 2.12 0 0 0-.157-.25c-.049-.066-.151-.183-.225-.261s-.223-.211-.331-.295l-.396-.282c-.11-.07-.343-.2-.517-.289l-.653-.297-.619-.227-.29-.104a3.95 3.95 0 0 1 .068-.388l.111-.661c.026-.213.036-.433.036-.851l-.035-.783a3.91 3.91 0 0 0-.085-.389c-.027-.093-.081-.244-.118-.334a2.57 2.57 0 0 0-.133-.272c-.036-.06-.145-.187-.243-.284-.129-.126-.214-.192-.308-.237-.071-.034-.196-.081-.277-.104-.098-.028-.223-.044-.375-.05a1.52 1.52 0 0 0-.455.04zm-5.755.701c.067.015.197.053.29.084a3.96 3.96 0 0 1 .319.124 5.89 5.89 0 0 1 .366.19l.433.269.416.303.391.32c.162.138.189.17.173.199-.011.019-.028.04-.038.047s-.12.123-.243.259l-.372.422-.327.4-.264.345c-.047.066-.094.121-.103.121s-.229.027-.487.059l-.902.146-.552.117c-.066.017-.123.028-.126.024s-.029-.102-.056-.22l-.09-.476L6.842 8a8.02 8.02 0 0 1-.02-.584c0-.218.012-.452.029-.569l.06-.321c.017-.067.054-.18.081-.251s.083-.181.124-.243.104-.137.14-.167a.94.94 0 0 1 .147-.095c.045-.023.131-.048.19-.056a1.37 1.37 0 0 1 .235-.006c.069.005.181.022.248.037zm6.514.019c.063.031.151.095.195.142s.119.166.165.264.099.231.117.296a3.6 3.6 0 0 1 .063.311 5.44 5.44 0 0 1 .043.495 6.07 6.07 0 0 1-.011.603l-.074.622-.09.486-.047.177c-.004.007-.059 0-.122-.015l-.55-.113-.9-.146-.486-.059c-.012 0-.079-.077-.149-.17l-.277-.355-.305-.37-.396-.444-.243-.282c-.002-.012.073-.088.167-.169l.35-.29.368-.275.381-.251c.106-.066.298-.17.426-.233s.303-.137.39-.166l.297-.09c.107-.028.192-.036.358-.031.194.005.23.012.332.062zm-3.331 2.223l.44.497.192.244c0 .008-.405.014-.901.013l-.901-.004a6.55 6.55 0 0 1 .155-.195l.312-.367.286-.315c.071-.076.138-.139.149-.139s.132.12.269.267zm.602 1.463l.46.031.163.013.255.382.414.645.337.583.324.608.147.287-.136.268-.305.579-.387.671-.427.676c-.132.198-.225.32-.25.325a5.88 5.88 0 0 1-.346.029l-.822.032c-.316.007-.699.003-.99-.012l-.623-.037-.148-.013-.136-.195-.346-.525-.386-.632-.395-.728-.219-.426.142-.284.313-.595.377-.652.424-.666c.214-.32.219-.326.29-.328l.399-.026.951-.027.921.016zm-3.297.174a3.34 3.34 0 0 1-.175.297l-.315.522-.263.473c-.068.127-.131.223-.139.214a2.86 2.86 0 0 1-.115-.273l-.207-.584-.121-.369c-.012-.039-.003-.046.091-.072.058-.016.261-.06.452-.098l.525-.096.223-.029c.025-.001.045.006.045.016zm5.277.039l.614.118.296.078c.011.011-.011.111-.057.257l-.18.531-.148.389c-.04.091-.044.095-.071.06-.015-.021-.069-.117-.12-.214l-.241-.429-.307-.506-.188-.297c-.027-.041-.026-.044.018-.044.026 0 .198.026.383.057zm-7.21.697l.26.734.265.655.101.259c0 .017-.052.151-.117.298l-.256.637-.239.688-.11.328a3.03 3.03 0 0 1-.362-.113l-.669-.261-.554-.272-.416-.255a4.84 4.84 0 0 1-.341-.262c-.09-.077-.208-.198-.263-.27s-.122-.173-.149-.227-.058-.144-.069-.2a.49.49 0 0 1 .002-.204c.012-.056.044-.145.071-.198a1.63 1.63 0 0 1 .124-.195 2.68 2.68 0 0 1 .24-.254c.091-.086.243-.209.336-.274l.344-.22.385-.204.449-.203.525-.197.317-.098c.022-.001.056.082.127.305zm9.17-.211l.436.157.456.203.497.258c.11.064.284.179.387.254s.263.215.355.309a2.16 2.16 0 0 1 .24.289c.039.064.086.164.103.222a.75.75 0 0 1 .032.158.84.84 0 0 1-.039.176c-.021.068-.081.185-.132.26s-.16.201-.243.281-.235.207-.338.282-.292.197-.419.269l-.485.25-.354.158-.454.164-.369.11c-.008-.008-.068-.181-.133-.385l-.267-.749-.24-.583c-.051-.112-.092-.218-.092-.236s.046-.136.101-.263l.254-.63.246-.7.102-.326c.004-.013.024-.024.043-.024s.16.043.313.095zm-4.995.412c-.079.009-.209.039-.289.065s-.199.079-.264.116-.182.126-.26.197-.183.189-.233.263a1.63 1.63 0 0 0-.147.286 1.78 1.78 0 0 0-.079.338c-.016.135-.017.232-.002.352.012.091.042.226.068.301a1.93 1.93 0 0 0 .082.202 2.09 2.09 0 0 0 .143.209 1.62 1.62 0 0 0 .249.25 1.92 1.92 0 0 0 .254.165 1.9 1.9 0 0 0 .268.1c.125.035.202.043.402.043a1.5 1.5 0 0 0 .373-.035c.069-.019.173-.054.231-.08a1.77 1.77 0 0 0 .225-.126 1.8 1.8 0 0 0 .217-.175 1.92 1.92 0 0 0 .195-.239 1.52 1.52 0 0 0 .154-.308c.048-.14.058-.205.066-.424a1.31 1.31 0 0 0-.025-.399 1.78 1.78 0 0 0-.091-.263c-.031-.068-.096-.177-.144-.243s-.13-.159-.183-.208-.137-.115-.186-.148-.135-.083-.191-.111-.172-.068-.257-.089-.218-.042-.294-.047a1.84 1.84 0 0 0-.282.008zm-2.949 2.623l.381.656.279.444c.062.091.064.098.027.104-.022.003-.162-.013-.312-.036l-.548-.099-.361-.079c-.053-.013-.086-.032-.086-.05s.055-.192.121-.392l.209-.595.098-.248c.006-.009.013-.016.017-.016a5.17 5.17 0 0 1 .176.309zm6.565-.091l.223.624.126.422c-.006.009-.088.034-.183.056l-.371.079-.446.079-.301.039c-.053 0-.052-.003.098-.238l.336-.556.266-.476.111-.203c.016-.024.035-.044.042-.044s.052.098.099.219zm.593 1.97l.082.438.062.491c.014.153.019.424.012.71-.008.354-.02.506-.05.647l-.073.282a2.51 2.51 0 0 1-.111.248c-.042.083-.114.187-.158.231a.82.82 0 0 1-.193.131c-.099.046-.135.051-.32.051a1.56 1.56 0 0 1-.384-.044c-.097-.024-.264-.078-.372-.121l-.332-.145-.316-.173-.367-.235-.392-.289-.387-.315c-.1-.085-.182-.166-.182-.18s.06-.089.134-.166l.274-.297.326-.379.397-.497.21-.273.492-.063.928-.15.535-.114c.073-.02.105-.021.121-.005s.041.109.064.216zm-7.697-.175l.513.106.594.098.492.064.207.025.106.136.228.291.319.389.45.51.254.294c0 .01-.091.096-.203.192l-.351.291-.327.245-.287.195-.299.176-.356.18-.305.119-.277.079a1.69 1.69 0 0 1-.327.032c-.163 0-.204-.007-.312-.055a.7.7 0 0 1-.211-.147c-.048-.051-.117-.148-.152-.216a2.29 2.29 0 0 1-.102-.231 2.92 2.92 0 0 1-.077-.292 4.62 4.62 0 0 1-.062-.48 4.09 4.09 0 0 1 .001-.652l.063-.628.093-.52c.043-.203.059-.248.088-.248.019 0 .127.022.239.048zm4.587.379c.004 0-.023.038-.059.083l-.211.258-.385.434-.239.259-.078-.074c-.043-.041-.162-.167-.264-.281l-.374-.428-.188-.24c0-.013.309-.018.896-.015l.903.005z" fill="#fff"/></svg>