<svg xmlns="http://www.w3.org/2000/svg" width="23" height="26" fill="none" xmlns:v="https://vecta.io/nano"><g fill="#163a71"><path d="M11 26V0H0L1.9 22.4L11 26Z"/><path d="M11 26V0H23L20.9 22.4L11 26Z"/></g><path d="M21 2H11v22l8-3 2-19z" fill="#5379b5"/><g clip-path="url(#A)"><g fill="#415870"><path d="M6.881 10.217l.109-.408.143-.397.177-.383.209-.367.228-.336L8 8.008l.275-.298.296-.277-.229.21-.216.223-.203.236-.189.247.133-.176.142-.169.151-.162.159-.154.168-.146.176-.138.182-.128.189-.119-.069.066-.071.064-.072.062-.074.06c-.104.089-.193.179-.207.234l-.394.392-.356.428-.313.46-.268.488c-.082.167-.155.339-.22.514a5.48 5.48 0 0 0-.166.533c-.092.361-.147.731-.165 1.104a1.36 1.36 0 0 1-.035-.187 1.34 1.34 0 0 1-.008-.191 1.36 1.36 0 0 1 .063-.375l.199-.592zm3.67-3.702l-.411.145.1-.043.102-.039.104-.034.105-.029zm1.733 9.728l.447-.063-.111.023-.112.018-.112.013-.113.008m-5.168-4.105l.067.248.095.482.141.471c.109.309.248.608.415.89l-.142-.241-.13-.247-.119-.253-.107-.258-.089-.265-.067-.272-.044-.276-.021-.279m.104-.695c.001-.158.012-.315.033-.471s.052-.311.093-.463.091-.302.151-.448a3.68 3.68 0 0 1 .207-.425 4.11 4.11 0 0 0-.199.428 4.13 4.13 0 0 0-.148.448c-.041.152-.073.306-.096.462s-.037.313-.042.47m8.223 2.082c-.012-.005-.016-.018-.016-.035l.006-.022v-.023l.086-.132.081-.135.076-.138.07-.141-.005.039-.006.039-.007.039-.009.038-.033.057-.073.11-.04.053-.039.059-.035.061-.03.063-.026.065m-3.327 2.73l-.016.007-.156.009-.019-.004.191-.011m3.177-2.507c-.022-.01-.028-.012-.034-.013-.024-.003-.031-.003-.037-.003.074-.089.144-.185.21-.282l-.002.01-.003.021c-.024.087-.111.178-.135.268m-2.189 1.368c-.069.022-.118.085-.149.106l-.601.012c-.033.016-.104.022-.171.05a1.42 1.42 0 0 0-.13-.05l.37-.013.367-.048.361-.082.352-.115-.097.042-.099.037-.1.033-.102.028"/><path d="M10.894 7.262c.365-.118.783-.154 1.189-.139s.805.075 1.184.114c-.412-.164-.941-.256-1.386-.279s-.8-.006-.892-.096.227-.179.671-.196l.177-.002.177.005.177.012.176.019.646.108-.187-.08c.094.039.187.079.278.074l-.271-.107-.092-.031c-.131-.045-.255-.084-.309-.123l.187-.034c-.252-.111-.64-.179-1.035-.19s-.794.024-1.087.029l.547-.042.548-.001.546.039.542.08.572.138c.188.055.373.12.555.194l.533.248c.174.091.343.191.506.299.171.113.335.235.491.366a5.36 5.36 0 0 1 .446.42c.14.148.272.305.395.468a5.4 5.4 0 0 1 .339.51 5.09 5.09 0 0 1 .275.544 5.05 5.05 0 0 1 .208.573c.058.195.104.393.137.594s.056.403.065.606a5.93 5.93 0 0 1-.384 2.549 5.91 5.91 0 0 1-.598 1.15c-.241.36-.52.693-.834.993l-.144.114-.15.106a3.42 3.42 0 0 1-.316.188l-.202.103-.206.093-.21.084-.214.074c-.901.361-1.904.488-2.889.399-1.048-.134-2.031-.607-2.817-1.311s-1.394-1.643-1.73-2.712c-.069-.212-.077-.484-.031-.564.022-.04.056-.034.101.045s.103.233.196.479a6.53 6.53 0 0 0 .271.594c.1.193.21.382.329.564a6.59 6.59 0 0 0 .383.528 6.55 6.55 0 0 0 .434.488c-.059-.013-.155-.101-.251-.204l-.066-.074-.137-.142-.071-.068.132.189.142.182.151.175.159.167.166.157.174.148.181.139.188.13c-.18-.117-.353-.245-.518-.382l-.242-.213-.229-.226.3.293.321.27.34.246.357.22a5.13 5.13 0 0 0 .794.364l.417.13.427.095c.21.04.4.121.622.175a1.45 1.45 0 0 0 .193.037 1.42 1.42 0 0 0 .197.01c.066-.001.131-.007.196-.017a1.44 1.44 0 0 0 .192-.044 5.68 5.68 0 0 1-1.149-.116c-.189-.039-.375-.088-.559-.146s-.364-.126-.541-.202l-.517-.254-.49-.302-.459-.347-.424-.39H8.2l-.33-.362-.296-.391-.259-.417-.218-.44.28.525c-.431-.859-.664-1.785-.656-2.721l.062.496.102.489.141.479.179.466a5.57 5.57 0 0 0 .482.892l.3.409.336.381c.355.367.761.68 1.207.93l.456.227c.304.132.621.233.945.3.162.034.326.059.491.075s.33.025.496.024l-1.175-.203c-.398-.097-.773-.245-1.018-.45a5.3 5.3 0 0 0 .817.338c.281.09.569.156.862.198a5.28 5.28 0 0 0 .883.051c.295-.008.589-.04.879-.097l-.254.076.287-.035.283-.059.278-.082.27-.105.263-.123.257-.135.25-.147.243-.159.168-.114-.168.114-.439.258-.463.215-.481.169-.495.122.96-.328-.787.186-.284.064-.287.047-.29.03-.291.012a4 4 0 0 0 .426-.039 4.01 4.01 0 0 0 .829-.212c.134-.05.265-.107.393-.171-.753.244-1.577.346-2.356.224l.322.021h.322l.322-.022.319-.044a4.72 4.72 0 0 0 .539-.095 4.76 4.76 0 0 0 1.028-.372 4.79 4.79 0 0 0 .475-.272l-.068.051.139-.097.178-.128.172-.136.165-.144.158-.151a2.79 2.79 0 0 0 .352-.465l.095-.17.072-.106c-.029.079-.034.125.064 0l.151-.217.133-.229.114-.239.094-.247c.124-.345.216-.71.313-1.091.05-.201.063-.481.038-.779.003-.013.006-.027.006-.041s.001-.027 0-.041-.004-.027-.008-.04-.009-.026-.015-.039l-.026-.192-.014-.117-.019-.117-.024-.115-.029-.114.086.463.018.176a.39.39 0 0 1-.02-.039.4.4 0 0 1-.016-.041l-.011-.043a.42.42 0 0 1-.006-.044l.015.411-.02.41-.054.407-.088.401-.124.399-.155.388-.186.374-.216.358.069-.194-.141.3-.161.22-.172.211-.182.202-.192.193.05-.057a1.29 1.29 0 0 0 .088-.122l.039-.064-.283.261-.302.238-.319.215-.335.191-.351.165-.362.137-.372.109-.379.08c-.238.028-.477.038-.717.03a4.84 4.84 0 0 1-.713-.077c-.236-.043-.468-.104-.694-.181s-.447-.172-.66-.282c.113.072.23.137.35.197s.244.112.369.159.254.086.384.119a3.89 3.89 0 0 0 .394.078c-.184-.018-.367-.048-.547-.088s-.359-.091-.533-.152a4.66 4.66 0 0 1-.511-.214 4.67 4.67 0 0 1-.482-.273 4.46 4.46 0 0 1-.445-.327c-.141-.118-.275-.245-.401-.38s-.243-.277-.351-.427-.207-.305-.295-.467c.199.189.457.441.636.495.025-.037-.231-.398-.051-.211.339.325.637.584.909.764s.52.272.741.233c.045-.017-.12-.194-.234-.363s-.188-.323-.056-.26l.248.134.256.119a4.73 4.73 0 0 0 .531.191l.097.035.098.031.099.027.1.024c.016.009.049 0 .09-.01.487.082.956.051 1.215.027l.288-.035.035.003.035.005.034.008.034.011a1.65 1.65 0 0 1 .166-.089l.186-.053.183-.063.179-.073.175-.082.102-.037.101-.04.099-.043.098-.047c-.013-.012-.045-.018-.032-.047l.195-.14.186-.152.175-.164.164-.175.072-.06.074-.057.076-.055.078-.052c.041-.189.183-.437.313-.726s.244-.612.28-.891h-.006l.033-.211.022-.212.01-.213-.002-.213c.013-.048.027-.094.045-.139-.031-.069-.041-.144-.058-.179l-.045-.63c-.023-.031-.09-.082-.115-.153l-.035-.105-.039-.103-.044-.102-.048-.1-.053-.116-.056-.115-.06-.113-.063-.111a4.3 4.3 0 0 0-.239-.364 4.24 4.24 0 0 0-.275-.338c-.097-.108-.2-.211-.308-.309s-.22-.19-.338-.275c-.002-.012-.001-.025.001-.037.006-.024.009-.03.011-.035-.094-.022-.193-.107-.275-.129.017 0 .031-.004.034-.016l-.069-.025-.067-.029-.066-.033-.063-.037-.057-.039-.059-.037-.06-.034-.062-.032-.04-.008-.041-.006-.041-.005-.041-.003-.075-.03c-.237-.183-.528-.206-.838-.234l-.236-.033-.237-.02-.238-.007-.238.006c-.253.019-.363-.026-.55-.024"/><path d="M15.778 12.829l.081-.192.071-.196a4.09 4.09 0 0 0 .111-.401c-.04.294-.073.572-.262.788zm-6.043 1.684l-.045-.077-.048-.075-.05-.074-.053-.072a3.68 3.68 0 0 0 .377.315c.133.096.272.184.416.261s.294.146.447.204a3.67 3.67 0 0 0 .47.142v.005c-.263-.045-.569-.169-.835-.305s-.499-.279-.68-.323h0zm5.691-1.024l.002-.021.003-.021c0 .011-.001.023-.003.034m-7.333.59l-.042-.068.182.246.096.119.099.117-.092-.097-.087-.101-.081-.106-.076-.11m-.66-2.064l-.028-.309-.007-.31.014-.31.035-.308c.024-.127.055-.252.093-.375s.082-.245.132-.363.107-.235.17-.347a3.62 3.62 0 0 1 .205-.327 4.64 4.64 0 0 0-.504 1.279 4.65 4.65 0 0 0-.105.681 4.66 4.66 0 0 0-.004.689m1.488 1.525l-.04-.095-.036-.097-.033-.098-.03-.099.043.091.046.09.048.089.051.087c-.028-.013-.036.018-.049.03m.37 1.742l-.099-.074.284.147c-.038-.012-.123-.049-.184-.073zm-.78-3.119l.045.292-.081-.161.012-.032.01-.032.007-.033.005-.034m.053-1.511l.027-.094.031-.093.034-.091.038-.09-.035.112-.032.113-.029.114-.025.114c-.009-.038-.016-.07-.007-.085"/></g><g fill="#189ab6"><path d="M9.748 4.457l.295.143.281.168.266.191.249.213.222.224.204.239.186.254.167.267-.127-.205-.139-.197-.15-.189-.16-.18.115.128.108.133.101.139.094.144.086.15.079.154.071.158.063.161-.04-.062-.038-.063-.037-.064-.035-.066c-.052-.089-.107-.173-.149-.192l-.24-.358-.273-.334c-.193-.214-.405-.409-.635-.583a4.21 4.21 0 0 0-.358-.243c-.123-.075-.251-.144-.381-.205s-.264-.117-.4-.165a4.24 4.24 0 0 0-.415-.123 1.07 1.07 0 0 1 .148.001 1.06 1.06 0 0 1 .146.022 1.03 1.03 0 0 1 .142.042 1.05 1.05 0 0 1 .134.062l.421.24m2.278 3.345l-.05-.335.018.083.014.084.01.084.007.084m-7.665-.122l-.018.351-.002-.088c.001-.088.007-.176.02-.263zm3.89-3.329l-.199.014c-.127-.006-.254-.005-.381.001l-.38.038-.374.074-.365.11.204-.073.208-.063.211-.053.213-.043.215-.029.217-.011.217.008.215.026m.514.182c.24.048.473.127.693.234a2.84 2.84 0 0 1 .318.182c.102.067.2.141.293.221a3.17 3.17 0 0 0-.296-.215c-.103-.066-.209-.126-.319-.179a3.17 3.17 0 0 0-.337-.141 3.14 3.14 0 0 0-.352-.101M5.963 10.49c.005-.008.016-.009.029-.006.021.009.026.01.032.011l.088.085.091.082.094.078.097.075-.058-.021-.029-.012-.028-.013-.039-.034-.037-.035-.036-.037-.034-.038-.039-.038-.041-.035-.044-.032-.046-.029M4.38 7.551l-.003-.013.016-.12.006-.014-.019.147h0zm1.435 2.792c.014-.019.018-.028.021-.037.061.055.122.12.186.187L6 10.486l-.008-.002c-.055-.03-.111-.109-.176-.14m-.717-1.87l-.011-.034-.013-.033-.016-.032-.019-.03.08-.459c-.007-.028 0-.083-.012-.138l.015-.022.015-.022.014-.023.014-.023-.044.283-.018.286.009.286.036.284-.017-.08-.014-.081-.01-.081-.007-.082"/><path d="M11.403 7.953l.012.233-.008.233-.028.232-.048.229c-.072.309-.176.603-.262.885.186-.29.334-.68.418-1.013s.123-.608.205-.666.104.2.05.54l-.025.135-.03.134-.036.133-.041.131c-.057.179-.124.342-.179.477l.089-.13-.032.046a.45.45 0 0 0-.027.049c-.008.017-.016.034-.022.052l-.016.054.042-.062.041-.064.039-.065.037-.066.03-.057.033-.055.036-.053.039-.051-.003.148c.122-.176.23-.462.298-.76s.099-.608.139-.831l-.049.422-.08.418-.111.41-.141.401-.189.415-.23.394c-.166.255-.357.493-.571.711-.222.226-.469.426-.737.596s-.554.308-.853.413a3.91 3.91 0 0 1-.455.129c-.308.068-.623.098-.939.09-.158-.004-.315-.017-.471-.04-.334-.041-.662-.119-.979-.232s-.62-.26-.905-.439c-.571-.36-1.055-.841-1.419-1.409a2.61 2.61 0 0 1-.124-.257l-.052-.133-.044-.136-.048-.169-.041-.171-.033-.173-.025-.174c-.034-.187-.057-.376-.069-.566a4.85 4.85 0 0 1-.002-.571 4.89 4.89 0 0 1 .064-.567c.033-.187.076-.373.13-.555.065-.193.145-.381.239-.563s.201-.355.32-.52a4.09 4.09 0 0 1 .395-.467 4.08 4.08 0 0 1 .46-.402c.168-.126.345-.241.529-.344s.374-.193.57-.27a4.7 4.7 0 0 1 .601-.192 4.68 4.68 0 0 1 .621-.109c.173-.021.38.013.434.06.028.023.018.047-.05.07l-.098.024-.098.021-.099.018-.099.015c-.332.063-.657.159-.971.287l-.459.214c-.149.079-.295.166-.435.259.018-.045.099-.103.192-.161l.066-.039.065-.041.064-.042.062-.044-.163.073-.159.081-.155.089-.151.097-.144.104-.139.111-.133.118-.127.124.179-.175.189-.164.198-.153.206-.141c-.183.117-.357.246-.521.389a4.35 4.35 0 0 0-.458.461l-.209.268-.186.284-.161.299-.135.312c-.062.153-.152.286-.226.447a1.13 1.13 0 0 0-.057.142 1.11 1.11 0 0 0-.053.301 1.11 1.11 0 0 0 .005.153c.057-.294.143-.581.258-.857a4.36 4.36 0 0 1 .194-.404 4.34 4.34 0 0 1 .234-.382c.169-.246.361-.476.573-.685l.333-.298.36-.265.322-.193.342-.168.356-.135.367-.101-.441.134a4.64 4.64 0 0 1 .534-.121c.18-.03.362-.049.545-.057s.365-.005.547.008.363.038.543.073l-.386-.026c-.129-.003-.258-.002-.387.005l-.386.036-.382.067-.381.101-.37.135-.356.168-.339.2-.319.231-.295.261-.269.289-.239.313a3.71 3.71 0 0 0-.202.328 3.7 3.7 0 0 0-.167.347c-.099.237-.174.484-.222.737l.329-.865c.133-.289.301-.552.492-.709-.142.18-.269.371-.379.572a4.1 4.1 0 0 0-.503 1.977l-.023-.206-.016.224.003.225.021.224.04.221.054.219.065.216.075.212.085.208.063.145-.063-.145-.132-.373a4.06 4.06 0 0 1-.095-.384l-.057-.392-.02-.395.108.78-.025-.626-.007-.226.007-.226.021-.225.034-.223c-.017.109-.029.22-.034.331a3.08 3.08 0 0 0 .002.332 3.1 3.1 0 0 0 .037.33 3.13 3.13 0 0 0 .072.324c-.074-.61-.029-1.252.179-1.829l-.064.242-.048.245-.031.248-.015.249c-.011.141-.013.283-.008.425a3.68 3.68 0 0 0 .041.423 3.73 3.73 0 0 0 .089.415 3.7 3.7 0 0 0 .137.402l-.026-.06.054.12.071.154.078.151.176.29.093.119.101.112.108.105.115.097.07.07c-.055-.034-.089-.045-.009.049l.143.148.154.136.165.122.174.108c.244.146.508.268.784.399l.141.053.145.042.148.03.15.019c.01.004.02.008.03.011s.021.005.031.006.021.001.032 0 .021-.003.032-.005l.15.009.091.007.092.003.091-.001.091-.005c-.119 0-.242 0-.365-.003l-.137-.012a.31.31 0 0 1 .033-.01.32.32 0 0 1 .034-.006c.011-.001.023-.002.034-.002s.023 0 .034.002l-.315-.049-.309-.076-.302-.102-.292-.127-.285-.153-.272-.176-.257-.197-.24-.217.137.082-.207-.152-.143-.155-.135-.162c-.087-.11-.169-.225-.245-.343l.036.046.038.044.041.042.043.039-.156-.255-.137-.265-.116-.275-.095-.283-.073-.291-.051-.296-.028-.299-.005-.3c.014-.185.042-.369.084-.551a3.76 3.76 0 0 1 .405-1.034c.093-.161.197-.315.312-.461a2.94 2.94 0 0 0-.202.238c-.063.083-.122.169-.176.258s-.103.181-.148.275a2.98 2.98 0 0 0-.118.289 3.65 3.65 0 0 1 .148-.404c.057-.132.122-.26.195-.384s.152-.244.239-.358.18-.224.279-.327.205-.2.316-.291.228-.173.349-.249a3.46 3.46 0 0 1 .377-.204c.13-.06.263-.112.4-.155-.173.123-.402.283-.471.412.024.024.337-.117.168-.008-.298.21-.539.398-.715.581s-.284.358-.287.53c.006.037.165-.063.313-.125s.274-.096.207-.004l-.139.169-.129.177-.118.185-.107.191-.041.068-.038.07-.069.144c-.006.023-.007.028-.007.034l.002.035-.072.225-.058.229c-.034.154-.058.31-.072.467l-.016.224-.008.027-.01.026-.011.025-.013.024.045.139.012.149.02.148.029.146.036.145.013.083.016.083.018.082.021.081c.011-.008.02-.031.04-.017l.078.17.089.164.099.158.109.151.035.064.032.065.03.066.028.067c.138.059.306.204.507.345l.15.103.156.092.163.081.168.069v-.004l.155.056.158.047c.106.029.214.053.322.07l.025.012.025.013.025.014.024.014c.058-.013.115-.01.144-.018l.486.059.031-.021a.44.44 0 0 1 .067-.033l.036-.012.17-.026.084-.018.083-.022.096-.023.096-.026.095-.029.094-.031c.106-.037.211-.08.313-.128a3.33 3.33 0 0 0 .579-.348l.26-.216c.019.003.024.004.028.006.018.008.022.011.025.014.03-.069.11-.131.139-.19-.003.014 0 .024.008.029l.029-.049.032-.047.035-.045.038-.043.038-.038.036-.039.035-.041.033-.042.012-.03.011-.03.009-.03.008-.031.034-.053c.175-.153.235-.372.302-.603l.061-.175.05-.178.04-.18.03-.182c.023-.195.074-.272.1-.415"/><path d="M6.442 10.848l.134.09.139.083.143.076.146.069c-.218-.074-.425-.14-.562-.317m-.386-4.854l.065-.023.064-.025.064-.027.062-.03c-.104.074-.202.154-.295.241a2.82 2.82 0 0 0-.482.589 2.83 2.83 0 0 0-.178.337h-.004l.074-.157.084-.151.095-.145.105-.138c.142-.185.286-.34.347-.47m-.067 4.487l.008.002.023.007c-.022-.006-.027-.008-.032-.011m.646-5.67l.058-.021-.214.102-.105.055-.103.058.087-.056.09-.051.092-.046.095-.041m1.669-.197l.239.024.237.041.234.056.229.072c.093.037.184.079.272.126s.174.098.257.154a2.81 2.81 0 0 1 .239.181c.076.064.149.133.219.205a3.6 3.6 0 0 0-.428-.32c-.15-.096-.308-.181-.471-.253a3.62 3.62 0 0 0-.503-.181c-.172-.048-.347-.083-.524-.105m-1.38.907l.079-.016.079-.013.159-.018-.076.019-.076.021-.075.023-.074.026c.014-.019-.009-.03-.015-.042m-1.38.024l.071-.065-.154.194c.015-.027.056-.086.084-.129zm2.49-.132l-.229-.008.134-.038.022.014a.25.25 0 0 0 .023.012l.024.01c.008.003.016.006.025.008m1.143.264l.068.034.066.037.065.04.063.042-.08-.044-.081-.041-.082-.039-.084-.036c.03 0 .056 0 .066.007"/></g></g><path d="M6.373 19.446a.27.27 0 0 0-.11-.2c-.065-.048-.152-.071-.263-.071-.075 0-.139.011-.191.032s-.092.049-.119.086-.04.079-.04.126a.18.18 0 0 0 .024.102c.018.029.044.054.076.076s.069.039.111.054a1.16 1.16 0 0 0 .134.038l.196.047c.095.021.183.05.262.085s.148.079.207.131.103.113.135.183a.58.58 0 0 1 .05.242c-.001.134-.035.249-.102.347a.65.65 0 0 1-.29.227c-.126.053-.277.08-.455.08a1.2 1.2 0 0 1-.46-.081c-.13-.054-.232-.134-.305-.24s-.11-.238-.114-.395h.446c.005.073.026.134.063.183a.35.35 0 0 0 .15.11c.063.024.135.036.214.036s.146-.011.203-.034.103-.054.135-.095.048-.087.048-.14-.015-.09-.044-.124a.33.33 0 0 0-.126-.085c-.055-.023-.122-.045-.201-.064l-.238-.06c-.184-.045-.329-.115-.436-.21s-.159-.223-.159-.385a.57.57 0 0 1 .105-.346.71.71 0 0 1 .295-.231c.125-.055.267-.083.426-.083a1.01 1.01 0 0 1 .424.083.67.67 0 0 1 .283.231.61.61 0 0 1 .104.343h-.442zm2.707.136h-.467c-.009-.06-.026-.114-.052-.161a.41.41 0 0 0-.101-.121c-.041-.033-.089-.059-.143-.077s-.111-.027-.174-.027c-.113 0-.211.028-.295.084s-.149.136-.195.243-.069.234-.069.386a.98.98 0 0 0 .069.392.53.53 0 0 0 .196.24c.084.054.181.081.291.081.062 0 .119-.008.172-.024a.45.45 0 0 0 .142-.071.41.41 0 0 0 .102-.116c.028-.046.047-.097.058-.155l.467.002c-.012.1-.042.197-.091.29a.87.87 0 0 1-.193.248.91.91 0 0 1-.288.173c-.111.042-.236.063-.376.063a1.03 1.03 0 0 1-.522-.132c-.153-.088-.273-.215-.362-.382s-.132-.369-.132-.606a1.27 1.27 0 0 1 .134-.607c.089-.167.211-.294.364-.381a1.02 1.02 0 0 1 .518-.132 1.12 1.12 0 0 1 .352.053.89.89 0 0 1 .289.156.8.8 0 0 1 .205.248c.053.098.087.21.102.337zM9.411 21v-2.182h.861c.165 0 .305.029.422.088s.206.141.267.248.093.232.093.376-.031.27-.094.374-.153.183-.272.239-.261.083-.428.083h-.576v-.371h.502c.088 0 .161-.012.22-.036a.26.26 0 0 0 .13-.109c.029-.048.044-.108.044-.18s-.015-.133-.044-.183-.072-.087-.131-.113a.54.54 0 0 0-.22-.039h-.311V21h-.461zm1.178-.993l.542.993h-.509l-.53-.993h.498zm2.138-1.189h.461v1.417a.76.76 0 0 1-.43.697 1.07 1.07 0 0 1-.474.099c-.181 0-.339-.033-.475-.099a.76.76 0 0 1-.316-.279c-.075-.119-.113-.258-.113-.418v-1.417h.461v1.377c0 .083.018.157.054.222s.089.115.155.152.145.055.233.055a.47.47 0 0 0 .233-.055.39.39 0 0 0 .155-.152c.037-.065.055-.139.055-.222v-1.377zm.841 0h.569l.601 1.466h.025l.601-1.466h.569V21h-.447v-1.42h-.018l-.565 1.409h-.305l-.565-1.415h-.018V21h-.447v-2.182z" fill="#20caef"/><defs><clipPath id="A"><path fill="#fff" transform="translate(3 3)" d="M0 0h15v14.916H0z"/></clipPath></defs></svg>