<svg xmlns="http://www.w3.org/2000/svg" width="23" height="26" fill="none" xmlns:v="https://vecta.io/nano"><g fill="#294e66"><path d="M11 26V0H0l1.913 22.431L11 26z"/><path d="M11 26V0h12l-2.087 22.431L11 26z"/></g><path d="M21 2H11v22l8-3.043L21 2z" fill="#456788"/><path fill-rule="evenodd" d="M11.012 4.004a3.12 3.12 0 0 1-.302.034l-.429.046-.197.033-.186.04-.36.085-.394.113-.214.079c-.022.012-.056.023-.076.023s-.054.01-.076.021-.077.037-.121.056l-.186.076a5.86 5.86 0 0 0-.336.157l-.24.135c-.004.011-.017.019-.029.019s-.112.055-.224.121l-.234.151c-.017.016-.04.03-.051.03s-.034.014-.051.03a2.19 2.19 0 0 1-.181.132l-.162.115c-.006.008-.069.061-.139.118l-.196.162-.185.163-.256.245-.291.314-.18.205a1.82 1.82 0 0 0-.093.116l-.076.097c-.007.006-.038.048-.069.093l-.069.093c-.007.006-.066.09-.132.186l-.256.407-.267.5-.169.36-.058.139-.043.105a5.21 5.21 0 0 0-.096.279l-.096.291-.048.151-.044.174-.046.221-.047.267-.057.395a9.13 9.13 0 0 0-.048.721l.011.767.05.488.059.337.058.267.049.209.054.174.106.325.095.266c.01.012.019.035.019.052a1.05 1.05 0 0 0 .071.187l.213.448.328.604.2.325c.007.006.039.048.07.093l.075.105.105.141.202.256.29.322.22.232a1.89 1.89 0 0 0 .128.114l.209.186c.07.066.164.145.209.177l.093.071c.006.008.048.039.093.07l.104.075c.013.01.133.09.267.176l.348.214.116.068a.53.53 0 0 0 .069.044l.244.123.276.136c.049.025.099.045.11.045s.066.02.12.045.187.076.296.114l.348.115.267.073.197.048.186.044.261.048.302.047c.08.013.345.035.59.049.327.019.539.019.8 0l.611-.06.568-.102.406-.095.151-.038c.032-.007.079-.021.104-.031s.067-.025.093-.031.132-.043.236-.081l.267-.105.181-.077a8.39 8.39 0 0 0 .394-.191l.388-.215c.053-.037.103-.067.111-.067s.11-.065.228-.144l.244-.174c.017-.017.039-.03.049-.03s.043-.022.074-.049l.137-.11.15-.119.185-.163.349-.338.338-.36.135-.159c.017-.018.088-.11.159-.206l.277-.395.149-.242c0-.011.009-.02.021-.02s.026-.018.033-.041.052-.109.099-.192l.152-.275c.037-.068.066-.139.066-.157s.01-.033.023-.033.023-.014.023-.031a.33.33 0 0 1 .032-.099l.067-.149.079-.186c.025-.058.088-.241.14-.407l.123-.407.047-.174a4.86 4.86 0 0 0 .056-.267l.069-.407.06-.535c.018-.205.023-.471.013-.72l-.038-.628-.058-.43-.083-.395-.071-.291-.043-.151-.059-.198-.098-.291-.088-.221-.072-.174c-.023-.058-.097-.214-.164-.349l-.207-.395-.14-.225c-.03-.041-.055-.085-.055-.099s-.01-.025-.022-.025-.028-.021-.036-.046-.028-.059-.044-.076a2.27 2.27 0 0 1-.13-.18l-.173-.244-.083-.105a9.3 9.3 0 0 1-.138-.163c-.069-.083-.262-.287-.429-.454l-.442-.421-.38-.297-.313-.216c-.04-.021-.078-.044-.084-.052a3.52 3.52 0 0 0-.244-.154l-.476-.259-.331-.156-.162-.069-.203-.08-.348-.117-.418-.119-.29-.07-.174-.035-.232-.037-.348-.046a12.14 12.14 0 0 0-.742-.033h-.568zm.87 1.058l.418.044.278.049.22.046.186.044.174.045.336.108.403.154a.93.93 0 0 0 .18.067c.017 0 .032.01.032.023s.014.023.032.023.109.04.203.089l.287.154.255.149c.077.046.143.092.147.101s.021.017.036.017.049.019.073.041a1.51 1.51 0 0 0 .126.098l.093.07c.006.008.048.039.093.07a.98.98 0 0 1 .116.092c.019.02.087.078.151.129s.244.222.401.38l.348.372c.034.046.079.1.099.119s.083.103.14.186l.116.163a2.14 2.14 0 0 1 .106.151l.149.244.07.116c.008.006.066.121.131.256l.163.349a4.8 4.8 0 0 1 .119.325l.093.291.07.279.072.308c.013.054.023.139.023.188a.6.6 0 0 0 .023.157c.013.037.039.207.058.377a6.79 6.79 0 0 1 .035.637l-.025.538-.059.386-.057.29-.044.197-.116.383-.114.349-.042.104c-.013.032-.109.236-.215.453l-.206.407a.85.85 0 0 0-.071.116l-.076.128c-.011.013-.052.076-.093.139l-.087.128a.98.98 0 0 0-.069.093l-.069.093a1.42 1.42 0 0 0-.076.097l-.093.117-.203.229-.198.22-.151.139-.255.226-.255.211c-.07.056-.237.175-.371.265l-.394.242-.162.092c-.006.007-.102.057-.212.11l-.215.098a.77.77 0 0 0-.112.044l-.18.072-.128.046c-.025.01-.119.04-.209.066l-.255.071-.197.046-.232.047-.325.047-.61.052c-.329.023-.48.022-.742-.001l-.538-.061-.255-.043-.209-.05-.255-.067-.197-.058-.162-.053-.104-.041-.197-.081-.418-.192-.278-.143c-.006-.008-.059-.039-.116-.07a5.38 5.38 0 0 1-.313-.196l-.22-.154c-.006-.008-.048-.04-.093-.071l-.093-.069c-.006-.007-.059-.049-.116-.093a4.22 4.22 0 0 1-.243-.209L7 16.066l-.233-.244-.266-.301-.115-.139c-.007-.006-.038-.051-.07-.099s-.064-.087-.072-.087-.028-.032-.043-.07-.037-.07-.048-.07-.025-.021-.034-.046-.027-.059-.043-.075-.081-.118-.145-.227l-.223-.418-.146-.314-.059-.139-.066-.174-.094-.291-.092-.36-.062-.29-.037-.244-.047-.511-.028-.581.016-.418.041-.36.048-.302.069-.325.064-.244.073-.232a1.18 1.18 0 0 1 .072-.196c.01-.012.019-.036.019-.053s.022-.08.048-.141l.207-.436.257-.488.169-.267.084-.116a1.94 1.94 0 0 0 .1-.14l.139-.186.156-.185c.057-.07.214-.238.349-.372l.36-.337.15-.128a.98.98 0 0 1 .116-.092l.093-.069a3.54 3.54 0 0 1 .186-.132l.351-.226c.097-.059.275-.153.394-.21l.299-.138.244-.098.278-.105.197-.067.197-.063c.064-.021.158-.046.209-.055l.267-.053.383-.062.325-.032.348-.01.499.018zm2.538 2.155l-.145.117a1.81 1.81 0 0 1-.116.093l-.097.076c-.006.007-.058.049-.116.093l-.139.109-.186.146-.186.146-.162.132-.139.116c-.006.007-.061.052-.121.1l-.139.116a1.86 1.86 0 0 1-.115.092l-.116.093a4.64 4.64 0 0 1-.159.134l-.139.117a2.29 2.29 0 0 1-.116.093l-.139.116c-.019.02-.082.072-.139.116l-.139.116a1.76 1.76 0 0 1-.139.116l-.139.116a1.76 1.76 0 0 1-.139.116l-.139.116a1.74 1.74 0 0 1-.139.116l-.139.116a1.79 1.79 0 0 1-.139.116l-.116.093c-.006.007-.069.059-.139.117l-.139.116a2.34 2.34 0 0 1-.116.093l-.139.116a1.29 1.29 0 0 1-.116.097l-.162.134c-.045.04-.11.091-.145.112s-.064.047-.064.057.506.018 1.124.018l1.138-.046c.008-.026.023-.046.034-.046s.032-.031.048-.07.036-.07.045-.07.029-.026.043-.059a.51.51 0 0 1 .05-.087c.013-.016.232-.347.488-.737l.484-.734a.69.69 0 0 0 .049-.08c.016-.03.039-.066.05-.08s.075-.108.141-.211l.139-.194c.01-.004.018-.017.018-.029s.209-.335.464-.718l.464-.72c0-.013.009-.024.021-.024s.027-.016.034-.035.01-.035.006-.035-.058.039-.121.087zm-3.826 5.355l-.471.731c-.004.018-.016.032-.026.032s-.032.031-.047.07-.037.07-.046.07-.031.031-.046.07-.037.07-.046.07-.031.031-.046.07-.037.07-.046.07-.031.031-.046.07-.036.07-.045.07-.029.026-.043.059-.037.072-.05.087-.253.376-.534.802l-.511.796c0 .013-.01.023-.022.023s-.028.021-.036.046-.031.063-.051.082-.03.042-.023.05.043-.011.08-.042l.144-.113.219-.17.176-.139.162-.132.139-.116c.006-.007.05-.041.097-.075l.116-.093a1.96 1.96 0 0 1 .119-.095 1.72 1.72 0 0 0 .139-.116c.028-.028.09-.079.137-.114l.116-.093c.017-.016.088-.076.159-.134l.159-.134a1.8 1.8 0 0 1 .116-.093 1.34 1.34 0 0 0 .12-.099c.019-.02.082-.072.139-.116l.116-.093c.006-.007.069-.059.139-.116l.139-.116c.006-.007.069-.059.139-.116l.139-.116a4.59 4.59 0 0 1 .139-.116l.139-.116a4.28 4.28 0 0 1 .139-.116l.139-.117a2.38 2.38 0 0 1 .116-.093l.139-.116a1.32 1.32 0 0 1 .12-.099l.116-.093a2.47 2.47 0 0 1 .135-.11l.139-.116c.019-.02.071-.063.116-.097l.151-.122a1.9 1.9 0 0 1 .145-.113c.041-.029.075-.058.075-.066s-.18-.021-.4-.029l-1.108-.015h-.707l-.464.699z" fill="#fff"/></svg>