<svg xmlns="http://www.w3.org/2000/svg" width="23" height="26" fill="none" xmlns:v="https://vecta.io/nano"><g fill="#1285d0"><path d="M11 26V0H0l1.913 22.431L11 26z"/><path d="M11 26V0h12l-2.087 22.431L11 26z"/></g><path d="M21 2H11v22l8-3.043L21 2z" fill="#30a3f1"/><path fill-rule="evenodd" d="M11.619 8.371l-2.391 2.371c-.015 0-.124-.076-.243-.169l-.61-.477-.635-.495-.408-.319-.272-.213-.191-.152-.362-.284-.308-.22c-.018-.004-.294.124-.615.284l-.583.291v3.013L5 15.016l.589.296.611.287c.012-.005.167-.12.343-.257l.354-.275.299-.236.411-.32.411-.323.458-.358.439-.34.291-.217c.041-.022.197.13 2.414 2.354L14.037 18a.45.45 0 0 0 .108-.033l.495-.2.465-.184.949-.383c.9-.363.919-.372.935-.434.009-.035.014-2.196.011-4.802l-.021-4.769c-.009-.017-.109-.066-.222-.109l-.267-.106-1.251-.504L14.015 6c-.018 0-1.096 1.067-2.397 2.371zm2.39 3.634l-.022 2.445c-.015 0-.065-.028-.112-.061l-.422-.328-.472-.369-.382-.295-.463-.365-.367-.288-.524-.407c-.231-.18-.376-.307-.38-.332s.03-.068.131-.143l.262-.201.283-.221.643-.502.867-.677.512-.4.264-.208c.074-.058.143-.103.155-.1s.022.844.025 2.452zm-6.9-.901l.859.901c-.004.018-.393.42-.864.894l-.882.862c-.014 0-.03-.014-.037-.032s-.012-.791-.011-1.717l.012-1.731c.006-.025.021-.046.034-.046s.413.391.889.869z" fill="#fff"/></svg>