<svg xmlns="http://www.w3.org/2000/svg" width="23" height="26" fill="none" xmlns:v="https://vecta.io/nano"><g fill="#e89e25"><path d="M11 26V0H0L1.9 22.4L11 26Z"/><path d="M11 26V0H23L20.9 22.4L11 26Z"/></g><path d="M21 2H11v22l8-3 2-19z" fill="#fbca7a"/><g clip-path="url(#A)" fill="#ededed"><path d="M17.2 11.725c-.684.177-1.192.395-1.581.707-.113.087-.317.145-.288.311.087.048.127.156.213.232.15.14.394.318.589.39l.655.234c.389.108.797.12 1.178.231.221.065.451.164.674.238.113.041.204.134.335.142l-.007-.025c-.081-.059-.13-.164-.213-.232l-.325-.173a4.18 4.18 0 0 0-1.127-.602c-.325-.109-.992-.193-1.192-.474l-.022-.012c.182-.07.384-.201.548-.303.267-.159.535-.217.811-.378l.374-.235-.022-.076c-.196-.109-.365-.28-.567-.378-.54-.249-1.119-.477-1.699-.641-.312-.094-.683-.107-1.004-.171-.116-.022-.294.001-.377-.066-.206-.143-.361-.364-.534-.552L12.502 8.62c-.247-.286-.434-.59-.708-.841-1.285-1.188-2.485-1.788-4.19-2.226-.365-.088-.761-.057-1.186-.037l-.647.148c-.153-.02-.335-.142-.475-.185-.571-.166-2.008-.47-2.117.503-.073.615.651.994.926 1.218.2.153.45.32.614.511.1.127.161.274.264.41l.765 1.007c.144.151.299.308.464.435.094.074.225.082.294.227-.071.203-.007.459-.015.69-.033 1.043.423 2.193 1.057 2.772.196.173.652.546 1.034.245.339-.261.117-.719.106-1.174-.003-.109-.04-.172-.008-.254l.005.017.549.603c.382.339.963.64 1.428.819.247.094.483.31.765.331l-.007-.025-.017.005c-.073-.062-.159-.074-.244-.113a4.32 4.32 0 0 1-.587-.382c-.492-.372-.956-.807-1.391-1.268-.211-.223-.412-.477-.597-.708-.08-.087-.123-.239-.223-.266-.074.222-.215.436-.244.691-.058.41.053.863.126 1.345-.032.018-.017.005-.029.027-.291.01-.464-.243-.634-.45-.426-.528-.744-1.48-.72-2.236.009-.195.105-.826-.046-.966-.097-.146-.293-.191-.423-.291a3.54 3.54 0 0 1-.46-.454c-.339-.416-.591-.911-.946-1.322-.165-.191-.408-.368-.611-.53-.227-.182-.451-.292-.655-.527-.069-.081-.172-.216-.133-.337-.002-.073.024-.108.088-.144.084-.125.432-.096.557-.077.351.037.648.081.962.183.143.051.316.175.481.174l.178-.051c.289-.018.583-.148.859-.144.491.015.959.111 1.39.235 1.313.385 2.515 1.121 3.476 2.137.157.165.251.331.402.507l.932 1.079c.292.347.578.704.927.961.178.141.714.089.97.117.192.028.474.02.654.07l1.014.333c.165.063.65.153.724.315h0zM6.438 6.846c-.144.041-.241.087-.336.142l.005.017L6.124 7c.107.116.252.175.371.269l.311.35.012-.022c.095-.119.116-.271.058-.474-.068-.045-.093-.101-.153-.149-.075-.07-.198-.081-.285-.129h0z"/></g><g fill-rule="evenodd"><path d="M4 18.346h.5v-1.969l.771 1.717c.092.206.214.278.458.278s.366-.072.458-.278l.771-1.717v1.969h.496v-1.965c0-.191-.076-.282-.233-.332-.378-.118-.633-.015-.748.241l-.756 1.69-.733-1.69c-.111-.256-.37-.359-.748-.241-.16.05-.237.141-.237.332v1.965h0zm3.869-1.603h.496v1.084c-.004.061.019.198.294.202h1.08v-1.29h.5c.004 0 0 1.759 0 1.767.004.435-.538.526-.786.534H7.881v-.336h1.572c.321-.03.282-.191.282-.244v-.13H8.678c-.492-.008-.805-.221-.809-.469v-1.118z" fill="#373636"/><path d="M10.625 18.346h1.431c.168 0 .332-.034.462-.096.214-.099.321-.233.321-.408v-.366c0-.141-.122-.278-.355-.366-.126-.05-.279-.073-.427-.073h-.603c-.202 0-.298-.061-.321-.194-.004-.015-.004-.031-.004-.046v-.225c0-.015 0-.027.004-.042.023-.103.076-.134.252-.149.015 0 .034-.004.05-.004h1.423v-.332h-1.4c-.202 0-.305.015-.401.042-.298.095-.427.24-.427.496v.29c0 .225.256.416.679.462l.145.004h.515c.019 0 .038 0 .053.004.16.015.225.042.275.099a.13.13 0 0 1 .038.092v.29c0 .034-.023.08-.072.118-.042.038-.115.061-.21.069-.019 0-.034.004-.053.004h-1.374v.332zm5.319-.58c0 .343.252.534.767.572l.141.008h1.297v-.332h-1.305c-.294 0-.405-.072-.405-.248v-1.721h-.496v1.721h0zm-2.789.019v-1.183c0-.302.21-.485.629-.542.042-.008.092-.008.134-.008h.946c.046 0 .088 0 .138.008.416.057.629.24.629.542v1.183c0 .244-.091.374-.298.458l.492.443h-.58l-.397-.355-.401.023h-.53a1.05 1.05 0 0 1-.294-.042c-.317-.084-.469-.252-.469-.527h0zm.538-.03c0 .019.004.034.008.053.03.137.16.214.355.214h.454l-.416-.374h.58l.362.324c.065-.034.111-.088.126-.157.004-.019.004-.034.004-.05v-1.137c0-.012 0-.027-.004-.042-.03-.13-.16-.202-.351-.202h-.755c-.221 0-.362.095-.362.244v1.126h0 0zm4.686.591h.073v-.275h.099v-.057h-.271v.057h.099v.275zm.557 0H19v-.332h-.099l-.088.229-.088-.229h-.103v.332h.069v-.252l.095.252h.05l.095-.252h.004v.252h0z" fill="#fff"/></g><defs><clipPath id="A"><path fill="#fff" transform="matrix(.961667 -.274221 .274221 .961667 3 5.56494)" d="M0 0h13v12.74H0z"/></clipPath></defs></svg>